<?xml version="1.0" encoding="utf-8"?>
<!-- Generator: Adobe Illustrator 17.1.0, SVG Export Plug-In . SVG Version: 6.00 Build 0)  -->
<!DOCTYPE svg PUBLIC "-//W3C//DTD SVG 1.1//EN" "http://www.w3.org/Graphics/SVG/1.1/DTD/svg11.dtd">
<svg version="1.1" id="Capa_1" xmlns="http://www.w3.org/2000/svg" xmlns:xlink="http://www.w3.org/1999/xlink" x="0px" y="0px"
	 width="1000px" height="1000px" viewBox="0 0 1000 1000" enable-background="new 0 0 1000 1000" xml:space="preserve">
<g>
	<path d="M962.3,767.1c6.4,0,11.7-5.2,11.7-11.7V248.3c0-6.4-5.2-11.7-11.7-11.7H511v-41.5c0-14.7-12-26.7-26.7-26.7h-79.2
		c-14.7,0-26.7,12-26.7,26.7v41.5h-62.7c-6.4,0-15.4,3.6-20.1,8L32.5,493.9c-4.7,4.4-8.5,13.2-8.5,19.7v241.9
		c0,6.4,5.2,11.7,11.7,11.7h71.5c0-32.2,12.5-62.5,35.3-85.2s53-35.3,85.2-35.3s62.5,12.5,85.2,35.3c22.8,22.8,35.3,53,35.3,85.2
		H400h285.7c0-32.2,12.5-62.5,35.3-85.2s53-35.3,85.2-35.3s62.5,12.5,85.2,35.3c22.8,22.8,35.3,53,35.3,85.2L962.3,767.1
		L962.3,767.1z M408.4,198.6H481v38.1h-72.6V198.6z M371.9,491.4c0,6.4-5.2,11.7-11.7,11.7H119.6c-6.4,0-7.9-3.7-3.3-8.2L307,307.5
		c4.6-4.5,13.5-8.2,20-8.2h33.3c6.4,0,11.7,5.2,11.7,11.7L371.9,491.4L371.9,491.4z M814.5,495.8c0,7.5-6.1,13.5-13.5,13.5h-82.3
		v82.3c0,7.5-6.1,13.5-13.5,13.5h-61.3c-7.5,0-13.5-6.1-13.5-13.5v-82.3h-82.3c-7.5,0-13.5-6.1-13.5-13.5v-61.3
		c0-7.5,6.1-13.5,13.5-13.5h82.3v-82.3c0-7.5,6.1-13.5,13.5-13.5h61.3c7.5,0,13.5,6.1,13.5,13.5V421h82.3c7.5,0,13.5,6.1,13.5,13.5
		L814.5,495.8L814.5,495.8z"/>
	<circle cx="227.7" cy="767.1" r="90.6"/>
	<circle cx="806.2" cy="767.1" r="90.6"/>
</g>
</svg>
