<?xml version="1.0" encoding="utf-8"?>
<!-- Generator: Adobe Illustrator 17.1.0, SVG Export Plug-In . SVG Version: 6.00 Build 0)  -->
<!DOCTYPE svg PUBLIC "-//W3C//DTD SVG 1.1//EN" "http://www.w3.org/Graphics/SVG/1.1/DTD/svg11.dtd">
<svg version="1.1" id="Capa_1" xmlns="http://www.w3.org/2000/svg" xmlns:xlink="http://www.w3.org/1999/xlink" x="0px" y="0px"
	 width="1000px" height="1000px" viewBox="0 0 1000 1000" enable-background="new 0 0 1000 1000" xml:space="preserve">
<g>
	<path d="M646.8,492.1c3,11.4,5.1,23,7.1,34.4c2.8,15.7,5.5,30.4,10.3,44.5c0.5,1.4,0.8,2.8,0.9,4.3c1.5,12.6-6.5,18.3-9,19.7
		c-2.8,1.6-6.1,2.5-9.5,2.5c-2.3,0-4.7-0.4-7.2-1.2l-28.6-9.2c0,0-0.1,0-0.1,0c-1.1,0-2.4,0.4-2.9,0.7
		c-15.4,12.6-32.9,24.9-53.5,37.5c-7.8,4.8-16,9.6-24.2,14.2c-4.4,2.4-6.8,4.1-7.2,5c0,0,0,0.1,0,0.4v112.1
		c0,14.1-11,25.5-24.6,25.5h-7.9c-13.6,0-24.6-11.4-24.6-25.5v-3.3V643.7c0-0.1,0-0.2,0-0.4c-21.4-11.6-55.5-31.6-84.7-55.5
		c-0.4-0.3-1.7-0.7-2.9-0.7c-0.1,0-0.1,0-0.1,0l-28.6,9.2c-2.4,0.8-4.8,1.2-7.2,1.2c-6.4,0-12-2.9-15.4-8c-2.2-3.2-5.2-10-1.3-19.7
		l1.2-3.1c3.9-12.8,6.3-26.2,8.9-40.3c2.1-11.4,4.2-22.9,7.1-34.3c-86.9,4.2-156.1,76-156.1,164v249.5c0,90.7,617.8,90.7,617.8,0
		V656.1C804.4,567.7,734.5,495.6,646.8,492.1z"/>
	<path d="M337.3,332.7c3.8,9,7,18.9,13.3,26.4c4.4,5.3,11.3,9,18.2,10.1c19.7,31.5,32.9,68.9,29.6,105.9c-0.5,5.6-1.1,11.3-1.7,16.9
		c-0.4,3.9-0.9,7.8-1.4,11.6c1.3,3,3.8,7.4,6,10.3c15.5,20.5,43.7,50.9,90.5,80c1.1,0.1,4.7,0,5,0c46.7-29,75.1-58.9,90.9-79.3
		c2.7-3.3,5.9-9.3,6.5-11.1c-0.3-2.7-1.6-9.2-1.9-11.9c-0.6-5.6-0.8-10-1.1-16.3c-0.4-4.5-1.6-73,31-106.1c6.9-1,13.8-4.8,18.2-10.1
		c6.3-7.6,9.5-17.5,13.3-26.4c4.8-11.5,9.8-22.9,14.4-34.4c7.1-17.8,10.7-40.3-5.7-54.3c-4.5-3.8-10.5-5.7-16.3-5.7
		c-0.1,0-0.3,0-0.4,0c0,0,0,0,0,0c-0.7,0-1.4-1-2.1-2.6c0.2-28,2.7-57.4-1.2-85c-2.3-16.6-7.8-32.7-14.8-47.9
		c-16.2-34.9-42.9-56-79.7-67c-17.1-5.1-34.8-7.9-52.3-8.1c-0.1,0-0.2,0-0.3,0c-0.1,0-0.2,0-0.3,0c-17.5,0.2-35.1,3-52.3,8.1
		c-36.8,11-63.4,32.1-79.7,67c-7.1,15.2-12.5,31.2-14.8,47.9c-3.9,27.6-1.4,57-1.2,85c-0.7,1.6-1.4,2.6-2.1,2.6c0,0,0,0,0,0
		c-0.1,0-0.3,0-0.4,0c-5.9,0-11.8,1.9-16.3,5.7c-16.5,14-12.8,36.5-5.7,54.3C327.4,309.8,332.4,321.2,337.3,332.7z"/>
	<path d="M377.6,453.1c-0.4,0-0.8,0.1-1.2,0.2c-0.9,0.2-1.7,0.8-2.3,1.7c-7.4,11.6-12.2,24.1-15.8,37c-7.3,26.1-9.4,53.8-17.5,79.8
		l-1.5,3.6c-1.7,4.3-0.5,7.1,2.8,7.1c0.8,0,1.6-0.1,2.6-0.5l28.9-9.3c1.4-0.4,2.9-0.6,4.5-0.6c2.8,0,5.7,0.6,8.3,1.7
		c1.5,0.6,2.9,1.4,4.1,2.4c2.3,1.9,4.6,3.7,7,5.6c23.9,18.6,50.1,34.4,69.3,45c0-0.2,0.1-0.3,0.1-0.5c1.1-4.5,3.1-8.7,5.9-12.7
		c1.6-2.2,3.4-4.3,5.4-6.3c0.9-0.9,1.8-1.7,2.7-2.5c-0.6-0.4-1.3-0.8-1.9-1.2c-10.2-6.5-19.5-13.1-28-19.6
		c-27.6-21.1-46.4-41.4-58.8-57.2c-1-1.3-2-2.6-2.9-3.8c-2-2.6-4.4-6.4-6.3-10.2c-1.3-2.6-2.4-5.1-3-7.3c-1.2-4.5-1.7-9-1.8-13.5
		c-0.2-11.1,2.4-22.1,4.4-33.6C383.2,455.5,380.3,453.1,377.6,453.1z"/>
	<path d="M480.8,753.8c0,1.1,0,2.2,0,3.3c0,5.8,4.3,10.5,9.6,10.5h7.9c5.3,0,9.6-4.7,9.6-10.5c0,0,0-112.1,0-112.1
		c0-9.7,7.4-14.4,14.9-18.6c8-4.5,15.9-9.1,23.7-13.8c12.3-7.5,24.3-15.5,36-24c5.4-4,10.7-8.1,15.9-12.3c2-1.6,4.7-2.8,7.6-3.5
		c1.6-0.4,3.2-0.6,4.8-0.6c1.6,0,3.1,0.2,4.5,0.6l28.9,9.3c0.9,0.3,1.8,0.5,2.6,0.5c0.8,0,1.5-0.2,2-0.5c2.3-1.3,1.6-4.6,1.5-5.2
		c0-0.3-0.1-0.7-0.2-1c-9.1-27.1-11.1-56.4-18.8-83.8c-3.6-12.9-8.4-25.3-15.8-37c-0.2-0.4-0.5-0.7-0.9-1c-0.8-0.6-1.7-0.9-2.6-0.9
		c-2.7,0-5.6,2.1-5,5.2c2,11.4,4.6,22.5,4.4,33.6c-0.1,4.8-0.7,9.6-2,14.5c-0.3,1.2-0.9,2.5-1.5,3.9c-2.1,4.7-5.5,10.1-8.1,13.4
		c-0.3,0.4-0.7,0.9-1.1,1.3c-12.9,16.4-33,38-62.8,60.4c-8.2,6.1-17,12.3-26.7,18.4c-1.4,0.9-2.7,1.7-4.1,2.6c-1.6,1-3.3,2-4.9,3
		c-0.5,0.3-1,0.6-1.5,0.9c-2.1,1.3-4.2,2.7-6.2,4.2c-0.5,0.4-0.9,0.7-1.4,1.1c-4.4,3.7-8.1,8.2-9.6,14c-0.4,1.4-0.5,2.9-0.7,4.4
		c-0.2,2.8-0.1,5.7,0,8.4c0,0.3,0,0.6,0,0.9c0,1.6,0,4.1,0,7.5C480.8,673.8,480.8,732.3,480.8,753.8z"/>
</g>
</svg>
