<?xml version="1.0" encoding="utf-8"?>
<!-- Generator: Adobe Illustrator 17.1.0, SVG Export Plug-In . SVG Version: 6.00 Build 0)  -->
<!DOCTYPE svg PUBLIC "-//W3C//DTD SVG 1.1//EN" "http://www.w3.org/Graphics/SVG/1.1/DTD/svg11.dtd">
<svg version="1.1" id="Capa_1" xmlns="http://www.w3.org/2000/svg" xmlns:xlink="http://www.w3.org/1999/xlink" x="0px" y="0px"
	 width="1000px" height="1000px" viewBox="0 0 1000 1000" enable-background="new 0 0 1000 1000" xml:space="preserve">
<g>
	<path d="M64.648,942.149c-19.766,16.963-14.832,27.49,10.878,23.313c91.877-14.93,267.749-48.025,359.799-95.016
		c78.607-40.128,106.49,14.492,79.998,56.44c-9.811,15.536-3.263,24.321,14.454,19.449c101.45-27.892,316.05-110.89,374.076-323.176
		c2.648-9.687-1.834-22.586-9.852-28.634l-3.323-2.506c-6.67,7.952-13.693,15.65-21.099,23.056
		c-32.368,32.368-70.069,57.785-112.055,75.543c-43.484,18.392-89.658,27.718-137.24,27.718s-93.756-9.326-137.24-27.718
		c-41.986-17.758-79.686-43.175-112.055-75.543c-32.369-32.368-57.785-70.069-75.543-112.055
		c-18.392-43.484-27.718-89.658-27.718-137.24s9.326-93.756,27.718-137.24c9.037-21.367,20.069-41.617,32.98-60.626l-2.871-2.166
		c-8.851-6.676-22.778-6.019-30.967,1.454C247.905,209.807,110.912,363.85,78.593,726.988c-1.592,17.887,9.228,24.296,24.204,14.387
		c19.859-13.139,46.736-23.535,66.734-3.361C198.927,767.67,137.024,880.039,64.648,942.149z"/>
	<path d="M620.284,688.336c98.811,0,187.227-44.446,246.395-114.418c47.504-56.178,76.161-128.806,76.161-208.137
		c0-178.143-144.413-322.556-322.556-322.556c-111.59,0-209.939,56.67-267.853,142.797c-34.54,51.366-54.703,113.207-54.703,179.759
		C297.729,543.923,442.142,688.336,620.284,688.336z M911.026,394.217c0.135,0.124,0.278,0.236,0.42,0.35
		c-2.849,29.344-10.07,57.858-21.584,85.08c-3.732,8.824-7.877,17.419-12.416,25.774c-0.2,0.015-0.401,0.029-0.601,0.059
		l-84.267,12.543l-32.812,4.884l-53.993-70.36l-1.421-1.852l35.193-108.311l84.855-27.881L911.026,394.217z M635.284,155.72
		L737.78,98.321c0.173-0.097,0.336-0.205,0.5-0.314c33.177,14.633,63.064,35.096,88.872,60.904
		c3.741,3.741,7.358,7.576,10.874,11.486c-0.043,0.164-0.09,0.326-0.123,0.494l-22.607,115.024l-87.745,28.831l-92.268-67.036
		V155.72z M683.747,473.121l52.821,68.833l-45.616,107.279c-0.079,0.187-0.144,0.377-0.209,0.568
		c-22.886,5.662-46.45,8.535-70.46,8.535s-47.573-2.873-70.46-8.535c-0.064-0.191-0.129-0.381-0.208-0.568L504,541.954
		l52.821-68.833H683.747z M413.416,158.912c25.809-25.809,55.696-46.271,88.872-60.904c0.164,0.108,0.328,0.217,0.5,0.314
		l102.496,57.398v91.99l-87.138,63.309l-5.129,3.727l-87.744-28.831L414.9,233.141l-12.234-62.249
		c-0.033-0.167-0.08-0.33-0.123-0.494C406.058,166.488,409.675,162.653,413.416,158.912z M363.123,505.421
		c-4.54-8.355-8.684-16.95-12.416-25.774c-11.514-27.223-18.735-55.736-21.584-85.08c0.142-0.114,0.285-0.225,0.42-0.35
		l86.626-79.715l84.855,27.881l35.192,108.311l-55.414,72.212L363.724,505.48C363.523,505.45,363.323,505.435,363.123,505.421z"/>
</g>
</svg>
