<?xml version="1.0" encoding="utf-8"?>
<!-- Generator: Adobe Illustrator 17.1.0, SVG Export Plug-In . SVG Version: 6.00 Build 0)  -->
<!DOCTYPE svg PUBLIC "-//W3C//DTD SVG 1.1//EN" "http://www.w3.org/Graphics/SVG/1.1/DTD/svg11.dtd">
<svg version="1.1" id="Capa_1" xmlns="http://www.w3.org/2000/svg" xmlns:xlink="http://www.w3.org/1999/xlink" x="0px" y="0px"
	 width="1000px" height="1000px" viewBox="0 0 1000 1000" enable-background="new 0 0 1000 1000" xml:space="preserve">
<g>
	<path d="M871.3,538.8c5.5,0,10-4.5,10-10v-278c0-93.4-75.7-169.1-169.1-169.1h-61.8v-0.1h-11h-11v0.1v21.7v13.1
		c0,3.6-0.3,7.3-1,10.9c-0.9,5.1-2.5,10.1-4.7,15c-3.8,8.4-9.3,16.5-16.5,24c-5.6,5.8-12.2,11.3-19.6,16.2c-25.4,16.8-58,26-92,26
		c-34,0-66.6-9.3-92-26c-7.5-4.9-14-10.4-19.6-16.2c-7.2-7.5-12.7-15.6-16.5-24c-2.3-5.1-3.9-10.3-4.8-15.5
		c-0.6-3.4-0.9-6.9-0.9-10.3v-12.8v-22v-0.1h-11h-11v0.1h-60.6c-93.4,0-169.1,75.7-169.1,169.1v278c0,5.5,4.5,10,10,10l115.9,0.1
		V323.8c0-5.8,4.7-10.5,10.5-10.5S256,318,256,323.8l-0.1,631.8c0,7.7,4.2,10.2,9.9,10.2l459.8,0c5.5,0,10-4.5,10-10l0.1-47.3V323.8
		c0-5.9,4.8-10.8,10.8-10.8s10.8,4.8,10.8,10.8V539L871.3,538.8z M142.6,274.8c-6.6,0-12-5.4-12-12c0-87.9,71-159.4,158.3-159.4
		h49.9c0,0,0.3,20.4,0.7,24h-50.7c-74,0-134.3,60.8-134.3,135.4C154.6,269.4,149.3,274.8,142.6,274.8z M315.7,166.3
		c-35.7,0-65,8.8-84.5,25.5c-19.5,16.6-29.4,40.5-29.4,71c0,6.6-5.4,12-12,12s-12-5.4-12-12c0-37.3,13.1-68.2,37.8-89.3
		c24-20.4,58.6-31.2,100.1-31.2H343c2.7,8.3,6.7,16.3,11.8,24L315.7,166.3L315.7,166.3z M650.5,103.4h51.1
		c87.3,0,158.3,71.5,158.3,159.4c0,6.6-5.4,12-12,12s-12-5.4-12-12c0-74.7-60.2-135.4-134.3-135.4h-51.8
		C650.2,123.8,650.5,103.4,650.5,103.4z M685,358.2c0,43-35,80.6-74.9,80.6s-74.9-37.7-74.9-80.6v-41.6c0-9.6,7.9-17.5,17.5-17.5
		h114.7c9.6,0,17.5,7.9,17.5,17.5L685,358.2L685,358.2z M674.8,166.3h-40.3c5.2-7.7,9.1-15.7,11.8-24h28.4
		c41.5,0,76.1,10.8,100.1,31.2c24.8,21.1,37.8,51.9,37.8,89.3c0,6.6-5.4,12-12,12s-12-5.4-12-12c0-30.5-9.9-54.4-29.4-71
		C739.8,175.1,710.5,166.3,674.8,166.3z"/>
	<path d="M667.5,314.1H552.8c-1.4,0-2.5,1.1-2.5,2.5v41.6c0,16.3,6.5,32.9,17.8,45.5c11.6,13,26.5,20.1,42,20.1
		c15.5,0,30.4-7.1,42-20.1c11.3-12.7,17.8-29.3,17.8-45.5v-41.6C670,315.3,668.9,314.1,667.5,314.1z M657.8,360.3
		c0,26.3-21.3,51.3-47.6,51.3s-47.6-25-47.6-51.3v-36.5h95.3V360.3z"/>
	<path d="M416.8,81.6h-11h-11v0.1v34.8c0,26.9,43.6,58.1,99.8,58.1s99.8-31.2,99.8-58.1V81.7v-0.1h-11h-11v0.1v34.8
		c0,3.5-5,12.1-18.5,20.4c-16,9.9-37.6,15.6-59.4,15.6s-43.4-5.7-59.4-15.6c-13.4-8.4-18.5-17-18.5-20.4V81.6L416.8,81.6z"/>
</g>
</svg>
