<?xml version="1.0" encoding="utf-8"?>
<!-- Generator: Adobe Illustrator 17.1.0, SVG Export Plug-In . SVG Version: 6.00 Build 0)  -->
<!DOCTYPE svg PUBLIC "-//W3C//DTD SVG 1.1//EN" "http://www.w3.org/Graphics/SVG/1.1/DTD/svg11.dtd">
<svg version="1.1" id="Capa_1" xmlns="http://www.w3.org/2000/svg" xmlns:xlink="http://www.w3.org/1999/xlink" x="0px" y="0px"
	 width="1000px" height="1000px" viewBox="0 0 1000 1000" enable-background="new 0 0 1000 1000" xml:space="preserve">
<g>
	<path d="M127.193,619.193c0,50.322,9.859,99.147,29.303,145.118c18.778,44.396,45.656,84.264,79.89,118.497
		s74.101,61.112,118.496,79.889C400.854,982.141,449.678,992,500,992s99.146-9.859,145.118-29.303
		c44.396-18.777,84.263-45.656,118.496-79.889s61.111-74.101,79.89-118.497c19.443-45.971,29.303-94.796,29.303-145.118
		s-9.859-99.147-29.303-145.118c-18.778-44.396-45.656-84.264-79.89-118.497c-34.233-34.233-74.101-61.112-118.496-79.89
		c-26.879-11.369-54.735-19.455-83.294-24.216c39.271-21.814,65.909-63.722,65.909-111.74C627.733,69.301,570.433,12,500,12
		S372.267,69.301,372.267,139.733c0,35.32,14.096,68.186,39.689,92.543c7.954,7.569,16.738,13.997,26.13,19.212
		c-28.528,4.762-56.353,12.843-83.204,24.2c-29.166,12.336-56.362,28.191-81.306,47.308l-43.067-43.067
		c-6.48-6.481-16.988-6.481-23.468,0l-50.292,50.292c-6.48,6.481-6.48,16.988,0,23.468l43.615,43.615
		c-17.589,23.693-32.276,49.366-43.867,76.77C137.053,520.046,127.193,568.872,127.193,619.193z M432.638,210.545
		c-19.585-18.639-30.371-43.787-30.371-70.812C402.267,85.843,446.109,42,500,42s97.733,43.843,97.733,97.733
		c0,43.428-28.475,80.325-67.733,93.017v-46.883h22.156c13.808,0,25-11.193,25-25s-11.192-25-25-25H447.844
		c-13.808,0-25,11.193-25,25s11.192,25,25,25H470v46.885C456.173,228.303,443.411,220.797,432.638,210.545z M221.824,418.766
		c10.696-14.779,22.624-28.823,35.775-41.974c11.78-11.78,24.275-22.584,37.372-32.399c50.97-38.195,111.187-61.195,175.029-66.695
		c9.921-0.855,19.925-1.312,30-1.312s20.079,0.457,30,1.312c80.248,6.913,154.777,41.471,212.401,99.094
		c64.747,64.748,100.405,150.834,100.405,242.401s-35.658,177.653-100.405,242.401C677.653,926.342,591.567,962,500,962
		s-177.653-35.658-242.401-100.406c-64.747-64.748-100.405-150.834-100.405-242.401C157.193,546.225,179.86,476.749,221.824,418.766
		z"/>
	<path d="M296.742,634.193H195.731c7.58,156.309,132.96,281.689,289.269,289.269v-101.01c0-8.284,6.716-15,15-15s15,6.716,15,15
		v101.01c156.309-7.58,281.688-132.96,289.269-289.269H703.258c-8.284,0-15-6.716-15-15s6.716-15,15-15h101.011
		C796.688,447.885,671.309,322.504,515,314.925v101.01c0,8.284-6.716,15-15,15s-15-6.716-15-15v-101.01
		c-60.558,2.937-116.466,23.56-162.689,56.809c-28.412,20.437-53.152,45.647-73.065,74.454
		c-31.311,45.296-50.676,99.477-53.514,158.006h101.011c8.284,0,15,6.716,15,15S305.026,634.193,296.742,634.193z M480.973,606.517
		c0.836-1.042,1.842-2.069,2.812-2.922l177.697-154.263c1.275-1.107,3.047,0.597,1.99,1.914L516.215,634.792
		c-7.808,9.732-22.026,11.292-31.758,3.484C474.726,630.468,473.166,616.249,480.973,606.517z"/>
</g>
</svg>
