<?xml version="1.0" encoding="utf-8"?>
<!-- Generator: Adobe Illustrator 17.1.0, SVG Export Plug-In . SVG Version: 6.00 Build 0)  -->
<!DOCTYPE svg PUBLIC "-//W3C//DTD SVG 1.1//EN" "http://www.w3.org/Graphics/SVG/1.1/DTD/svg11.dtd">
<svg version="1.1" id="Capa_1" xmlns="http://www.w3.org/2000/svg" xmlns:xlink="http://www.w3.org/1999/xlink" x="0px" y="0px"
	 width="1000px" height="1000px" viewBox="0 0 1000 1000" enable-background="new 0 0 1000 1000" xml:space="preserve">
<path d="M585.882,8.487H414.118c-16.568,0-30,13.432-30,30s13.432,30,30,30H465v60.846c11.589-0.918,23.259-1.386,35-1.386
	s23.411,0.468,35,1.386V68.487h50.882c16.568,0,30-13.432,30-30S602.45,8.487,585.882,8.487z"/>
<path d="M123.053,345.858c18.986-32.975,42.239-63.302,69.499-90.562c27.763-27.763,58.71-51.367,92.394-70.542
	c-44.609-44.465-116.817-44.422-161.371,0.132C79.152,229.309,78.983,301.219,123.053,345.858z"/>
<path d="M365.751,270.848c-34.094,15.703-65.498,37.481-92.833,64.816c-26.857,26.857-48.358,57.638-63.996,91.043
	c-19.679,42.04-30.063,88.239-30.063,136.038c0,85.78,33.404,166.426,94.06,227.081S414.22,883.886,500,883.886
	s166.426-33.404,227.081-94.06s94.06-141.301,94.06-227.081s-33.404-166.426-94.06-227.081S585.78,241.604,500,241.604
	C452.877,241.604,407.313,251.707,365.751,270.848z M510,562.745h255.012c0,146.362-118.65,265.012-265.012,265.012
	S234.988,709.107,234.988,562.745c0-43.275,10.377-84.124,28.772-120.203c25.669-50.349,66.966-91.391,117.492-116.761
	c35.723-17.937,76.052-28.048,118.748-28.048v255.012C500,558.268,504.477,562.745,510,562.745z"/>
<path d="M500,160.059c-11.748,0-23.419,0.5-35,1.49c-42.014,3.596-82.829,13.69-121.738,30.148
	c-11.874,5.022-23.445,10.585-34.702,16.668c-34.202,18.484-65.474,41.809-93.302,69.637
	c-27.325,27.325-50.296,57.977-68.618,91.455c-6.479,11.839-12.389,24.022-17.688,36.549
	c-20.994,49.635-31.639,102.369-31.639,156.738s10.645,107.104,31.639,156.738c20.281,47.95,49.318,91.017,86.306,128.004
	s80.054,66.024,128.004,86.306c49.635,20.994,102.369,31.639,156.738,31.639s107.104-10.645,156.738-31.639
	c47.95-20.281,91.017-49.318,128.004-86.306s66.024-80.054,86.306-128.004c20.994-49.635,31.639-102.369,31.639-156.738
	s-10.645-107.104-31.639-156.738c-20.281-47.95-49.318-91.017-86.306-128.004s-80.054-66.024-128.004-86.306
	c-38.91-16.458-79.725-26.553-121.738-30.148C523.419,160.558,511.748,160.059,500,160.059z M636.685,239.205
	c41.815,17.687,79.366,43.003,111.609,75.246s57.56,69.794,75.246,111.609c18.314,43.3,27.601,89.287,27.601,136.685
	s-9.286,93.385-27.601,136.685c-17.687,41.815-43.003,79.366-75.246,111.609s-69.794,57.56-111.609,75.246
	c-43.3,18.314-89.287,27.601-136.685,27.601s-93.385-9.286-136.685-27.601c-41.815-17.687-79.366-43.003-111.609-75.246
	s-57.56-69.794-75.246-111.609c-18.314-43.3-27.601-89.287-27.601-136.685s9.286-93.385,27.601-136.685
	c2.631-6.221,5.452-12.335,8.418-18.363c16.975-34.495,39.381-65.8,66.828-93.246c27.956-27.956,59.907-50.694,95.162-67.777
	c5.407-2.62,10.887-5.117,16.447-7.469c43.3-18.314,89.287-27.601,136.685-27.601S593.385,220.891,636.685,239.205z"/>
</svg>
