<?xml version="1.0" encoding="utf-8"?>
<!-- Generator: Adobe Illustrator 17.1.0, SVG Export Plug-In . SVG Version: 6.00 Build 0)  -->
<!DOCTYPE svg PUBLIC "-//W3C//DTD SVG 1.1//EN" "http://www.w3.org/Graphics/SVG/1.1/DTD/svg11.dtd">
<svg version="1.1" id="Capa_1" xmlns="http://www.w3.org/2000/svg" xmlns:xlink="http://www.w3.org/1999/xlink" x="0px" y="0px"
	 width="1000px" height="1000px" viewBox="0 0 1000 1000" enable-background="new 0 0 1000 1000" xml:space="preserve">
<g>
	<path d="M127.193,616.731c0,50.322,9.859,99.147,29.303,145.118c18.777,44.396,45.656,84.264,79.889,118.497
		c34.233,34.233,74.101,61.112,118.497,79.89c45.971,19.444,94.796,29.303,145.118,29.303s99.147-9.859,145.118-29.303
		c44.396-18.778,84.264-45.656,118.497-79.89c34.233-34.233,61.112-74.101,79.889-118.497
		c19.444-45.971,29.303-94.796,29.303-145.118s-9.859-99.146-29.303-145.118c-18.777-44.396-45.656-84.263-79.889-118.496
		c-34.233-34.233-74.101-61.112-118.497-79.89c-26.879-11.369-54.734-19.455-83.293-24.216
		c39.271-21.814,65.909-63.722,65.909-111.741C627.733,66.839,570.433,9.538,500,9.538S372.267,66.839,372.267,137.271
		c0,35.321,14.095,68.187,39.69,92.543c7.954,7.569,16.738,13.997,26.129,19.212c-28.528,4.762-56.353,12.843-83.204,24.2
		c-29.166,12.336-56.363,28.191-81.307,47.308l-43.067-43.067c-6.481-6.481-16.988-6.481-23.468,0l-50.292,50.292
		c-6.48,6.481-6.48,16.988,0,23.468l43.615,43.615c-17.589,23.693-32.276,49.366-43.867,76.77
		C137.052,517.584,127.193,566.409,127.193,616.731z M432.638,208.083c-19.585-18.638-30.371-43.786-30.371-70.811
		c0-53.891,43.843-97.733,97.733-97.733s97.733,43.843,97.733,97.733c0,43.429-28.475,80.325-67.733,93.017v-42.666h22.156
		c13.807,0,25-11.193,25-25s-11.193-25-25-25H447.844c-13.807,0-25,11.193-25,25s11.193,25,25,25H470v42.669
		C456.173,225.841,443.411,218.335,432.638,208.083z M221.824,416.304c10.696-14.779,22.624-28.823,35.775-41.974
		c11.78-11.78,24.274-22.584,37.372-32.399C345.94,303.736,406.158,280.736,470,275.236c9.921-0.855,19.925-1.312,30-1.312
		s20.079,0.457,30,1.312c80.248,6.913,154.778,41.471,212.401,99.094c64.748,64.748,100.406,150.834,100.406,242.401
		s-35.658,177.653-100.406,242.401C677.653,923.88,591.567,959.538,500,959.538S322.347,923.88,257.599,859.132
		c-64.748-64.748-100.406-150.834-100.406-242.401C157.193,543.762,179.86,474.287,221.824,416.304z"/>
	<path d="M510.598,921.19c157.43-5.382,284.541-130.217,293.533-286.706c0.555-9.653-7.21-17.753-16.879-17.753H516.9
		c-9.333,0-16.9-7.566-16.9-16.9V329.479c0-9.669-8.1-17.434-17.753-16.879c-59.5,3.419-114.413,23.927-159.935,56.672
		c-28.412,20.437-53.156,45.644-73.069,74.451c-32.095,46.43-51.644,102.196-53.702,162.409
		C189.528,782.023,334.708,927.203,510.598,921.19z"/>
</g>
</svg>
