<?xml version="1.0" encoding="utf-8"?>
<!-- Generator: Adobe Illustrator 17.1.0, SVG Export Plug-In . SVG Version: 6.00 Build 0)  -->
<!DOCTYPE svg PUBLIC "-//W3C//DTD SVG 1.1//EN" "http://www.w3.org/Graphics/SVG/1.1/DTD/svg11.dtd">
<svg version="1.1" id="Capa_1" xmlns="http://www.w3.org/2000/svg" xmlns:xlink="http://www.w3.org/1999/xlink" x="0px" y="0px"
	 width="1000px" height="1000px" viewBox="0 0 1000 1000" enable-background="new 0 0 1000 1000" xml:space="preserve">
<g>
	<path d="M141.971,783.295H485V613.441c-56.767-7.378-100.755-56.039-100.755-114.784c0-58.745,43.988-107.406,100.755-114.784
		V214.019H141.971c-60.251,0-109.095,48.843-109.095,109.095v32.865h127.678c8.284,0,15,6.716,15,15v28.238
		c34.855,20.894,56.368,58.675,56.368,99.44c0,41.176-21.398,78.569-56.368,99.455v28.223c0,8.284-6.716,15-15,15H32.876V674.2
		C32.876,734.451,81.72,783.295,141.971,783.295z"/>
	<path d="M586.001,498.657c0-42.303-30.71-77.544-71.001-84.665v169.33C555.291,576.202,586.001,540.96,586.001,498.657z"/>
	<rect x="854.445" y="385.979" width="112.555" height="225.356"/>
	<path d="M413.999,498.657c0,42.303,30.71,77.545,71.001,84.665v-169.33C444.709,421.112,413.999,456.354,413.999,498.657z"/>
	<path d="M824.445,559.68V437.723c-16.008,15.923-25.378,37.779-25.378,60.934C799.067,522.064,808.399,543.824,824.445,559.68z"/>
	<polygon points="33,385.979 33,415.088 33,582.226 33,611.335 145.555,611.335 145.555,385.979 	"/>
	<path d="M175.555,436.76v123.866c16.646-15.931,26.368-38.088,26.368-61.969C201.923,475.03,192.164,452.758,175.555,436.76z"/>
	<path d="M515,214.019v169.854c56.767,7.378,100.755,56.039,100.755,114.784c0,58.745-43.988,107.406-100.755,114.784v169.854
		h343.029c60.251,0,109.094-48.843,109.094-109.094v-32.865H839.445c-8.284,0-15-6.716-15-15v-28.837
		c-34.378-20.998-55.378-58.059-55.378-98.841c0-40.376,21.107-77.823,55.378-98.836v-28.842c0-8.284,6.716-15,15-15h127.678
		v-32.865c0-60.251-48.843-109.095-109.094-109.095H515z"/>
</g>
</svg>
