<?xml version="1.0" encoding="utf-8"?>
<!-- Generator: Adobe Illustrator 17.1.0, SVG Export Plug-In . SVG Version: 6.00 Build 0)  -->
<!DOCTYPE svg PUBLIC "-//W3C//DTD SVG 1.1//EN" "http://www.w3.org/Graphics/SVG/1.1/DTD/svg11.dtd">
<svg version="1.1" id="Capa_1" xmlns="http://www.w3.org/2000/svg" xmlns:xlink="http://www.w3.org/1999/xlink" x="0px" y="0px"
	 width="1000px" height="1000px" viewBox="0 0 1000 1000" enable-background="new 0 0 1000 1000" xml:space="preserve">
<path d="M35,804.4h930c13.8,0,25-11.2,25-25V619.8V380.2V220.6c0-13.8-11.2-25-25-25H35c-13.8,0-25,11.2-25,25v159.6v239.7v159.6
	C10,793.2,21.2,804.4,35,804.4z M40,385.2h99.8v229.7H40V597h82V403H40V385.2z M515,570.7c32.7-6.9,57.3-35.9,57.3-70.7
	s-24.6-63.8-57.3-70.7v-15.6c41.2,7.1,72.6,43.1,72.6,86.3s-31.4,79.2-72.6,86.3V570.7z M485,429.3c-32.7,6.9-57.3,35.9-57.3,70.7
	s24.6,63.8,57.3,70.7v15.6c-41.2-7.1-72.6-43.1-72.6-86.3s31.4-79.2,72.6-86.3V429.3z M960,403h-82v194h82v17.8h-99.8V385.2H960V403
	z M960,355.2H855.2c-13.8,0-25,11.2-25,25v47.6h-11.3c-5.5,0-10,4.5-10,10v124.5c0,5.5,4.5,10,10,10h11.3v47.6c0,13.8,11.2,25,25,25
	H960v129.6H515V616.6c57.8-7.4,102.6-56.9,102.6-116.6S572.8,390.8,515,383.4V225.6h445V355.2z M40,225.6h445v157.8
	c-57.8,7.4-102.6,56.9-102.6,116.6S427.2,609.2,485,616.6v157.8H40V644.8h104.8c13.8,0,25-11.2,25-25v-47.6h11.3c5.5,0,10-4.5,10-10
	V437.7c0-5.5-4.5-10-10-10h-11.3v-47.6c0-13.8-11.2-25-25-25H40V225.6z"/>
</svg>
