<?xml version="1.0" encoding="utf-8"?>
<!-- Generator: Adobe Illustrator 17.1.0, SVG Export Plug-In . SVG Version: 6.00 Build 0)  -->
<!DOCTYPE svg PUBLIC "-//W3C//DTD SVG 1.1//EN" "http://www.w3.org/Graphics/SVG/1.1/DTD/svg11.dtd">
<svg version="1.1" id="Capa_1" xmlns="http://www.w3.org/2000/svg" xmlns:xlink="http://www.w3.org/1999/xlink" x="0px" y="0px"
	 width="1000px" height="1000px" viewBox="0 0 1000 1000" enable-background="new 0 0 1000 1000" xml:space="preserve">
<g>
	<path d="M29.3,783.2c0,6.6,5.3,11.9,11.9,11.9h916.3c6.6,0,11.9-5.3,11.9-11.9V514.7H679.7v23.1c0,9.6-7.8,17.4-17.4,17.4H556.2
		v106.1c0,9.6-7.8,17.4-17.4,17.4l-79,0c-9.6,0-17.4-7.8-17.4-17.4V555.3H336.2c-9.6,0-17.4-7.8-17.4-17.4v-23.1H29.3V783.2z"/>
	<path d="M802.2,107c-2.3-1.1-4.7-1.7-7.2-1.7H196.3c-2.5,0-5,0.6-7.2,1.7c-13.4,6.6-22,20.6-22,35.7v59h-126
		c-6.6,0-11.9,5.3-11.9,11.9V482h289.5v-23.1c0-9.6,7.8-17.4,17.4-17.4h106.1V335.3c0-9.6,7.8-17.4,17.4-17.4h79
		c9.6,0,17.4,7.8,17.4,17.4v106.1h106.1c9.6,0,17.4,7.8,17.4,17.4V482h289.5V213.5c0-6.6-5.3-11.9-11.9-11.9H824.2v-59
		C824.2,127.6,815.6,113.6,802.2,107z M199.9,201.6v-59c0-2,0.7-3.5,1.6-4.6h588.3c0.9,1.1,1.6,2.6,1.6,4.6v59H199.9z"/>
</g>
</svg>
