<?xml version="1.0" encoding="utf-8"?>
<!-- Generator: Adobe Illustrator 17.1.0, SVG Export Plug-In . SVG Version: 6.00 Build 0)  -->
<!DOCTYPE svg PUBLIC "-//W3C//DTD SVG 1.1//EN" "http://www.w3.org/Graphics/SVG/1.1/DTD/svg11.dtd">
<svg version="1.1" id="Capa_1" xmlns="http://www.w3.org/2000/svg" xmlns:xlink="http://www.w3.org/1999/xlink" x="0px" y="0px"
	 width="1000px" height="1000px" viewBox="0 0 1000 1000" enable-background="new 0 0 1000 1000" xml:space="preserve">
<g>
	<path d="M500.5,142.3c-139.7,0-252.9,113.2-252.9,252.9S360.9,648,500.5,648s252.9-113.2,252.9-252.9S640.2,142.3,500.5,142.3z
		 M723.4,395.2c0,30.1-5.9,59.3-17.5,86.7c-11.2,26.5-27.3,50.4-47.8,70.9s-44.3,36.6-70.9,47.8c-27.5,11.6-56.6,17.5-86.7,17.5
		s-59.3-5.9-86.7-17.5c-26.5-11.2-50.4-27.3-70.9-47.8s-36.6-44.3-47.8-70.9c-11.6-27.5-17.5-56.6-17.5-86.7s5.9-59.3,17.5-86.7
		c11.2-26.5,27.3-50.4,47.8-70.9s44.3-36.6,70.9-47.8c27.5-11.6,56.6-17.5,86.7-17.5s59.3,5.9,86.7,17.5
		c26.5,11.2,50.4,27.3,70.9,47.8s36.6,44.3,47.8,70.9C717.5,335.9,723.4,365.1,723.4,395.2z"/>
	<path d="M500.5,205.4c-104.8,0-189.7,85-189.7,189.7s85,189.7,189.7,189.7s189.7-85,189.7-189.7S605.3,205.4,500.5,205.4z
		 M616.6,361.3l43.5,40.1c-1.1,28.1-9.3,54.9-24,78.2l-58.6,8.7c-2.5,0.4-5.3,2.5-6.3,4.9l-23.2,54.5c-15.2,4.7-31.2,7.2-47.6,7.2
		s-32.4-2.5-47.6-7.2l-23.2-54.5c-1-2.3-3.8-4.5-6.3-4.9l-58.6-8.7c-14.6-23.4-22.9-50.2-24-78.2l43.5-40.1c1.8-1.7,3-5.1,2.5-7.5
		l-11.4-58.1c3.7-4.7,7.8-9.2,12.1-13.5c16.5-16.5,36-29,57.3-36.9l51.7,29c2.2,1.2,5.7,1.2,7.9,0l51.7-29
		c21.3,7.9,40.8,20.3,57.3,36.8c4.3,4.3,8.3,8.8,12.1,13.5l-11.4,58.1C613.6,356.3,614.7,359.6,616.6,361.3z"/>
	<path d="M569.9,374.7L504.2,327c-2-1.5-5.3-1.5-7.4,0l-65.7,47.8c-2,1.5-3,4.6-2.3,7l25.1,77.3c0.8,2.4,3.4,4.3,5.9,4.3h81.2
		c2.5,0,5.2-1.9,5.9-4.3l25.1-77.3C573,379.3,571.9,376.2,569.9,374.7z"/>
	<path d="M900.2,529.4c60.7-14.4,72.9-57.8,75.3-77.6c0.7-5.5-3.9-10.7-9.4-10.8c-25.4-0.7-43.5,11.1-56.2,26.4
		c0.8-10.8,1.3-21.6,1.3-32.6c0-27.1-2.7-54-7.9-80.4c44.1-37.2,36.8-78.1,30.5-95.9c-1.8-5.2-8.3-7.8-13.2-5.4
		c-19.4,9.4-29.4,24.8-34.1,41.2c-6.8-18.7-15-37-24.6-54.6c19.5-41.5,2.3-70.7-8.5-83.4c-3.6-4.2-10.5-4.3-14.2-0.2
		c-23.5,26.3-13.9,58.8-2.9,80.1c-16.6-11-33.7-12.2-44.1-11.6c-5.5,0.3-9.7,5.8-8.7,11.2c7.2,35.7,41,47.2,64.8,50.8
		c12,27.4,20.6,56,25.7,85.6c-13.2-15.2-29.4-21.8-39.5-24.7c-5.3-1.5-11.1,2.3-12,7.7c-7.5,45.8,32.8,71.8,56.8,83
		c-0.3,31.7-4.4,62.8-12.3,92.7c-5.9-29.6-25-46.6-36.3-54.3c-4.6-3.1-11.3-1.5-14,3.4c-25.5,45.9,10.6,88.5,30.6,107.2
		c-12.3,27.9-28.1,54.4-47.1,78.8c8.2-47-16.6-76-29.9-87.8c-4.1-3.7-11-2.9-14.4,1.5c-34.2,45-2.6,95.3,16.2,118.5
		c-1.2,1.2-2.4,2.4-3.6,3.7c-24.4,24.4-51.7,45.1-80.9,61.7c29-53.5,7.1-95.1-4.7-111.6c-3.2-4.5-10.1-5.4-14.4-1.9
		c-48.2,39-26.9,100.6-12.8,129.7c-34.5,15.4-71.3,25.6-109.4,30.1c51.7-49.7,38.6-101.9,30.3-122.4c-2.1-5.1-8.5-7.6-13.5-5.3
		c-59.9,27.7-52.9,97.3-45.8,130c-5.2,0.2-10.5,0.3-15.8,0.3c-0.2,0-0.3,0-0.5,0c-0.2,0-0.3,0-0.5,0c-5.3,0-10.5-0.1-15.8-0.3
		c7.1-32.6,14.2-102.2-45.8-130c-5-2.3-11.5,0.2-13.5,5.3c-8.3,20.5-21.4,72.7,30.3,122.4c-38.1-4.5-74.9-14.6-109.4-30.1
		c14.1-29.1,35.3-90.7-12.8-129.7c-4.3-3.5-11.2-2.6-14.4,1.9c-11.8,16.5-33.7,58.1-4.7,111.6c-29.3-16.6-56.5-37.3-80.9-61.7
		c-1.2-1.2-2.4-2.4-3.6-3.7c18.8-23.2,50.4-73.5,16.2-118.5c-3.3-4.4-10.2-5.1-14.4-1.5c-13.3,11.8-38.1,40.8-29.9,87.8
		c-19-24.4-34.8-50.9-47.1-78.8c20-18.7,56.1-61.3,30.6-107.2c-2.7-4.8-9.4-6.5-14-3.4c-11.3,7.7-30.4,24.8-36.3,54.3
		c-7.8-29.9-12-61-12.3-92.7c24-11.2,64.3-37.3,56.8-83c-0.9-5.5-6.7-9.2-12-7.7c-10.1,2.8-26.3,9.5-39.5,24.7
		c5-29.5,13.7-58.1,25.7-85.6c23.8-3.6,57.6-15.1,64.8-50.8c1.1-5.4-3.1-10.9-8.7-11.2c-10.4-0.6-27.5,0.6-44.1,11.6
		c11-21.3,20.5-53.8-2.9-80.1c-3.7-4.1-10.6-4.1-14.2,0.2c-10.7,12.7-28,41.9-8.5,83.4c-9.6,17.6-17.8,35.9-24.6,54.6
		c-4.7-16.4-14.7-31.8-34.1-41.2c-5-2.4-11.4,0.2-13.2,5.4c-6.3,17.8-13.7,58.8,30.5,95.9c-5.2,26.3-7.9,53.2-7.9,80.4
		c0,10.9,0.4,21.8,1.3,32.6c-12.7-15.3-30.8-27-56.2-26.4c-5.5,0.1-10.1,5.4-9.4,10.8c2.4,19.8,14.6,63.2,75.3,77.6
		c5.2,22.1,12.3,43.7,21.2,64.8c5.2,12.4,11,24.4,17.4,36.1c-23.8-15.6-55.9-26.4-88.9-6.6c-4.7,2.8-6.2,9.6-3,14.1
		c12.5,17.6,48.1,54.6,117,32.8c13.5,19.1,28.6,37,45.3,53.7c7.5,7.5,15.2,14.7,23.2,21.5c-36.5-4-62.7,13-74.6,23
		c-4.2,3.5-4.6,10.5-0.8,14.5c42.8,45.2,103.1,18.3,130.3,2.2c16.6,10,34,18.9,52.1,26.6c12.2,5.2,24.7,9.7,37.2,13.7
		c-43.8,11.4-63.1,43.8-70.2,60c-2.2,5.1,0.5,11.4,5.7,13.4c62.6,23.8,107.8-31.8,125.6-59.3c12.3,1.8,24.8,3.1,37.4,3.8
		c-22.6,41.5,6.2,82.7,20.2,99c3.6,4.2,9.5,3.7,12.5-0.9c30.8-46.3,28.4-78.2,18.5-98.3c11.6-0.7,23.2-2,34.6-3.7
		c17.9,27.6,63,83.1,125.6,59.3c5.2-2,7.9-8.3,5.7-13.4c-7.1-16.2-26.4-48.6-70.2-60c12.6-3.9,25-8.5,37.2-13.7
		c18.1-7.6,35.4-16.5,52.1-26.6c27.2,16.1,87.5,43,130.3-2.2c3.8-4,3.5-10.9-0.8-14.5c-11.9-10-38.1-27-74.6-23
		c8-6.8,15.7-14,23.2-21.5c16.7-16.7,31.8-34.7,45.3-53.7c68.9,21.7,104.5-15.2,117-32.8c3.2-4.5,1.7-11.3-3-14.1
		c-33-19.8-65.1-9-88.9,6.6c6.4-11.7,12.2-23.8,17.4-36.1C887.9,573.1,894.9,551.4,900.2,529.4z"/>
</g>
</svg>
