<?xml version="1.0" encoding="utf-8"?>
<!-- Generator: Adobe Illustrator 17.1.0, SVG Export Plug-In . SVG Version: 6.00 Build 0)  -->
<!DOCTYPE svg PUBLIC "-//W3C//DTD SVG 1.1//EN" "http://www.w3.org/Graphics/SVG/1.1/DTD/svg11.dtd">
<svg version="1.1" id="Capa_1" xmlns="http://www.w3.org/2000/svg" xmlns:xlink="http://www.w3.org/1999/xlink" x="0px" y="0px"
	 width="1000px" height="1000px" viewBox="0 0 1000 1000" enable-background="new 0 0 1000 1000" xml:space="preserve">
<g>
	<path d="M891.401,543.472c5.931-0.013,10.74-4.831,10.74-10.762V252.38c0-94.35-76.486-170.836-170.836-170.836h-62.076v-0.082h-11
		h-11v0.082v35.159c0,24.628-15.41,48.955-42.279,66.743c-25.637,16.973-58.655,26.32-92.97,26.32
		c-34.316,0-67.334-9.348-92.971-26.32c-26.869-17.788-42.279-42.114-42.279-66.743V81.544v-0.082h-11h-11v0.082h-62.076
		c-94.35,0-170.836,76.486-170.836,170.836v280.329c0,5.932,4.808,10.744,10.74,10.748l114.779,0.088V326.221
		c0-6.213,5.037-11.25,11.25-11.25s11.25,5.037,11.25,11.25v300.422c0,0.669-0.069,1.32-0.181,1.957l-0.591,335.661
		c-0.01,5.932,4.79,10.74,10.721,10.74h464.388c5.931,0,10.748-4.808,10.759-10.74l0.718-405.287V326.221
		c0-6.213,5.037-11.25,11.25-11.25s11.25,5.037,11.25,11.25v217.487L891.401,543.472z M600.058,601.179
		c-21.575,21.157-50.267,31.734-86.081,31.734c-33.319,0-61.055-8.746-83.208-26.237c-26.155-20.653-39.23-48.975-39.23-84.956
		c0-19.822,4.912-38.02,14.743-54.597c9.827-16.574,25.319-29.36,46.476-38.355c-18.159-7.66-31.359-18.198-39.604-31.609
		c-8.246-13.407-12.369-28.11-12.369-44.102c0-27.318,9.534-49.889,28.61-67.716c19.072-17.823,46.184-26.736,81.333-26.736
		c34.814,0,61.843,8.913,81.083,26.736c19.24,17.827,28.86,40.397,28.86,67.716c0,16.991-4.416,32.108-13.243,45.352
		c-8.832,13.243-21.239,23.362-37.231,30.359c20.321,8.163,35.771,20.075,46.351,35.731c10.577,15.66,15.867,33.732,15.867,54.223
		C632.417,552.54,621.629,580.025,600.058,601.179z"/>
	<path d="M511.729,458.752c-17.159,0-29.946,5.915-38.355,17.741c-8.414,11.829-12.618,24.655-12.618,38.48
		c0,19.325,4.954,34.399,14.867,45.227c9.909,10.83,22.278,16.241,37.106,16.241c14.493,0,26.486-5.204,35.981-15.617
		c9.495-10.408,14.243-25.443,14.243-45.102c0-17.155-4.833-30.941-14.493-41.354C538.797,463.96,526.553,458.752,511.729,458.752z"
		/>
	<path d="M510.729,402.531c13.325,0,23.988-3.955,31.984-11.869c7.996-7.91,11.994-18.865,11.994-32.858
		c0-13.157-3.959-23.695-11.869-31.608c-7.914-7.91-18.365-11.869-31.359-11.869c-13.493,0-24.237,3.998-32.233,11.994
		c-7.996,7.995-11.994,18.576-11.994,31.733c0,13.993,3.955,24.905,11.869,32.733C487.03,398.619,497.568,402.531,510.729,402.531z"
		/>
	<path d="M433.106,81.463h-11h-11v0.082v35.159c0,27.139,44.064,58.686,100.873,58.686c56.809,0,100.872-31.547,100.872-58.686
		V81.544v-0.082h-11h-11v0.082v35.159c0,3.543-5.093,12.335-18.76,20.843c-16.171,10.068-38.081,15.842-60.112,15.842
		c-22.031,0-43.941-5.774-60.113-15.842c-13.667-8.508-18.76-17.3-18.76-20.843V81.544V81.463z"/>
</g>
</svg>
