<?xml version="1.0" encoding="utf-8"?>
<!-- Generator: Adobe Illustrator 17.1.0, SVG Export Plug-In . SVG Version: 6.00 Build 0)  -->
<!DOCTYPE svg PUBLIC "-//W3C//DTD SVG 1.1//EN" "http://www.w3.org/Graphics/SVG/1.1/DTD/svg11.dtd">
<svg version="1.1" id="Capa_1" xmlns="http://www.w3.org/2000/svg" xmlns:xlink="http://www.w3.org/1999/xlink" x="0px" y="0px"
	 width="1000px" height="1000px" viewBox="0 0 1000 1000" enable-background="new 0 0 1000 1000" xml:space="preserve">
<g>
	<path d="M163.9,968.6c0,5.5,4.2,8.3,9.3,6.3L497.4,845c5.1-2.1,13.4-2.1,18.6,0l322.9,130c5.1,2,9.3-0.8,9.3-6.3V311.4H163.9V968.6
		z M541,415.3c28.2-30.2,65.3-45.3,111.3-45.3c40.1,0,72.8,11.9,97.8,35.6c14.9,14,26.1,34.2,33.6,60.4l-65.6,15.7
		c-3.9-17-12-30.4-24.3-40.3s-27.3-14.8-44.9-14.8c-24.3,0-44.1,8.7-59.2,26.2c-15.1,17.5-22.7,45.7-22.7,84.8
		c0,41.5,7.5,71,22.4,88.6c14.9,17.6,34.3,26.4,58.2,26.4c17.6,0,32.8-5.6,45.4-16.8c12.7-11.2,21.8-28.8,27.3-52.8l64.2,20.4
		c-9.8,35.8-26.2,62.4-49.1,79.8c-22.9,17.4-52,26.1-87.2,26.1c-43.6,0-79.4-14.9-107.5-44.7c-28.1-29.8-42.1-70.5-42.1-122.1
		C498.7,487.9,512.8,445.5,541,415.3z M230.7,375.6h225v55.5H297v77.7h137v55.5H297v139.5h-66.3V375.6z"/>
	<path d="M874.2,226.9h-48.7l-256-133.2c1.2-4.9,1.9-10.1,1.9-15.4c0-35.6-29-64.6-64.6-64.6s-64.6,29-64.6,64.6
		c0,5.4,0.7,10.7,2,15.8L186.2,226.9h-48.3c-15.8,0-28.5,12.8-28.5,28.5s12.8,28.5,28.5,28.5h736.3c15.8,0,28.5-12.8,28.5-28.5
		S890,226.9,874.2,226.9z M506.7,43.6c19.1,0,34.6,15.5,34.6,34.6c0,0.3,0,0.6,0,0.9c-0.3,10.9-5.6,20.5-13.7,26.7
		c-5.8,4.4-13,7-20.9,7c-7.8,0-14.9-2.6-20.7-6.9c-8.2-6.1-13.5-15.7-13.9-26.6c0-0.4,0-0.7,0-1.1C472.1,59.2,487.6,43.6,506.7,43.6
		z M251.1,226.9l206.9-106.3c11.9,13.6,29.3,22.3,48.8,22.3c19.6,0,37.1-8.8,49-22.6l204.2,106.6H251.1z"/>
</g>
</svg>
