<?xml version="1.0" encoding="utf-8"?>
<!-- Generator: Adobe Illustrator 17.1.0, SVG Export Plug-In . SVG Version: 6.00 Build 0)  -->
<!DOCTYPE svg PUBLIC "-//W3C//DTD SVG 1.1//EN" "http://www.w3.org/Graphics/SVG/1.1/DTD/svg11.dtd">
<svg version="1.1" id="Capa_1" xmlns="http://www.w3.org/2000/svg" xmlns:xlink="http://www.w3.org/1999/xlink" x="0px" y="0px"
	 width="1000px" height="1000px" viewBox="0 0 1000 1000" enable-background="new 0 0 1000 1000" xml:space="preserve">
<g>
	<path d="M128.281,373.183h741.205l34.937-100.805c1.809-5.218-1.139-10.2-6.583-11.126l-125.998-21.44
		c-5.444-0.926-10.712-6.072-11.767-11.494l-24.386-125.441c-1.054-5.421-6.112-8.276-11.298-6.377l-120.005,43.955
		c-5.186,1.899-12.302,0.039-15.894-4.157l-83.103-97.055c-3.592-4.195-9.416-4.195-13.008,0l-83.103,97.055
		c-3.592,4.195-10.708,6.056-15.894,4.157L273.378,96.5c-5.186-1.899-10.245,0.956-11.298,6.377l-24.387,125.441
		c-1.054,5.421-6.322,10.567-11.767,11.494l-125.998,21.44c-5.445,0.926-8.393,5.908-6.584,11.126L128.281,373.183z"/>
	<path d="M99.928,734.52l125.998,21.44c5.444,0.926,10.712,6.072,11.767,11.494l24.386,125.441
		c1.054,5.421,6.112,8.276,11.298,6.377l120.005-43.955c5.186-1.899,12.302-0.038,15.894,4.157l83.103,97.055
		c3.592,4.195,9.416,4.195,13.008,0l83.103-97.055c3.592-4.195,10.708-6.056,15.894-4.157l120.005,43.955
		c5.186,1.899,10.245-0.956,11.298-6.377l24.387-125.441c1.054-5.421,6.322-10.567,11.767-11.494l125.998-21.44
		c5.445-0.926,8.392-5.908,6.584-11.126L869.485,622.59H128.281L93.345,723.394C91.536,728.613,94.483,733.594,99.928,734.52z"/>
	<path d="M244.181,444.845c8.962,0,16.438,2.189,22.425,6.565c5.986,4.377,10.065,10.345,12.236,17.908l30.879-5.777
		c-3.081-14.143-9.995-25.224-20.743-33.242c-10.75-8.017-25.681-12.026-44.797-12.026c-14.704,0-26.993,2.557-36.866,7.667
		c-12.955,6.653-22.792,16.211-29.514,28.674c-6.722,12.465-10.083,26.714-10.083,42.748c0,14.775,3.009,28.447,9.033,41.015
		c6.021,12.569,15.019,22.232,26.994,28.989c11.973,6.758,26.011,10.135,42.118,10.135c12.672,0,25.189-2.399,37.548-7.195
		c12.358-4.795,21.794-10.345,28.306-16.647V492.32h-67.01v25.943h35.606v19.536c-4.692,3.642-10.312,6.741-16.857,9.295
		c-6.548,2.557-13.077,3.834-19.588,3.834c-13.166,0-23.809-4.569-31.93-13.707c-8.124-9.138-12.184-22.844-12.184-41.12
		c0-16.945,4.007-29.724,12.026-38.337C219.796,449.152,230.597,444.845,244.181,444.845z"/>
	<path d="M537.745,539.899h61.549l13.443,34.975h33.821l-61.654-153.976h-32.875l-59.973,153.976h32.98L537.745,539.899z
		 M568.099,456.818l21.217,57.137h-42.013L568.099,456.818z"/>
	<polygon points="663.888,422.158 663.888,574.874 772.281,574.874 772.281,548.932 694.977,548.932 694.977,422.158 	"/>
	<polygon points="830.049,420.898 798.119,420.898 798.119,457.029 805.786,535.172 822.486,535.172 830.049,457.029 	"/>
	<rect x="799.379" y="545.36" width="29.514" height="29.514"/>
	<path d="M413.516,415.567c-45.501,0-82.519,37.018-82.519,82.519s37.018,82.519,82.519,82.519s82.52-37.018,82.52-82.519
		S459.017,415.567,413.516,415.567z M467.196,530.09l-24.227,3.606c-0.948,0.141-2.021,0.971-2.397,1.854l-9.59,22.554
		c-5.547,1.617-11.403,2.501-17.466,2.501c-6.062,0-11.918-0.884-17.465-2.501l-9.59-22.554c-0.375-0.883-1.449-1.713-2.397-1.854
		l-24.227-3.606c-5.016-8.382-8.124-18.027-8.723-28.337l18.038-16.599c0.706-0.649,1.128-1.939,0.943-2.88l-4.722-24.026
		c6.684-8.064,15.357-14.412,25.251-18.321l21.378,11.972c0.837,0.469,2.193,0.469,3.03,0l21.378-11.972
		c9.895,3.909,18.567,10.257,25.251,18.321l-4.722,24.026c-0.185,0.941,0.237,2.23,0.943,2.88l18.038,16.599
		C475.319,512.063,472.212,521.708,467.196,530.09z"/>
	<path d="M440.042,488.363l-25.122-18.252c-0.776-0.564-2.034-0.564-2.81,0l-25.122,18.252c-0.776,0.564-1.165,1.76-0.868,2.672
		l9.595,29.532c0.296,0.912,1.314,1.652,2.273,1.652h31.052c0.959,0,1.977-0.74,2.273-1.652l9.595-29.532
		C441.207,490.123,440.818,488.927,440.042,488.363z"/>
</g>
</svg>
