<?xml version="1.0" encoding="utf-8"?>
<!-- Generator: Adobe Illustrator 17.1.0, SVG Export Plug-In . SVG Version: 6.00 Build 0)  -->
<!DOCTYPE svg PUBLIC "-//W3C//DTD SVG 1.1//EN" "http://www.w3.org/Graphics/SVG/1.1/DTD/svg11.dtd">
<svg version="1.1" id="Capa_1" xmlns="http://www.w3.org/2000/svg" xmlns:xlink="http://www.w3.org/1999/xlink" x="0px" y="0px"
	 width="1000px" height="1000px" viewBox="0 0 1000 1000" enable-background="new 0 0 1000 1000" xml:space="preserve">
<g>
	<path d="M987.1,488.7L856.4,433L956,331.6c4.2-4.3,5.5-10.7,3.2-16.3c-2.3-5.6-7.7-9.2-13.7-9.3l-142.1-1.2l53.1-131.8
		c2.2-5.6,0.9-12-3.3-16.2c-4.3-4.3-10.6-5.6-16.2-3.3L705,206.6l-1.2-142.1c-0.1-6-3.7-11.4-9.3-13.7c-5.6-2.3-12-1.1-16.3,3.2
		l-101.4,99.6L521.2,22.8c-2.4-5.5-7.8-9.1-13.8-9.1s-11.4,3.6-13.8,9.1l-55.7,130.7L336.5,53.9c-4.3-4.2-10.7-5.5-16.3-3.2
		c-5.6,2.3-9.2,7.7-9.3,13.7l-1.2,142.1l-131.8-53.1c-5.6-2.2-12-0.9-16.2,3.3c-4.3,4.3-5.6,10.6-3.3,16.2l53.1,131.8l-142.1,1.2
		c-6,0.1-11.4,3.7-13.7,9.3c-2.3,5.6-1.1,12,3.2,16.3L158.4,433L27.7,488.7c-5.5,2.4-9.1,7.8-9.1,13.8s3.6,11.4,9.1,13.8L158.4,572
		L58.8,673.4c-4.2,4.3-5.5,10.7-3.2,16.3s7.7,9.2,13.7,9.3l142.1,1.2L158.4,832c-2.2,5.6-0.9,12,3.3,16.2s10.6,5.6,16.2,3.3
		l131.8-53.1l1.2,142.1c0.1,6,3.7,11.4,9.3,13.7c5.6,2.3,12,1.1,16.3-3.2l101.4-99.6l55.7,130.7c2.4,5.5,7.8,9.1,13.8,9.1
		s11.4-3.6,13.8-9.1l55.7-130.7l101.4,99.6c4.3,4.2,10.7,5.5,16.3,3.2c5.6-2.3,9.2-7.7,9.3-13.7l1.2-142.1l131.8,53.1
		c5.6,2.2,12,0.9,16.2-3.3c4.3-4.3,5.6-10.6,3.3-16.2l-53.1-131.8l142.1-1.2c6-0.1,11.4-3.7,13.7-9.3c2.3-5.6,1.1-12-3.2-16.3
		L856.4,572l130.7-55.7c5.5-2.4,9.1-7.8,9.1-13.8S992.6,491.1,987.1,488.7z M824.4,553c-4.6,1.9-7.9,6-8.8,10.9
		c-1,4.9,0.5,9.9,4,13.4l90.2,91.9L781,670.3c-5,0-9.6,2.5-12.3,6.7c-2.8,4.1-3.3,9.3-1.4,13.9l48.1,119.5l-119.5-48.1
		c-4.6-1.9-9.8-1.3-13.9,1.4c-4.1,2.8-6.6,7.4-6.7,12.3l-1.1,128.8l-91.9-90.2c-3.5-3.5-8.6-5-13.4-4c-4.9,1-8.9,4.3-10.9,8.8
		l-50.5,118.6l-50.5-118.6c-1.9-4.6-6-7.9-10.9-8.8c-1-0.2-1.9-0.3-2.9-0.3c-3.9,0-7.7,1.5-10.5,4.3l-91.9,90.2l-1.1-128.8
		c0-5-2.5-9.6-6.7-12.3c-4.1-2.8-9.3-3.3-13.9-1.4l-119.5,48.1l48.1-119.5c1.9-4.6,1.3-9.8-1.4-13.9c-2.8-4.1-7.4-6.6-12.3-6.7
		L105,669.2l90.2-91.9c3.5-3.5,5-8.6,4-13.4c-1-4.9-4.3-8.9-8.8-10.9L71.8,502.5L190.4,452c4.6-1.9,7.9-6,8.8-10.9
		c1-4.9-0.5-9.9-4-13.4L105,335.8l128.8-1.1c5,0,9.6-2.5,12.3-6.7c2.8-4.1,3.3-9.3,1.4-13.9l-48.1-119.5L319,242.7
		c4.6,1.9,9.8,1.3,13.9-1.4c4.1-2.8,6.6-7.4,6.7-12.3l1.1-128.8l91.9,90.2c3.5,3.5,8.6,5,13.4,4c4.9-1,8.9-4.3,10.9-8.8l50.5-118.6
		l50.5,118.6c1.9,4.6,6,7.9,10.9,8.8c4.9,1,9.9-0.5,13.4-4l91.9-90.2l1.1,128.8c0,5,2.5,9.6,6.7,12.3c4.1,2.8,9.3,3.3,13.9,1.4
		l119.5-48.1l-48.1,119.5c-1.9,4.6-1.3,9.8,1.4,13.9c2.8,4.1,7.4,6.6,12.3,6.7l128.8,1.1l-90.2,91.9c-3.5,3.5-5,8.6-4,13.4
		c1,4.9,4.3,8.9,8.8,10.9L943,502.5L824.4,553z"/>
	<path d="M298.2,521.4h33.1v18.1c-4.4,3.4-9.6,6.3-15.6,8.6c-6.1,2.4-12.1,3.6-18.2,3.6c-12.2,0-22.1-4.2-29.6-12.7
		c-7.5-8.5-11.3-21.2-11.3-38.2c0-15.7,3.7-27.6,11.2-35.6c7.4-8,17.5-12,30.1-12c8.3,0,15.3,2,20.8,6.1c5.6,4.1,9.3,9.6,11.4,16.6
		l28.7-5.4c-2.9-13.1-9.3-23.4-19.3-30.9c-10-7.4-23.8-11.2-41.6-11.2c-13.7,0-25.1,2.4-34.2,7.1c-12,6.2-21.2,15-27.4,26.6
		c-6.2,11.6-9.4,24.8-9.4,39.7c0,13.7,2.8,26.4,8.4,38.1c5.6,11.7,13.9,20.6,25.1,26.9c11.1,6.3,24.1,9.4,39.1,9.4
		c11.8,0,23.4-2.2,34.9-6.7c11.5-4.5,20.2-9.6,26.3-15.5v-56.9h-62.2V521.4z"/>
	<path d="M450.4,428.6c-11.6,0-21.9,1.9-30.8,5.7c-6.7,2.8-12.9,7.1-18.5,12.9c-5.6,5.8-10.1,12.3-13.3,19.6
		c-4.4,9.9-6.5,22.1-6.5,36.7c0,22.8,6.3,40.6,18.8,53.6c12.5,13,29.4,19.5,50.7,19.5c21,0,37.8-6.5,50.3-19.5
		c12.5-13,18.8-31.1,18.8-54.2c0-23.3-6.3-41.4-19-54.5C488.3,435.1,471.4,428.6,450.4,428.6z M479,539.3
		c-7.4,8.3-16.8,12.4-28.3,12.4s-21-4.2-28.5-12.5c-7.5-8.4-11.2-20.6-11.2-36.8c0-16.4,3.6-28.7,10.9-36.9
		c7.3-8.2,16.9-12.2,28.8-12.2s21.4,4,28.6,12.1c7.2,8.1,10.8,20.3,10.8,36.7C490,518.6,486.4,531,479,539.3z"/>
	<path d="M583.5,431L527.9,574h30.6l11.8-32.5h57.1l12.5,32.5h31.4L614.1,431H583.5z M579.2,517.4l19.3-53l19.7,53H579.2z"/>
	<polygon points="716.3,432.2 687.4,432.2 687.4,574 788,574 788,549.9 716.3,549.9 	"/>
</g>
</svg>
