<?xml version="1.0" encoding="utf-8"?>
<!-- Generator: Adobe Illustrator 17.1.0, SVG Export Plug-In . SVG Version: 6.00 Build 0)  -->
<!DOCTYPE svg PUBLIC "-//W3C//DTD SVG 1.1//EN" "http://www.w3.org/Graphics/SVG/1.1/DTD/svg11.dtd">
<svg version="1.1" id="Capa_1" xmlns="http://www.w3.org/2000/svg" xmlns:xlink="http://www.w3.org/1999/xlink" x="0px" y="0px"
	 width="1000px" height="1000px" viewBox="0 0 1000 1000" enable-background="new 0 0 1000 1000" xml:space="preserve">
<path d="M706.376,543.628V33.919c0-14.642-11.911-26.553-26.553-26.553H364.796c-14.642,0-26.553,11.912-26.553,26.553v509.709
	c0,14.055,10.978,25.588,24.809,26.49c-3.125,4.363-5.436,9.039-6.898,14.034c-2.77,9.464-4.491,27.987,6.876,87.71
	c6.508,34.191,16.626,78.138,30.074,130.62c22.833,89.11,47.75,173.307,47.999,174.147l3.184,10.737h194.871V672.848
	c14.513-3.031,27.223-10.52,36.701-21.819c10.577-12.608,16.644-29.358,16.644-45.956c0-12.16-3.923-24.401-11.011-34.949
	C695.358,569.259,706.376,557.709,706.376,543.628z M639.157,641.701v-64.383v-4.6c14.398,5.768,23.345,19.406,23.345,32.355
	C662.502,617.655,656.011,635.113,639.157,641.701z M609.157,957.366H466.721c-7.396-25.406-26.62-92.333-44.557-162.331
	c-41.787-163.078-39.052-196.191-37.219-202.456c2.505-8.555,13.445-16.32,31.03-22.398h89.107v7.136v33.569l-16.041,18.287
	c-0.219,0.25-0.43,0.507-0.632,0.771c-12.301,16.059-12.021,30.118-9.621,39.085c6.288,23.488,32.561,35.013,35.536,36.25
	c1.852,0.77,3.809,1.149,5.757,1.149c2.922,0,5.825-0.854,8.326-2.522c4.17-2.783,6.675-7.464,6.675-12.478V577.318h-15v0h15v-7.136
	V556.98v-1.798v-13.47v-1.53v-62.799c0-20.422,16.615-37.038,37.037-37.038s37.037,16.615,37.037,37.038v62.799v14.689v0.31v14.69
	v0.311v7.136h15v0h-15v67.052v15V957.366z M368.243,37.366h308.133v502.815h-37.219v-62.799c0-36.965-30.072-67.038-67.037-67.038
	s-67.037,30.073-67.037,67.038v49.494v13.305h-93.824h-43.015V37.366z"/>
<path d="M498.126,300.191h48.366c5.902,0,10.686-4.784,10.686-10.686V108.753c0-5.902-4.784-10.686-10.686-10.686h-48.366
	c-5.902,0-10.687,4.784-10.687,10.686v180.752C487.44,295.407,492.224,300.191,498.126,300.191z"/>
<circle cx="522.31" cy="360.211" r="34.869"/>
</svg>
