<?xml version="1.0" encoding="utf-8"?>
<!-- Generator: Adobe Illustrator 17.1.0, SVG Export Plug-In . SVG Version: 6.00 Build 0)  -->
<!DOCTYPE svg PUBLIC "-//W3C//DTD SVG 1.1//EN" "http://www.w3.org/Graphics/SVG/1.1/DTD/svg11.dtd">
<svg version="1.1" id="Capa_1" xmlns="http://www.w3.org/2000/svg" xmlns:xlink="http://www.w3.org/1999/xlink" x="0px" y="0px"
	 width="1000px" height="1000px" viewBox="0 0 1000 1000" enable-background="new 0 0 1000 1000" xml:space="preserve">
<path d="M629.9,556.9v-1.7h28.7h12c6.4,0,11.6-5.2,11.6-11.6V34c0-6.4-5.2-11.6-11.6-11.6h-315c-6.4,0-11.6,5.2-11.6,11.6v509.7
	c0,6.4,5.2,11.6,11.6,11.6h13.9h34.8h91.6v1.7v5.8v7.5v7.1v33.6c0,0-15.4,17.5-16.7,19.1c-12.3,16.1-12,30.1-9.6,39.1
	c6.3,23.5,32.6,35,35.5,36.2c1.9,0.8,3.8,1.1,5.8,1.1c2.9,0,5.8-0.9,8.3-2.5c4.2-2.8,6.7-7.5,6.7-12.5V577.4l0,0v-7.1v-7.5V557v-1.8
	v-13.5v-64.3c0-20.4,16.6-37,37-37s37,16.6,37,37v77.5v0.3v7.5v7.2v0.3v7.1l0,0v67.1v15v298H457.5c-7.4-25.4-26.6-92.3-44.6-162.3
	c-41.8-163.1-39.1-196.2-37.2-202.5c2.5-8.6,13.4-16.3,31-22.4h-32.4h-18.8c-0.6,0-1.2,0-1.7-0.1c-3.1,4.4-5.4,9-6.9,14
	c-2.8,9.5-4.5,28,6.9,87.7c6.5,34.2,16.6,78.1,30.1,130.6c22.8,89.1,47.8,173.3,48,174.1l3.2,10.7h194.9V672.9
	c14.5-3,27.2-10.5,36.7-21.8c10.6-12.6,16.6-29.4,16.6-46c0-12.2-3.9-24.4-11-34.9c-0.6,0-1.1,0.1-1.7,0.1h-17.7h-23v-7.5
	L629.9,556.9L629.9,556.9z M418.8,169.8l34.2-34.2c4.2-4.2,10.9-4.2,15.1,0l44.6,44.6l1.4,1.4l45.9-45.9c1.3-1.3,2.8-2.2,4.4-2.6
	c3.7-1.1,7.8-0.3,10.7,2.6l34.2,34.2c4.2,4.2,4.2,10.9,0,15.1l-45.9,45.9l45.9,45.9c4.2,4.2,4.2,10.9,0,15.1l-34.2,34.2
	c-4.2,4.2-10.9,4.2-15.1,0l-45.9-45.9l-45.9,45.9c-2.1,2.1-4.9,3.1-7.6,3.1c-2.7,0-5.4-1.1-7.5-3.1l-34.2-34.2
	c-4.2-4.2-4.2-10.9,0-15.1l45.9-45.9l-1.4-1.4l-44.6-44.6C414.7,180.8,414.7,174,418.8,169.8z M653.3,605.1c0,12.6-6.5,30-23.3,36.6
	v-64.4v-4.6C644.3,578.5,653.3,592.2,653.3,605.1z"/>
</svg>
