<?xml version="1.0" encoding="utf-8"?>
<!-- Generator: Adobe Illustrator 17.1.0, SVG Export Plug-In . SVG Version: 6.00 Build 0)  -->
<!DOCTYPE svg PUBLIC "-//W3C//DTD SVG 1.1//EN" "http://www.w3.org/Graphics/SVG/1.1/DTD/svg11.dtd">
<svg version="1.1" id="Capa_1" xmlns="http://www.w3.org/2000/svg" xmlns:xlink="http://www.w3.org/1999/xlink" x="0px" y="0px"
	 width="1000px" height="1000px" viewBox="0 0 1000 1000" enable-background="new 0 0 1000 1000" xml:space="preserve">
<g>
	<path d="M407.064,16.776c-4.993,0-9.818,1.808-13.586,5.089L194.194,195.447c-8.603,7.495-9.505,20.592-2.013,29.193
		l233.003,267.502l11.753,13.494l11.951,13.72c-9.572,0.991-19.716,2.353-29.751,4.231c-36.883,6.906-60.357,18.8-64.405,32.631
		c-1.295,4.422-3.095,21.167,8.114,81.021c6.887,36.776,17.639,84.287,31.958,141.211c19.545,77.7,40.51,152.033,48.262,179.164
		h156.07l13.768-255.023c0,0-19.079-177.572-21.125-197.011c-1.089-10.343-3.327-21.192-3.327-31.594l-1.738-16.506v-0.813
		c0-3.202-0.444-6.3-1.258-9.247c-4.062-14.703-17.547-25.534-33.523-25.534c-19.178,0-34.781,15.603-34.781,34.781v19.785
		c0,62.323-0.483,124.647-0.483,186.969c0,5.014-2.505,9.695-6.675,12.478c-2.502,1.669-5.404,2.522-8.326,2.522
		c-1.948,0-3.905-0.379-5.758-1.149c-2.896-1.204-28.484-12.431-34.621-35.354c-2.349-8.771-2.627-22.52,9.381-38.196
		c0.202-0.264,0.413-0.521,0.632-0.771l15.367-17.519l-0.483-56.753l-9.899-11.365l-12.457-14.301l-12.241-14.054L209.63,211.178
		L406.941,39.314l28.205,32.381l11.42-3.638l11.419-3.637l-35.314-40.542C418.74,19.364,413.052,16.776,407.064,16.776z"/>
	<path d="M622.492,530.948l8.687,82.495h0.751c13.306,0,24.003-4.71,31.795-13.998c6.657-7.936,10.632-18.946,10.632-29.453
		c0-23.355-21.938-39.044-42.427-39.044H622.492z"/>
	<path d="M802.23,436.801L672.45,29.368c-1.313-4.123-5.125-6.754-9.232-6.753c-0.975,0-1.966,0.148-2.944,0.459l-186.545,59.42
		l-11.419,3.638l-11.42,3.638l-42.431,13.515c-5.1,1.625-7.917,7.076-6.293,12.177l89.89,282.202l6.562,20.6
		c1.286-1.78,2.656-3.495,4.109-5.135c7.478-8.442,17.087-14.945,27.978-18.672c6.665-2.28,13.801-3.537,21.229-3.537
		c16.688,0,31.271,6.257,42.162,16.54c5.932,5.6,10.77,12.391,14.249,20.024c1.618,3.549,2.932,7.283,3.938,11.158
		c1.066,4.107,1.773,8.375,2.092,12.766c0.106,1.453,0.185,2.915,0.204,4.394l5.19,49.291l9.316-2.968l14.372-4.578l152.479-48.569
		C801.038,447.353,803.855,441.901,802.23,436.801z"/>
</g>
</svg>
