<?xml version="1.0" encoding="utf-8"?>
<!-- Generator: Adobe Illustrator 17.1.0, SVG Export Plug-In . SVG Version: 6.00 Build 0)  -->
<!DOCTYPE svg PUBLIC "-//W3C//DTD SVG 1.1//EN" "http://www.w3.org/Graphics/SVG/1.1/DTD/svg11.dtd">
<svg version="1.1" id="Capa_1" xmlns="http://www.w3.org/2000/svg" xmlns:xlink="http://www.w3.org/1999/xlink" x="0px" y="0px"
	 width="1000px" height="1000px" viewBox="0 0 1000 1000" enable-background="new 0 0 1000 1000" xml:space="preserve">
<g>
	<path d="M809.6,564.8c-9.5-22.6-23.2-42.8-40.6-60.2c-17.4-17.4-37.6-31-60.2-40.6c-15.2-6.4-31-10.8-47.2-13
		c2.2,4.6,3.9,9.2,5.3,13.8c1.8,6.1,3.1,12.3,3.9,18.3c1.2,8.8,1.6,17.4,1.8,26l9.3,112.8c-4.8,1.8-10.8,4.4-17.1,7.6
		c-20.1,10.3-32.5,22.2-36.9,35.5c-2.7,8.1-3.7,20.7,6.8,34.9c21.5,29,10.6,41.3-27.1,75.7c-18.6,17-40.4,37-60.3,64.3v-79.8
		c-2.6,1-5.5,1.6-8.5,1.6h-7.7c-3.1,0-6.1-0.6-8.8-1.7v124.5v62.2c-9.2,0.2-18.5,0.3-27.8,0.3s-18.6-0.1-27.8-0.3v-62.2V760.1
		c-2.7,1.1-5.6,1.7-8.7,1.7h-7.7c-3,0-6-0.6-8.6-1.6V840c-19.8-27.4-41.7-47.3-60.3-64.3c-37.7-34.5-48.6-46.7-27.1-75.7
		c10.5-14.2,9.5-26.8,6.8-34.9c-4.4-13.3-16.8-25.2-36.9-35.5c-6.3-3.2-12.4-5.8-17.1-7.6l9.6-116.3c0.2-7.4,0.7-15,1.7-22.5
		c0.8-6.1,2.1-12.2,4-18.4c1.4-4.6,3.1-9.1,5.2-13.7c-16.3,2.3-32.1,6.6-47.4,13.1c-22.6,9.5-42.8,23.2-60.2,40.6
		c-17.4,17.4-31,37.6-40.6,60.2c-9.9,23.4-14.9,48.2-14.9,73.8v242.3c0,9,2.5,22.5,14.6,35.7c6.9,7.5,15.9,14.1,27.7,20
		c18.3,9.2,43.7,17,75.7,23.3c56.3,11,131.5,17.1,212,17.1s155.8-6.1,212-17.1c31.9-6.3,57.4-14.1,75.7-23.3
		c11.8-5.9,20.9-12.5,27.7-20c12-13.2,14.6-26.7,14.6-35.7V638.6C824.5,613,819.5,588.2,809.6,564.8z M194.5,880.9V638.6
		c0-66.4,40.6-123.3,98.3-147.3l-11.4,138.2c-0.5,5.9,3.2,11.3,8.9,13c17.1,5.2,43.1,18,47.2,30.4c0.8,2.5,1.2,6.1-3.2,12.1
		c-16.3,22-19.9,42.1-11.1,61.5c7.5,16.5,23.2,30.9,41.4,47.5c24.5,22.4,54.8,50.1,77.1,93.5V946
		C311.2,941.5,194.5,919.7,194.5,880.9z M794.5,880.9c0,38.8-116.7,60.5-247.2,65.1v-58.5c22.4-43.4,52.7-71.1,77.1-93.5
		c9.4-8.6,18.1-16.6,25.4-24.6h55.5c6.9,0,12.5-5.6,12.5-12.5s-5.6-12.5-12.5-12.5h-38.6c7.6-18.8,3.7-38.2-12-59.5
		c-4.4-5.9-4-9.6-3.2-12.1c4.1-12.4,30.1-25.3,47.2-30.4c5.7-1.7,9.4-7.1,8.9-13l-11.4-138.2c57.7,24,98.3,80.9,98.3,147.3
		L794.5,880.9L794.5,880.9z"/>
	<path d="M336.2,328.7c3.8,9,7,18.9,13.3,26.4c4.4,5.3,11.3,9,18.2,10.1c15.8,25.3,27.4,54.3,29.7,83.9c0.6,7.3,0.6,14.7-0.1,22
		c-0.2,2.7-0.5,5.3-0.8,8c-0.5,4.7-1.3,10.2-1.9,14.9c3.3,19.7,25.6,52.5,29.3,56.3c16.5,21.5,41.4,34.8,44.9,36.6
		c8.5,3.9,16.9,6,25.4,6.1c0.1,0,0.2,0,0.3,0c0.1,0,0.2,0,0.3,0c8.6-0.1,17.2-3,25.8-6.2c1.9-0.8,24.4-12.3,43.7-36.6
		c21.1-25.5,29.1-48.7,30-56.1c-0.6-4.9-1.4-10.1-1.9-15c-0.3-2.7-0.5-5.3-0.8-8c-0.6-7.3-0.6-14.7-0.1-22
		c2.3-29.6,13.9-58.7,29.7-83.9c6.9-1,13.8-4.8,18.2-10.1c6.3-7.6,9.5-17.5,13.3-26.4c4.8-11.5,9.8-22.9,14.4-34.4
		c7.1-17.8,10.7-40.3-5.7-54.3c-4.5-3.8-10.5-5.7-16.3-5.7c-0.1,0-0.3,0-0.4,0h0c-0.7,0-1.4-1-2.1-2.6c0.2-28,2.7-57.4-1.2-85
		c-2.3-16.6-7.8-32.7-14.8-47.9c-16.2-34.9-42.9-56-79.7-67c-17.1-5.1-34.8-7.9-52.3-8.1c-0.1,0-0.2,0-0.3,0c-0.1,0-0.2,0-0.3,0
		c-17.5,0.2-35.1,3-52.3,8.1c-36.8,11-63.4,32.1-79.7,67c-7.1,15.2-12.5,31.2-14.8,47.9c-3.9,27.6-1.4,57-1.2,85
		c-0.7,1.6-1.4,2.6-2.1,2.6c0,0,0,0,0,0c-0.1,0-0.3,0-0.4,0c-5.9,0-11.8,1.9-16.3,5.7c-16.5,14-12.8,36.5-5.7,54.3
		C326.4,305.8,331.4,317.2,336.2,328.7z"/>
	<path d="M441.7,740.4c1.4,3.7,4.7,6.4,8.6,6.4h7.7c3.9,0,7.3-2.6,8.7-6.4c0.4-1.2,0.7-2.5,0.7-3.8V611.6c0-0.6-0.1-1.3-0.2-1.9
		c-0.1-0.7-0.3-1.5-0.5-2.2c-1.4-4.1-4.3-7-8.2-9.2c-0.7-0.3-5.8-3-13.2-8.3c-7.5-5.4-17.4-13.6-27.4-24.9
		c-9.5-10.6-19.1-24-26.9-40.4c-3.1-6.5-5.9-13.4-8.4-20.8c-2.6-7.7-4.7-16-6.3-24.8c-0.4-2.2-0.8-4.5-1.1-6.8
		c-1.1-7.4-1.8-15.1-2-23.2c-0.1-2.2-0.1-4.4-0.1-6.6c0-1.4-0.4-2.5-1-3.4c-0.2-0.3-0.7-0.4-1.5-0.4c-0.7,0-1.7,0.1-2.7,0.3
		c-6.9,1.3-19.9,6.3-21,8.2c-0.5,0.7-0.9,1.4-1.3,2.1c-0.7,1.1-1.3,2.3-1.9,3.4c-5,9.2-7.8,18.4-9.5,27.7c-0.4,2.3-0.8,4.7-1,7.1
		c-2.7,22.4,0,46-4.8,73c-0.6,3.7,0.3,6.5,3.4,6.5c0.7,0,1.4-0.1,2.3-0.4l28-9.1c2.7-0.9,5.1-1.5,7.4-1.5c1.9,0,3.7,0.5,5.4,1.4
		c1.3,0.8,2.5,1.9,3.6,3.4c0,0,2.1,2.9,5.6,7.7c10.5,13.9,34,43.1,57.1,59.1v108.9C441,737.9,441.3,739.2,441.7,740.4z"/>
	<path d="M655.2,480.4c-1.7-9.3-4.5-18.4-9.4-27.5c-0.6-1.2-1.3-2.3-2-3.5c-0.4-0.7-0.8-1.4-1.3-2.2c-1.2-1.9-14.5-7-21.3-8.2
		c-0.9-0.2-1.8-0.3-2.4-0.3c-0.8,0-1.3,0.1-1.5,0.4c-0.6,0.9-1,2-1,3.4c0,2.2,0,4.4-0.1,6.6c-0.3,8.4-1,16.4-2.1,24
		c-0.3,2-0.6,4-1,6c-1.6,8.9-3.8,16.7-6.4,24.6c-2.5,7.4-5.3,14.9-8.5,21.3c-7.8,16.1-17.3,29.3-26.6,39.9
		c-10,11.3-19.8,19.5-27.4,25c-7.5,5.5-12.7,8.2-13.4,8.5c-3.9,2.1-7.2,5.5-8.4,9.9c-0.1,0.5-0.2,1-0.3,1.5c-0.1,0.7-0.2,1.3-0.2,2
		v124.9c0,1.1,0.2,2.2,0.5,3.2c1.2,4,4.7,7,8.8,7h7.7c3.7,0,7-2.4,8.5-5.9c0.6-1.3,0.9-2.8,0.9-4.3V627.6
		c23.4-16.2,47.3-46.1,57.5-59.7c3.3-4.4,5.2-7.1,5.2-7.1c1-1.4,2.2-2.5,3.3-3.2c1.7-1.1,3.6-1.6,5.7-1.6c2.2,0,4.7,0.6,7.4,1.5
		l28,9.1c0.8,0.3,1.6,0.4,2.2,0.4c3.2,0,4.1-3,3.5-6.5c-4.8-27-2.1-50.5-4.8-72.9C656,485.1,655.6,482.7,655.2,480.4z"/>
</g>
</svg>
