<?xml version="1.0" encoding="utf-8"?>
<!-- Generator: Adobe Illustrator 17.1.0, SVG Export Plug-In . SVG Version: 6.00 Build 0)  -->
<!DOCTYPE svg PUBLIC "-//W3C//DTD SVG 1.1//EN" "http://www.w3.org/Graphics/SVG/1.1/DTD/svg11.dtd">
<svg version="1.1" id="Capa_1" xmlns="http://www.w3.org/2000/svg" xmlns:xlink="http://www.w3.org/1999/xlink" x="0px" y="0px"
	 width="1000px" height="1000px" viewBox="0 0 1000 1000" enable-background="new 0 0 1000 1000" xml:space="preserve">
<g>
	<path d="M249.5,625.6c13.4-31.7,32.6-60.2,57.1-84.7c14.8-14.8,31-27.6,48.5-38.4L38.3,45.9c-1.5-2.4-3.5-3.7-5.6-3.7
		c-1.9,0-3.9,1.1-5.4,3.2l0.1,388.7c0,5.5,2.3,13.8,5.2,18.5L229.3,709C231.5,680.2,238.2,652.3,249.5,625.6z"/>
	<path d="M967.3,42.2c-2.1,0-4.1,1.2-5.6,3.7L641.8,506.9c14.9,9.8,28.8,21.2,41.6,34c24.5,24.5,43.7,53,57.1,84.7
		c12.9,30.4,19.8,62.5,20.8,95.6l206.1-268.5c2.9-4.7,5.2-13,5.2-18.5l0.1-388.7C971.2,43.3,969.2,42.2,967.3,42.2z"/>
	<path d="M396.5,569.4c-10.8,6.7-20.9,14.4-30.1,23.1c-17.7,16.6-32.2,36.7-42.4,59.1c-5.2,11.3-9.3,23.3-12.1,35.7
		c-3.1,13.5-4.7,27.6-4.7,42.1c0,103.8,84.1,187.9,187.9,187.9s187.9-84.1,187.9-187.9c0-23.3-4.2-45.6-12-66.2
		C659.1,632,639.4,604.8,614,584c-32.4-26.6-73.9-42.5-119-42.5C458.9,541.5,425.1,551.7,396.5,569.4z M534.3,878.7h-58.2V659.5
		c-21.3,19.9-46.3,34.6-75.1,44.1v-52.8c15.2-5,31.7-14.4,49.5-28.3c17.8-13.9,30-30,36.6-48.5h47.2L534.3,878.7L534.3,878.7z"/>
	<path d="M610.3,513.8c-34.3-18.4-73.6-28.9-115.3-28.9c-38.7,0-75.4,9-107.9,25.1c-3.3,1.6-6.6,3.3-9.8,5.1
		c-3.2,1.8-6.4,3.6-9.5,5.5C297.4,563.6,250.6,641,250.6,729.3c0,0.8,0,1.6,0,2.5c0,3.7,0.1,7.4,0.3,11c0.2,3.7,0.5,7.3,0.8,11
		c12.3,123.5,116.5,220,243.2,220c127.6,0,232.4-97.8,243.5-222.6c0.4-4.2,0.6-8.3,0.8-12.5c0.1-3.1,0.2-6.2,0.2-9.3
		c0-2.9-0.1-5.7-0.2-8.6c-2.8-81.9-45.9-153.5-110-195.7c-3.1-2-6.2-4-9.3-5.8C616.7,517.3,613.5,515.5,610.3,513.8z M638.9,585.4
		c6.4,6.4,12.4,13.3,17.9,20.4c2.6,3.4,5,6.8,7.4,10.3c7.2,10.7,13.3,22,18.3,34c2.9,6.9,5.4,13.8,7.5,20.9c2.7,9,4.8,18.2,6.2,27.5
		c1.5,10.1,2.3,20.4,2.3,30.8c0,27.5-5.4,54.1-16,79.2c-10.3,24.2-24.9,46-43.6,64.7c-18.7,18.7-40.5,33.4-64.7,43.6
		c-25.1,10.6-51.8,16-79.2,16s-54.1-5.4-79.2-16c-24.2-10.3-46-24.9-64.7-43.6s-33.4-40.5-43.6-64.7c-10.6-25.1-16-51.8-16-79.2
		c0-4.8,0.2-9.6,0.5-14.4c0.5-7.7,1.5-15.4,2.9-22.9c1.9-10.2,4.6-20.2,8-30c1.4-4,2.9-8,4.6-11.9c10.3-24.2,24.9-46,43.6-64.7
		c5.9-5.9,12.1-11.4,18.6-16.5c7.2-5.6,14.7-10.7,22.5-15.3c3.9-2.3,7.9-4.4,12-6.5c3.8-1.9,7.7-3.7,11.6-5.4
		c25.1-10.6,51.8-16,79.2-16c27.5,0,54.1,5.4,79.2,16c7.6,3.2,15,6.9,22.1,11c5.6,3.2,11,6.7,16.3,10.4
		C622,569.8,630.7,577.3,638.9,585.4z"/>
</g>
</svg>
