<?xml version="1.0" encoding="utf-8"?>
<!-- Generator: Adobe Illustrator 17.1.0, SVG Export Plug-In . SVG Version: 6.00 Build 0)  -->
<!DOCTYPE svg PUBLIC "-//W3C//DTD SVG 1.1//EN" "http://www.w3.org/Graphics/SVG/1.1/DTD/svg11.dtd">
<svg version="1.1" id="Capa_1" xmlns="http://www.w3.org/2000/svg" xmlns:xlink="http://www.w3.org/1999/xlink" x="0px" y="0px"
	 width="1000px" height="1000px" viewBox="0 0 1000 1000" enable-background="new 0 0 1000 1000" xml:space="preserve">
<g>
	<path d="M348.808,367.718l-28.988-28.988c-3.537-3.537-9.272-3.537-12.81,0l-38.946,38.946l-38.946-38.946
		c-3.537-3.537-9.272-3.537-12.81,0l-28.988,28.988c-3.538,3.537-3.538,9.272,0,12.81l38.946,38.946l-38.946,38.946
		c-3.538,3.537-3.538,9.272,0,12.81l28.988,28.988c3.537,3.537,9.272,3.537,12.81,0l38.946-38.946l38.946,38.946
		c3.537,3.537,9.272,3.537,12.81,0l28.988-28.988c3.538-3.537,3.538-9.272,0-12.81l-38.946-38.946l38.946-38.946
		C352.345,376.991,352.345,371.256,348.808,367.718z"/>
	<path d="M551.242,247.036l-28.988-28.988c-3.537-3.537-9.272-3.537-12.81,0l-38.946,38.946l-38.946-38.946
		c-3.537-3.537-9.272-3.537-12.81,0l-28.988,28.988c-3.537,3.537-3.537,9.272,0,12.81l38.946,38.946l-38.946,38.946
		c-3.537,3.537-3.537,9.272,0,12.81l28.988,28.988c3.537,3.537,9.272,3.537,12.81,0l38.946-38.946l38.946,38.946
		c3.537,3.537,9.272,3.537,12.81,0l28.988-28.988c3.538-3.537,3.538-9.272,0-12.81l-38.946-38.946l38.946-38.946
		C554.78,256.308,554.78,250.573,551.242,247.036z"/>
	<path d="M752.126,495.915l-28.988-28.988c-3.537-3.537-9.272-3.537-12.81,0l-38.946,38.946l-38.946-38.946
		c-3.537-3.537-9.272-3.537-12.81,0l-28.988,28.988c-3.538,3.537-3.538,9.272,0,12.81l38.946,38.946l-38.946,38.946
		c-3.538,3.537-3.538,9.272,0,12.81l28.988,28.988c3.538,3.537,9.272,3.537,12.81,0l38.946-38.946l38.946,38.946
		c3.537,3.537,9.272,3.537,12.81,0l28.988-28.988c3.538-3.537,3.538-9.272,0-12.81l-38.946-38.946l38.946-38.946
		C755.664,505.188,755.664,499.453,752.126,495.915z"/>
	<circle cx="600.868" cy="886.063" r="86.488"/>
	<circle cx="351.46" cy="887.732" r="86.488"/>
	<circle cx="184.667" cy="702.906" r="86.488"/>
	<circle cx="674.474" cy="110.708" r="86.488"/>
	<path d="M530.654,495.438c29.572-42.291,65.043-81.947,105.537-118.054l12.377,15.426c3.457,4.308,7.881,3.627,9.884-1.52
		l25.281-64.993c2.002-5.147-0.8-8.64-6.258-7.801l-68.931,10.593c-5.458,0.839-7.082,5.011-3.625,9.319l12.469,15.541
		c-42.975,38.162-80.581,80.2-111.887,125.112c-26.927,38.63-49.285,79.459-66.453,121.354
		c-29.414,71.781-33.416,121.641-33.571,123.729c-0.617,8.252,5.567,15.434,13.818,16.062c0.388,0.029,0.772,0.044,1.154,0.044
		c7.759,0,14.331-5.986,14.942-13.85c1.274-16.399,9.591-61.726,31.943-115.891C483.716,570.812,505.02,532.097,530.654,495.438z"/>
	<path d="M890.106,697.419c0.805,0.129,1.604,0.191,2.394,0.191c7.237,0,13.609-5.252,14.792-12.627
		c0.332-2.066,7.979-51.498-4.021-128.139c-7.004-44.731-19.304-89.627-36.558-133.441c-20.06-50.938-46.914-100.538-79.889-147.612
		l15.728-12.233c4.359-3.391,3.746-7.825-1.371-9.905l-64.606-26.26c-5.117-2.08-8.651,0.67-7.895,6.14l9.551,69.08
		c0.756,5.471,4.903,7.157,9.263,3.766l15.612-12.142c31.036,44.5,56.364,91.29,75.345,139.277
		c16.453,41.597,28.217,84.192,34.965,126.603c9.207,57.867,6.806,103.888,4.25,120.138
		C876.369,688.427,881.934,696.108,890.106,697.419z"/>
</g>
</svg>
