<?xml version="1.0" encoding="utf-8"?>
<!-- Generator: Adobe Illustrator 17.1.0, SVG Export Plug-In . SVG Version: 6.00 Build 0)  -->
<!DOCTYPE svg PUBLIC "-//W3C//DTD SVG 1.1//EN" "http://www.w3.org/Graphics/SVG/1.1/DTD/svg11.dtd">
<svg version="1.1" id="Capa_1" xmlns="http://www.w3.org/2000/svg" xmlns:xlink="http://www.w3.org/1999/xlink" x="0px" y="0px"
	 width="1000px" height="1000px" viewBox="0 0 1000 1000" enable-background="new 0 0 1000 1000" xml:space="preserve">
<g>
	<path d="M449.296,338.989c-10.793-8.721-20.03-15.861-26.745-20.781c-31.323-22.934-49.135-21.326-69.512,2.158
		c-0.238,0.288-17.732,21.369-48.678,57.363c37.449-1.614,68.72-13.679,91.22-26.248
		C415.691,340.267,426.566,338.313,449.296,338.989z"/>
	<path d="M55.757,677.703c1.373,5.614,7.2,10.32,12.976,10.52c9.629,0.333,25.305,0.871,44.434,1.513l6.954,28.913
		c1.165,4.845,6.149,8.772,11.132,8.772h35.443c4.983,0,9.967-3.928,11.132-8.772l6.394-26.586c13.213,0.42,26.633,0.84,39.812,1.24
		l6.58,27.36c1.165,4.845,6.149,8.772,11.132,8.772h35.443c4.983,0,9.967-3.928,11.132-8.772l6.103-25.376
		c11.983,0.305,23.965,0.672,35.945,1.077l6.085,25.305c1.166,4.845,6.149,8.772,11.133,8.772h35.443
		c4.982,0,9.967-3.928,11.132-8.772l5.436-22.603c63.954,2.741,127.893,5.853,191.897,6.977l6.542,27.205
		c1.166,4.845,6.149,8.772,11.132,8.772h35.444c4.983,0,9.967-3.928,11.132-8.772l6.465-26.883
		c12.657-0.119,25.312-0.343,37.965-0.682l6.387,26.558c1.166,4.845,6.149,8.772,11.132,8.772h35.443
		c4.983,0,9.967-3.928,11.132-8.772l7.175-29.834c11.26-0.765,22.516-1.657,33.753-2.721l7.83,32.556
		c1.165,4.845,6.149,8.772,11.132,8.772h35.443c4.983,0,9.967-3.928,11.132-8.772l10.248-42.61
		c14.732-2.579,29.397-5.537,43.967-8.977c14.595-3.446,29.079-7.379,43.404-11.82c5.521-1.711,9.974-7.866,9.981-13.645
		c0.018-15.745,0.051-43.769,0.051-44.367c0-8.305-3.471-18.775-7.436-25.976c-9.09-16.508-28.002-24.59-44.84-30.786
		c-25.476-9.375-52.109-15.588-78.459-21.943c-11.249-2.713-22.428-5.542-33.585-8.609c-16.737-4.601-33.427-9.37-50.129-14.093
		c-33.554-9.487-66.788-19.721-99.34-31.852c3.29-8.885-1.223-20.996-13.559-20.996c-7.6,0-12.22,4.602-13.89,10.21
		c-10.755-4.451-21.427-9.138-31.992-14.132c5.078-8.919,0.908-23.263-12.516-23.263c-7.69,0-12.331,4.712-13.949,10.411
		c-11.324-5.628-22.762-11.531-33.94-17.865c6.526-8.695,2.697-24.765-11.515-24.765c-7.204,0-11.735,4.134-13.611,9.341
		c-10.104-6.782-19.704-14.062-28.464-21.978c-6.207-5.609-12.053-11.657-19.068-16.296c-20.469-13.536-48.864-7.601-68.967,3.756
		c-30.699,17.315-99.872,38.339-158.737,20.467c-24.736-7.51-48.536-20.603-66.569-39.315c-9.182-9.528-16.161-20.369-22.466-31.925
		c-5.51-10.1-11.723-20.819-24.309-22.393c-24.824-3.103-47.586,31.792-61.179,48.148c-28.981,34.872-47.627,78.443-50.944,123.796
		c-3.155,43.141,8.291,88.042,17.902,129.853C42.754,626.407,49.473,651.997,55.757,677.703z M66.38,408.248
		c86.626,59.598,216.048,95.763,371.565,125.382c157.008,29.909,224.76,115.965,238.397,135.531
		c-11.979-0.195-23.956-0.497-35.93-0.889c-23.655-0.774-47.295-1.871-70.928-3.173c-58.349-3.215-116.642-7.675-174.937-11.583
		c-4.41-0.274-8.788-0.544-13.15-0.812c-24.576-52.172-73.597-84.416-123.957-108.656c-50.977-24.538-111.077-39.56-152.127-80.175
		c-12.568-12.435-23.289-26.624-32.127-41.925C72.193,420.229,65.124,410.436,66.38,408.248z"/>
</g>
</svg>
