<?xml version="1.0" encoding="utf-8"?>
<!-- Generator: Adobe Illustrator 17.1.0, SVG Export Plug-In . SVG Version: 6.00 Build 0)  -->
<!DOCTYPE svg PUBLIC "-//W3C//DTD SVG 1.1//EN" "http://www.w3.org/Graphics/SVG/1.1/DTD/svg11.dtd">
<svg version="1.1" id="Capa_1" xmlns="http://www.w3.org/2000/svg" xmlns:xlink="http://www.w3.org/1999/xlink" x="0px" y="0px"
	 width="1000px" height="1000px" viewBox="0 0 1000 1000" enable-background="new 0 0 1000 1000" xml:space="preserve">
<g>
	<path d="M939.724,766.498V508.61H823.752c-2.595,4.479-7.428,7.5-12.977,7.5H636.07c-5.549,0-10.382-3.021-12.977-7.5H515v268.991
		h413.619C934.752,777.602,939.724,772.63,939.724,766.498z M619.62,659.345c0,8.284-6.716,15-15,15s-15-6.716-15-15V541.641
		c0-8.284,6.716-15,15-15s15,6.716,15,15V659.345z M810.775,712.654H636.07c-8.284,0-15-6.716-15-15s6.716-15,15-15h174.705
		c8.284,0,15,6.716,15,15S819.059,712.654,810.775,712.654z"/>
	<path d="M71.381,777.602H485V508.61h-75.63v145.737c0,8.284-6.716,15-15,15s-15-6.716-15-15V508.61H172.482v145.737
		c0,8.284-6.716,15-15,15s-15-6.716-15-15V508.61H60.276v257.887C60.276,772.63,65.248,777.602,71.381,777.602z M188.573,680.433
		h174.705c8.284,0,15,6.716,15,15s-6.716,15-15,15H188.573c-8.284,0-15-6.716-15-15S180.289,680.433,188.573,680.433z"/>
	<path d="M636.07,486.11h174.705c5.549,0,10.382,3.021,12.977,7.5h115.972V233.502c0-6.133-4.972-11.104-11.104-11.104H515V493.61
		h108.093C625.688,489.131,630.521,486.11,636.07,486.11z M829.089,342.321c0-8.284,6.716-15,15-15s15,6.716,15,15v117.704
		c0,8.284-6.716,15-15,15s-15-6.716-15-15V342.321z M636.07,289.567h174.705c8.284,0,15,6.716,15,15s-6.716,15-15,15H636.07
		c-8.284,0-15-6.716-15-15S627.786,289.567,636.07,289.567z"/>
	<path d="M142.482,345.653c0-8.284,6.716-15,15-15s15,6.716,15,15V493.61H379.37V345.653c0-8.284,6.716-15,15-15s15,6.716,15,15
		V493.61H485V222.398H71.381c-6.133,0-11.104,4.971-11.104,11.104V493.61h82.205V345.653z M188.573,289.567h174.705
		c8.284,0,15,6.716,15,15s-6.716,15-15,15H188.573c-8.284,0-15-6.716-15-15S180.289,289.567,188.573,289.567z"/>
	<path d="M967.879,167.158H32.121C17.167,167.158,5,179.59,5,194.872v610.257c0,15.282,12.167,27.714,27.121,27.714h935.758
		c14.955,0,27.121-12.432,27.121-27.714V194.872C995,179.59,982.833,167.158,967.879,167.158z M965,802.842H35V197.158h930V802.842z
		"/>
</g>
</svg>
