<?xml version="1.0" encoding="utf-8"?>
<!-- Generator: Adobe Illustrator 17.1.0, SVG Export Plug-In . SVG Version: 6.00 Build 0)  -->
<!DOCTYPE svg PUBLIC "-//W3C//DTD SVG 1.1//EN" "http://www.w3.org/Graphics/SVG/1.1/DTD/svg11.dtd">
<svg version="1.1" id="Capa_1" xmlns="http://www.w3.org/2000/svg" xmlns:xlink="http://www.w3.org/1999/xlink" x="0px" y="0px"
	 width="1000px" height="1000px" viewBox="0 0 1000 1000" enable-background="new 0 0 1000 1000" xml:space="preserve">
<g>
	<path d="M963.399,138.409H36.601c-6.407,0-11.601,4.619-11.601,10.316V733.6c0,5.697,5.194,10.316,11.601,10.316h330.031h12.519
		h12.519l-4.049,74.092h224.758l-4.049-74.092h12.519h12.519h330.031c6.407,0,11.601-4.619,11.601-10.316V148.725
		C975,143.027,969.806,138.409,963.399,138.409z M927.095,686.713c0,4.877-4.67,8.831-10.431,8.831h-285.94h-12.519h-12.519H394.313
		h-12.519h-12.519H83.336c-5.761,0-10.431-3.954-10.431-8.831V190.451c0-4.877,4.67-8.831,10.431-8.831h833.327
		c5.761,0,10.431,3.954,10.431,8.831V686.713z"/>
	<path d="M664.304,862.46v-13.408c0-5.697-4.619-10.316-10.316-10.316h-15.439h-12.519h-12.519H386.488h-12.519h-12.518h-15.438
		c-5.698,0-10.316,4.619-10.316,10.316v13.408c0,5.697,4.619,10.316,10.316,10.316h13.578h280.818h13.578
		C659.685,872.776,664.304,868.157,664.304,862.46z"/>
	<path d="M500,216.593c-122.601,0-221.989,99.388-221.989,221.989c0,88.289,51.544,164.535,126.179,200.3
		c10.395,4.981,21.242,9.166,32.455,12.5c20.078,5.969,41.339,9.189,63.355,9.189s43.277-3.221,63.355-9.189
		c11.214-3.333,22.061-7.519,32.455-12.5c74.635-35.765,126.179-112.011,126.179-200.3C721.989,315.981,622.601,216.593,500,216.593
		z M684.282,516.42c-2.683,6.342-5.683,12.506-8.976,18.494l-85.148,12.674c-2.904,0.433-6.189,2.973-7.338,5.675l-33.694,79.242
		c-15.945,4.03-32.378,6.066-49.126,6.066s-33.181-2.037-49.126-6.066l-33.694-79.242c-1.149-2.702-4.434-5.242-7.338-5.675
		l-85.148-12.674c-3.292-5.987-6.293-12.151-8.976-18.494c-8.001-18.917-12.962-38.749-14.841-59.161l63.315-58.264
		c2.16-1.988,3.453-5.935,2.887-8.815l-16.59-84.411c2.611-2.932,5.303-5.806,8.098-8.601
		c17.879-17.879,38.621-32.005,61.664-42.033l75.111,42.063c2.562,1.435,6.715,1.435,9.276,0l75.111-42.063
		c23.043,10.028,43.785,24.154,61.664,42.033c2.795,2.795,5.487,5.668,8.098,8.601l-16.59,84.411
		c-0.566,2.881,0.726,6.828,2.887,8.815l63.315,58.264C697.244,477.671,692.284,497.503,684.282,516.42z"/>
	<path d="M581.2,408.819l-76.9-55.871c-2.375-1.726-6.226-1.726-8.601,0l-76.9,55.871c-2.375,1.726-3.565,5.388-2.658,8.181
		l29.373,90.401c0.907,2.792,4.023,5.056,6.959,5.056h95.053c2.936,0,6.051-2.263,6.959-5.056L583.858,417
		C584.766,414.207,583.576,410.545,581.2,408.819z"/>
</g>
</svg>
