<?xml version="1.0" encoding="utf-8"?>
<!-- Generator: Adobe Illustrator 17.1.0, SVG Export Plug-In . SVG Version: 6.00 Build 0)  -->
<!DOCTYPE svg PUBLIC "-//W3C//DTD SVG 1.1//EN" "http://www.w3.org/Graphics/SVG/1.1/DTD/svg11.dtd">
<svg version="1.1" id="Capa_1" xmlns="http://www.w3.org/2000/svg" xmlns:xlink="http://www.w3.org/1999/xlink" x="0px" y="0px"
	 width="1000px" height="1000px" viewBox="0 0 1000 1000" enable-background="new 0 0 1000 1000" xml:space="preserve">
<path d="M604.95,366.394c22.431,12.207,53.546,23.819,90.668,25.008c-31.055-35.324-48.619-56.02-48.858-56.302
	c-20.446-23.045-38.112-24.443-68.896-1.377c-6.599,4.948-15.673,12.123-26.271,20.882
	C567.11,352.475,584.902,355.503,604.95,366.394z"/>
<path d="M35.284,680.638c14.194,4.4,28.546,8.298,43.007,11.712c0.168,0.04,0.338,0.075,0.506,0.115l10.221,44.917
	c1.271,5.584,6.943,10.11,12.669,10.11h37.42c5.726,0,11.398-4.526,12.669-10.11l6.939-30.496
	c20.967,2.766,42.033,4.847,63.132,6.414l5.799,24.111c1.339,5.568,7.067,10.081,12.793,10.081h40.73
	c5.726,0,11.454-4.513,12.793-10.081l4.887-20.322c22.155,0.617,44.319,0.877,66.482,0.844
	c105.966-0.156,211.698-7.297,317.573-10.524l7.215,30.001c1.339,5.568,7.066,10.081,12.793,10.081h40.73
	c5.726,0,11.454-4.513,12.793-10.081l7.76-32.269c13.209-0.396,26.771-0.815,40.212-1.239l8.059,33.508
	c1.339,5.568,7.067,10.081,12.793,10.081h40.73c5.727,0,11.454-4.513,12.793-10.081l8.712-36.226
	c16.755-0.564,30.47-1.035,39.186-1.336c5.723-0.198,11.497-4.861,12.857-10.424c7.498-30.67,32.592-123.772,35.222-171.387
	c0.396-7.132,0.584-13.93,0.584-20.425c0-10.639-0.552-20.341-1.493-29.415c-36.025,34.49-104.094,76.612-168.822,101.266
	c-79.291,30.215-138.492,54.754-165.223,93.795c-11.795,0.712-23.786,1.446-35.96,2.201l-72.467,4.857
	c-2.575,0.179-5.156,0.358-7.736,0.537c13.323-15.3,56.257-57.677,137.81-78.085c96.536-24.131,246.343-75.307,309.882-142.375
	c-1.711-9.367-7.045-17.846-9.616-25.594c-28.88,23.297-102.8,74.586-229.001,109.307
	c-131.758,36.223-244.776,60.566-302.212,142.772c-35.063,1.978-70.38,3.504-105.877,4.082
	c13.512-19.387,80.645-104.656,236.217-134.292c169.358-32.255,307.492-72.341,392.416-142.479
	c-8.834-17.856-17.844-30.617-27.702-42.479c-13.469-16.206-36.023-50.783-60.62-47.709c-12.471,1.56-18.627,12.18-24.087,22.188
	c-6.247,11.451-13.163,22.193-22.261,31.634c-17.868,18.541-41.451,31.514-65.96,38.956
	c-58.327,17.709-126.868-3.122-157.286-20.279c-19.919-11.253-48.055-17.134-68.337-3.721c-6.951,4.597-12.743,10.59-18.894,16.148
	c-2.047,1.848-4.198,3.674-6.379,5.492l31.889,40.629c4.354,5.4,3.456,13.344-1.953,17.668c-5.429,4.333-13.355,3.456-17.689-1.974
	l-32.244-41.057c-9.397,6.535-73.573,41.547-85.384,46.831l22.272,40.086c3.604,5.889,1.745,13.648-4.176,17.271
	c-5.941,3.625-13.667,1.756-17.322-4.187l-24.152-43.144c-22,9.034-44.371,17.011-66.768,24.989
	c-9.664,3.442-19.277,7.148-29.145,9.968c-13.074,3.736-26.146,7.476-39.231,11.176c-16.55,4.68-33.087,9.405-49.671,13.964
	c-11.055,3.039-22.133,5.842-33.278,8.531c-26.108,6.297-52.498,12.453-77.741,21.742c-16.683,6.14-35.423,14.147-44.43,30.505
	c-3.929,7.135-7.368,17.509-7.368,25.739c0,0.593,0.032,28.361,0.05,43.962C25.401,672.844,29.814,678.943,35.284,680.638z"/>
</svg>
