<?xml version="1.0" encoding="utf-8"?>
<!-- Generator: Adobe Illustrator 17.1.0, SVG Export Plug-In . SVG Version: 6.00 Build 0)  -->
<!DOCTYPE svg PUBLIC "-//W3C//DTD SVG 1.1//EN" "http://www.w3.org/Graphics/SVG/1.1/DTD/svg11.dtd">
<svg version="1.1" id="Capa_1" xmlns="http://www.w3.org/2000/svg" xmlns:xlink="http://www.w3.org/1999/xlink" x="0px" y="0px"
	 width="1000px" height="1000px" viewBox="0 0 1000 1000" enable-background="new 0 0 1000 1000" xml:space="preserve">
<g>
	<path d="M977.017,141.057h-950c-9.665,0-17.5,7.835-17.5,17.5v687.887c0,0.162,0.02,0.319,0.024,0.481
		c0.01,0.369,0.023,0.737,0.055,1.099c0.021,0.232,0.055,0.463,0.085,0.695c0.043,0.335,0.09,0.67,0.153,1
		c0.049,0.257,0.11,0.513,0.171,0.769c0.07,0.295,0.141,0.589,0.226,0.878c0.083,0.283,0.18,0.564,0.278,0.844
		c0.089,0.254,0.177,0.509,0.277,0.758c0.123,0.305,0.262,0.606,0.404,0.906c0.102,0.217,0.201,0.436,0.312,0.648
		c0.165,0.316,0.349,0.625,0.535,0.935c0.086,0.144,0.157,0.292,0.248,0.434c0.042,0.065,0.088,0.125,0.131,0.19
		c0.077,0.118,0.158,0.231,0.238,0.346c0.244,0.35,0.498,0.692,0.766,1.023c0.044,0.055,0.086,0.112,0.131,0.167
		c0.332,0.399,0.681,0.783,1.046,1.151c0.041,0.042,0.083,0.081,0.124,0.121c0.368,0.363,0.748,0.712,1.146,1.042
		c0.009,0.007,0.017,0.015,0.025,0.022c0.406,0.335,0.831,0.649,1.267,0.947c0.062,0.043,0.126,0.083,0.19,0.125
		c0.399,0.266,0.81,0.516,1.232,0.749c0.042,0.023,0.084,0.05,0.126,0.073c0.421,0.228,0.856,0.432,1.297,0.625
		c0.14,0.062,0.281,0.121,0.422,0.178c0.42,0.171,0.846,0.331,1.281,0.469c0.125,0.04,0.253,0.072,0.379,0.109
		c0.37,0.108,0.745,0.205,1.124,0.289c0.148,0.033,0.296,0.067,0.445,0.097c0.472,0.092,0.95,0.166,1.435,0.219
		c0.109,0.012,0.22,0.02,0.33,0.03c0.536,0.049,1.073,0.083,1.612,0.083c0.539,0,1.078-0.034,1.617-0.084
		c0.111-0.01,0.222-0.022,0.332-0.035c0.485-0.054,0.965-0.126,1.437-0.219c0.054-0.011,0.107-0.018,0.161-0.028
		c0.507-0.105,1.005-0.237,1.496-0.385c0.138-0.042,0.276-0.09,0.414-0.136c0.354-0.117,0.703-0.245,1.047-0.383
		c0.156-0.063,0.313-0.124,0.468-0.191c0.407-0.178,0.806-0.369,1.195-0.576c0.114-0.061,0.227-0.124,0.34-0.187
		c0.311-0.174,0.62-0.351,0.924-0.546l105.705-67.791c2.058-1.32,3.744-3,5.034-4.903h709.63c1.299,1.916,2.996,3.605,5.071,4.929
		l104.604,66.689c2.915,1.859,6.171,2.746,9.391,2.746c4.866,0,9.642-2.036,13.022-5.803c3.434-3.195,5.595-7.74,5.595-12.801
		V158.557C994.517,148.892,986.682,141.057,977.017,141.057z M123.919,763.554c-0.214,0.125-0.434,0.234-0.645,0.369l-78.758,50.508
		V199.397l76.103,72.86c1.019,0.976,2.133,1.785,3.3,2.466V763.554z M197.869,754.359H158.04v-25.559l37.303-37.303l32.694,32.694
		L197.869,754.359z M244.865,332.739l32.694,32.694l-32.694,32.694l-32.694-32.694L244.865,332.739z M233.729,283.911h22.273
		l-11.137,11.137L233.729,283.911z M347.944,332.739l32.694,32.694l-32.694,32.694l-32.694-32.694L347.944,332.739z
		 M336.808,283.911h22.273l-11.137,11.137L336.808,283.911z M451.023,332.739l32.694,32.694l-32.694,32.694l-32.694-32.694
		L451.023,332.739z M439.887,283.911h22.273l-11.137,11.137L439.887,283.911z M554.103,332.739l32.694,32.694l-32.694,32.694
		l-32.694-32.694L554.103,332.739z M542.966,283.911h22.273l-11.137,11.137L542.966,283.911z M657.182,332.739l32.694,32.694
		l-32.694,32.694l-32.694-32.694L657.182,332.739z M646.045,283.911h22.273l-11.137,11.137L646.045,283.911z M760.261,332.739
		l32.694,32.694l-32.694,32.694l-32.694-32.694L760.261,332.739z M749.124,283.911h22.273l-11.137,11.137L749.124,283.911z
		 M263.71,520.051l32.694-32.694l32.694,32.694l-32.694,32.694L263.71,520.051z M277.559,571.591l-32.694,32.694l-32.694-32.694
		l32.694-32.694L277.559,571.591z M347.944,538.897l32.694,32.694l-32.694,32.694l-32.694-32.694L347.944,538.897z M366.79,520.051
		l32.694-32.694l32.694,32.694l-32.694,32.694L366.79,520.051z M451.023,538.897l32.694,32.694l-32.694,32.694l-32.694-32.694
		L451.023,538.897z M469.869,520.051l32.694-32.694l32.694,32.694l-32.694,32.694L469.869,520.051z M554.102,538.897l32.694,32.694
		l-32.694,32.694l-32.694-32.694L554.102,538.897z M572.948,520.051l32.694-32.694l32.694,32.694l-32.694,32.694L572.948,520.051z
		 M657.181,538.897l32.694,32.694l-32.694,32.694l-32.694-32.694L657.181,538.897z M676.027,520.051l32.694-32.694l32.694,32.694
		l-32.694,32.694L676.027,520.051z M760.26,538.897l32.694,32.694l-32.694,32.694l-32.694-32.694L760.26,538.897z M727.566,468.512
		l32.694-32.693l32.693,32.693l-32.694,32.694L727.566,468.512z M708.721,449.666l-32.693-32.693l32.694-32.694l32.694,32.694
		L708.721,449.666z M689.875,468.512l-32.694,32.694l-32.694-32.694l32.694-32.693L689.875,468.512z M605.642,449.666
		l-32.693-32.693l32.694-32.694l32.694,32.694L605.642,449.666z M586.796,468.512l-32.694,32.694l-32.694-32.694l32.694-32.693
		L586.796,468.512z M502.562,449.666l-32.693-32.693l32.694-32.694l32.694,32.694L502.562,449.666z M483.717,468.512l-32.694,32.694
		l-32.694-32.694l32.694-32.693L483.717,468.512z M399.483,449.666l-32.693-32.693l32.694-32.694l32.694,32.694L399.483,449.666z
		 M380.638,468.512l-32.694,32.694l-32.694-32.694l32.694-32.693L380.638,468.512z M296.404,449.666l-32.693-32.693l32.694-32.694
		l32.694,32.694L296.404,449.666z M277.559,468.512l-32.694,32.694l-32.694-32.694l32.694-32.693L277.559,468.512z M193.325,449.666
		l-32.693-32.693l32.694-32.694l32.694,32.694L193.325,449.666z M226.019,520.051l-32.694,32.694l-32.694-32.694l32.694-32.694
		L226.019,520.051z M226.019,623.13l-30.676,30.676l-32.694-32.694l30.676-30.676L226.019,623.13z M244.865,641.976l32.694,32.694
		l-30.676,30.676l-32.694-32.694L244.865,641.976z M263.71,623.13l32.694-32.694l32.694,32.694l-32.694,32.694L263.71,623.13z
		 M347.944,641.976l32.694,32.694l-32.694,32.694L315.25,674.67L347.944,641.976z M366.79,623.13l32.694-32.694l32.694,32.694
		l-32.694,32.694L366.79,623.13z M451.023,641.976l32.694,32.694l-32.694,32.694l-32.694-32.694L451.023,641.976z M469.869,623.13
		l32.694-32.694l32.694,32.694l-32.694,32.694L469.869,623.13z M554.102,641.976l32.694,32.694l-32.694,32.694l-32.694-32.694
		L554.102,641.976z M572.948,623.13l32.694-32.694l32.694,32.694l-32.694,32.694L572.948,623.13z M657.181,641.976l32.694,32.694
		l-32.694,32.694l-32.694-32.694L657.181,641.976z M676.027,623.13l32.694-32.694l32.694,32.694l-32.694,32.694L676.027,623.13z
		 M760.26,641.976l30.676,30.676l-32.694,32.694l-30.676-30.676L760.26,641.976z M779.106,623.13l32.694-32.694l30.677,30.676
		l-32.694,32.694L779.106,623.13z M779.106,520.051l32.694-32.694l32.694,32.694L811.8,552.745L779.106,520.051z M779.106,416.973
		l32.694-32.694l32.694,32.694L811.8,449.666L779.106,416.973z M708.721,346.587l-32.694-32.694l29.982-29.982h5.423l29.982,29.982
		L708.721,346.587z M605.642,346.587l-32.694-32.694l29.982-29.982h5.423l29.982,29.982L605.642,346.587z M502.563,346.587
		l-32.694-32.694l29.982-29.982h5.423l29.982,29.982L502.563,346.587z M399.484,346.587l-32.694-32.694l29.982-29.982h5.423
		l29.982,29.982L399.484,346.587z M296.405,346.587l-32.694-32.694l29.982-29.982h5.423l29.982,29.982L296.405,346.587z
		 M193.326,346.587l-35.286-35.286v-27.391h37.997l29.982,29.982L193.326,346.587z M174.48,365.433l-16.44,16.439v-32.879
		L174.48,365.433z M174.479,468.512l-16.439,16.44v-32.879L174.479,468.512z M174.479,571.591l-16.439,16.44v-32.879
		L174.479,571.591z M176.497,672.652l-18.457,18.457v-36.914L176.497,672.652z M235.561,754.359l11.322-11.322l11.322,11.322
		H235.561z M300.948,754.359h-5.053l-30.167-30.167l30.676-30.676l32.694,32.694L300.948,754.359z M338.64,754.359l9.304-9.304
		l9.304,9.304H338.64z M404.027,754.359h-9.088l-28.15-28.15l32.694-32.694l32.694,32.694L404.027,754.359z M441.719,754.359
		l9.304-9.304l9.304,9.304H441.719z M507.106,754.359h-9.088l-28.15-28.15l32.694-32.694l32.694,32.694L507.106,754.359z
		 M544.798,754.359l9.304-9.304l9.304,9.304H544.798z M610.186,754.359h-9.088l-28.15-28.15l32.694-32.694l32.694,32.694
		L610.186,754.359z M647.877,754.359l9.304-9.304l9.304,9.304H647.877z M709.229,754.359h-5.053l-28.15-28.15l32.694-32.694
		l30.676,30.676L709.229,754.359z M746.921,754.359l11.322-11.322l11.322,11.322H746.921z M845.993,754.359h-38.737l-30.167-30.167
		l32.694-32.694l36.211,36.211V754.359z M845.993,690.018l-17.365-17.365l17.365-17.365V690.018z M845.993,586.938l-15.348-15.348
		l15.348-15.347V586.938z M845.993,483.859l-15.348-15.348l15.348-15.347V483.859z M845.993,380.78l-15.347-15.347l15.347-15.348
		V380.78z M845.993,312.395L811.8,346.587l-32.694-32.694l29.982-29.982h36.904V312.395z M859.368,246.827
		c-0.973,0.908-1.806,1.907-2.523,2.963H147.199c-0.679-0.999-1.467-1.944-2.375-2.813l-74.076-70.92h864.403L859.368,246.827z
		 M959.517,814.134l-78.797-50.236c-0.198-0.126-0.404-0.227-0.605-0.345V274.728c1.107-0.646,2.166-1.409,3.143-2.32l76.26-71.216
		V814.134z"/>
</g>
</svg>
