<?xml version="1.0" encoding="utf-8"?>
<!-- Generator: Adobe Illustrator 17.1.0, SVG Export Plug-In . SVG Version: 6.00 Build 0)  -->
<!DOCTYPE svg PUBLIC "-//W3C//DTD SVG 1.1//EN" "http://www.w3.org/Graphics/SVG/1.1/DTD/svg11.dtd">
<svg version="1.1" id="Capa_1" xmlns="http://www.w3.org/2000/svg" xmlns:xlink="http://www.w3.org/1999/xlink" x="0px" y="0px"
	 width="1000px" height="1000px" viewBox="0 0 1000 1000" enable-background="new 0 0 1000 1000" xml:space="preserve">
<g>
	<path d="M315.618,230.832c38.24-12.48,79.07-19.231,121.477-19.231c186.877,0,343.144,131.038,381.942,306.242l50.477,0.581
		c5.522,0.064,7.799-3.784,5.084-8.594l-51.6-91.424c-2.714-4.81-1.034-10.94,3.754-13.693l91-52.325
		c4.788-2.753,4.788-7.216,0-9.969l-91-52.325c-4.788-2.753-6.468-8.884-3.754-13.693l51.6-91.423
		c2.715-4.81,0.438-8.657-5.084-8.594l-105.056,1.21c-5.522,0.064-10.053-4.362-10.118-9.884l-1.245-105.044
		c-0.065-5.522-3.979-7.731-8.741-4.933l-90.583,53.224c-4.762,2.798-10.877,1.198-13.659-3.573l-52.908-90.744
		c-2.782-4.771-7.292-4.771-10.074,0l-52.907,90.744c-2.782,4.771-8.897,6.371-13.659,3.573l-90.583-53.224
		c-4.762-2.798-8.675-0.589-8.74,4.933l-1.246,105.044c-0.065,5.522-4.595,9.948-10.118,9.884l-105.057-1.21
		c-5.522-0.064-7.799,3.784-5.084,8.594L315.618,230.832z"/>
	<path d="M437.095,956.315c195.24,0,353.514-158.274,353.514-353.514c0-29.449-3.606-58.054-10.392-85.405
		c-38.201-153.978-177.331-268.109-343.122-268.109c-35.659,0-70.082,5.285-102.536,15.106
		C189.322,308.34,83.581,443.219,83.581,602.8C83.581,798.041,241.854,956.315,437.095,956.315z M753.101,631.537l2.641,2.43
		c0.934,0.859,2.033,1.483,3.206,1.887c-3.231,32.019-11.176,63.137-23.75,92.864c-3.97,9.386-8.365,18.535-13.161,27.442
		c-1.21-0.334-2.486-0.44-3.757-0.251L588.336,775.25l-59.644-77.725l21.373-65.778l18.288-56.285l91.235-29.977L753.101,631.537z
		 M452.095,373.385l113.772-63.714c1.12-0.627,2.064-1.491,2.816-2.495c36.247,16.147,68.917,38.612,97.17,66.865
		c3.842,3.842,7.572,7.769,11.199,11.772c-0.699,1.013-1.21,2.158-1.453,3.394L650.505,516.89l-94.412,31.021l-103.999-75.559
		V373.385z M508.463,720.444l56.723,73.918l-50.641,119.097c-0.503,1.182-0.721,2.443-0.702,3.699
		c-24.943,6.072-50.606,9.158-76.749,9.158s-51.806-3.086-76.749-9.158c0.019-1.255-0.199-2.516-0.702-3.699l-50.641-119.096
		l56.723-73.918H508.463z M208.335,374.041c28.252-28.253,60.923-50.717,97.17-66.864c0.24,0.32,0.493,0.63,0.772,0.918
		c0.597,0.615,1.281,1.15,2.044,1.577l113.773,63.714v98.966l-62.383,45.324l-41.616,30.235l-94.412-31.021l-25.095-127.683
		c-0.243-1.236-0.754-2.381-1.453-3.394C200.763,381.81,204.494,377.883,208.335,374.041z M152.153,756.159
		c-4.796-8.907-9.192-18.056-13.162-27.442c-12.574-29.727-20.519-60.845-23.75-92.864c1.173-0.403,2.272-1.027,3.207-1.887
		l96.153-88.482l91.234,29.977l39.661,122.064l-59.644,77.724L155.91,755.908C154.639,755.719,153.363,755.825,152.153,756.159z"/>
</g>
</svg>
