<?xml version="1.0" encoding="utf-8"?>
<!-- Generator: Adobe Illustrator 17.1.0, SVG Export Plug-In . SVG Version: 6.00 Build 0)  -->
<!DOCTYPE svg PUBLIC "-//W3C//DTD SVG 1.1//EN" "http://www.w3.org/Graphics/SVG/1.1/DTD/svg11.dtd">
<svg version="1.1" id="Capa_1" xmlns="http://www.w3.org/2000/svg" xmlns:xlink="http://www.w3.org/1999/xlink" x="0px" y="0px"
	 width="1000px" height="1000px" viewBox="0 0 1000 1000" enable-background="new 0 0 1000 1000" xml:space="preserve">
<g>
	<path d="M838.8,160c-43.7-43.7-94.6-78-151.3-102c-58.7-24.8-121-37.4-185.3-37.4C438,20.7,375.7,33.2,317,58.1
		c-56.7,24-107.6,58.3-151.3,102s-78,94.6-102,151.3c-24.8,58.7-37.4,121-37.4,185.3c0,64.2,12.6,126.6,37.4,185.3
		c24,56.7,58.3,107.6,102,151.3c43.7,43.7,94.6,78,151.3,102c58.7,24.8,121,37.4,185.3,37.4c64.2,0,126.6-12.6,185.3-37.4
		c56.7-24,107.6-58.3,151.3-102c43.7-43.7,78-94.6,102-151.3c24.8-58.7,37.4-121,37.4-185.3c0-64.2-12.6-126.6-37.4-185.3
		C916.8,254.6,882.5,203.8,838.8,160z M238.8,128.1c4.3-3.3,8.5-6.8,12.9-9.9c23.1-16.2,48.7-29.3,74.7-40.2
		c55.4-23.2,115.6-35.4,175.8-35.4c40.1,0,81.2,5.4,119.9,16c-15.3,6.2-34,18-65.4,44.8c-26.1-2.8-52.5-2.9-79-0.4
		c-34.6,3.3-69.4,11-103.4,23c-30.7,10.8-55,23.1-71.4,32.5c-25.1-9-57.5-19.6-73.5-24.8C231.9,134.5,237.1,129.4,238.8,128.1z
		 M672.4,247.1l-81.4,222.2l-195.3,37.5L234.3,340.1c10.9-75.6,62.7-142.6,62.7-142.6c0.3-0.2,34.1-24.6,88.3-43.5
		c31.6-11.1,63.8-18.2,95.9-21.2c26.2-2.4,52.3-2,78.1,1.1L672.4,247.1z M65.6,480.8c-5,32.3-6.1,65.8-3.5,99.5
		c-3.9-7.8-7-14.4-9.3-19.7c-3-20.9-4.5-42.3-4.5-64.1c0-67,14.5-130.7,40.6-188c-2.9,30-1.5,61.1,0.6,84.7
		C78.3,421.3,70.3,450.6,65.6,480.8z M105.1,653.9c-4.6-16.9-10-41.5-12.7-71c-3-33.3-2.1-66.4,2.9-98.1
		c3.8-24.3,9.9-47.9,18.3-70.6c32.9-27.8,76.5-44.1,100.6-51.6l158.4,163.6L356,705.5l-154.8,51.7
		C161.8,728.2,129.6,689.8,105.1,653.9z M575.5,913.5c-34.5,22.6-121.7,28-157.1,29.3c-39-7.3-76.9-19.8-112.6-37
		c-31.2-15-60.8-33.6-87.8-55.4c0.5-0.9-4.2-48.6-4-66l156.4-52.2l180.5,78.1l24.9,102.9C575.6,913.4,575.5,913.5,575.5,913.5z
		 M875.4,755.2c-26.9,38.8-59.1,74.9-97.8,102.3c-36.3,25.6-84.9,34.4-128.1,41.5c-3.3,0.5-44.6,7.3-44.9,5.9c0,0-24.9-103-24.9-103
		l127.1-132.3l168.3-15.5c2.6,26.8,6,65.9,8,89.8C880.5,747.7,878,751.5,875.4,755.2z M878,620.6c-0.6,1-1.2,2.1-1.8,3.3
		l-167.6,15.4l-90.2-157.8L700,258.8l115.2,7.3c24.5,20.5,46.2,43.3,64.6,67.9c23,30.9,40.9,64.8,53.1,100.7
		C920.1,545.9,890.6,601.3,878,620.6z M938.1,370.4c-9.9-19.1-21.5-37.5-34.6-55c-20.7-27.7-45.3-53.2-73.2-75.9
		c-5.1-25.3-19.1-65.1-56.7-106.9c0.7,0.5,1.4,1.1,2.1,1.6c2.3,1.7,4.5,3.5,6.8,5.2c25.9,20.4,49.5,43.5,70.4,68.9
		c38.8,47.3,68.1,102.2,85.3,161.1C938.1,369.8,938.1,370.1,938.1,370.4z"/>
</g>
</svg>
