<?xml version="1.0" encoding="utf-8"?>
<!-- Generator: Adobe Illustrator 17.1.0, SVG Export Plug-In . SVG Version: 6.00 Build 0)  -->
<!DOCTYPE svg PUBLIC "-//W3C//DTD SVG 1.1//EN" "http://www.w3.org/Graphics/SVG/1.1/DTD/svg11.dtd">
<svg version="1.1" id="Capa_1" xmlns="http://www.w3.org/2000/svg" xmlns:xlink="http://www.w3.org/1999/xlink" x="0px" y="0px"
	 width="1000px" height="1000px" viewBox="0 0 1000 1000" enable-background="new 0 0 1000 1000" xml:space="preserve">
<path d="M974,207.258H24c-8.284,0-15,6.716-15,15v555.483c0,5.845,3.396,11.158,8.7,13.613c5.309,2.455,11.555,1.604,16.009-2.179
	l88.7-75.319h753.182l88.7,75.319c2.765,2.348,6.22,3.566,9.712,3.566c2.135,0,4.284-0.456,6.297-1.387
	c5.305-2.455,8.7-7.768,8.7-13.613V222.258C989,213.974,982.284,207.258,974,207.258z M866.144,683.857h-35.307l-17.979-17.979
	l37.741-37.741l16.085,16.086C866.401,657.216,866.22,670.428,866.144,683.857z M223.906,237.258l18.252,18.252l-37.741,37.741
	l-37.741-37.741l18.252-18.252H223.906z M341.813,237.258l18.252,18.252l-37.741,37.741l-37.741-37.741l18.252-18.252H341.813z
	 M459.72,237.258l18.252,18.252l-37.741,37.741l-37.741-37.741l18.252-18.252H459.72z M577.627,237.258l18.252,18.252
	l-37.741,37.741l-37.741-37.741l18.252-18.252H577.627z M695.535,237.258l18.252,18.252l-37.741,37.741l-37.741-37.741
	l18.252-18.252H695.535z M813.442,237.258l18.252,18.252l-37.741,37.741l-37.741-37.741l18.252-18.252H813.442z M97.605,346.773
	l26.645,26.645l-16.888,16.888C104.374,375.053,101.116,360.539,97.605,346.773z M882.074,440.946l-29.167,29.167l-37.741-37.741
	l37.741-37.741l31.426,31.426C883.557,430.96,882.801,435.917,882.074,440.946z M115.865,440.515
	c-0.692-4.773-1.411-9.479-2.147-14.139l31.745-31.745l37.741,37.741l-37.741,37.741L115.865,440.515z M204.417,453.584
	l37.741,37.741l-37.741,37.741l-37.741-37.741L204.417,453.584z M225.63,432.372l37.741-37.741l37.741,37.741l-37.741,37.741
	L225.63,432.372z M322.324,453.584l37.741,37.741l-37.741,37.741l-37.741-37.741L322.324,453.584z M343.537,432.371l37.741-37.741
	l37.741,37.741l-37.741,37.741L343.537,432.371z M440.231,453.584l37.741,37.741l-37.741,37.741l-37.741-37.741L440.231,453.584z
	 M461.444,432.371l37.741-37.741l37.741,37.741l-37.741,37.741L461.444,432.371z M558.139,453.584l37.741,37.741l-37.741,37.741
	l-37.741-37.741L558.139,453.584z M579.352,432.371l37.741-37.741l37.741,37.741l-37.741,37.741L579.352,432.371z M676.046,453.584
	l37.741,37.741l-37.741,37.741l-37.741-37.741L676.046,453.584z M697.259,432.371L735,394.631l37.741,37.741L735,470.112
	L697.259,432.371z M793.953,453.584l37.741,37.741l-37.741,37.741l-37.741-37.741L793.953,453.584z M793.953,411.159l-37.741-37.741
	l37.741-37.741l37.741,37.741L793.953,411.159z M735,352.205l-37.741-37.741L735,276.723l37.741,37.741L735,352.205z
	 M713.787,373.418l-37.741,37.741l-37.741-37.741l37.741-37.741L713.787,373.418z M617.092,352.205l-37.741-37.741l37.741-37.741
	l37.741,37.741L617.092,352.205z M595.879,373.418l-37.741,37.741l-37.741-37.741l37.741-37.741L595.879,373.418z M499.185,352.205
	l-37.741-37.741l37.741-37.741l37.741,37.741L499.185,352.205z M477.972,373.418l-37.741,37.741l-37.741-37.741l37.741-37.741
	L477.972,373.418z M381.278,352.205l-37.741-37.741l37.741-37.741l37.741,37.741L381.278,352.205z M360.065,373.418l-37.741,37.741
	l-37.741-37.741l37.741-37.741L360.065,373.418z M263.371,352.205l-37.741-37.741l37.741-37.741l37.741,37.741L263.371,352.205z
	 M242.158,373.418l-37.741,37.741l-37.741-37.741l37.741-37.741L242.158,373.418z M145.463,352.205l-37.741-37.741l37.741-37.741
	l37.741,37.741L145.463,352.205z M128.218,566.159c-0.682-11.57-1.459-22.919-2.33-34.046l19.575-19.575l37.741,37.741
	l-35.433,35.433L128.218,566.159z M204.417,571.492l37.741,37.741l-35.433,35.433l-37.741-37.741L204.417,571.492z M225.63,550.279
	l37.741-37.741l37.741,37.741l-37.741,37.741L225.63,550.279z M322.324,571.492l37.741,37.741l-37.741,37.741l-37.741-37.741
	L322.324,571.492z M343.537,550.279l37.741-37.741l37.741,37.741l-37.741,37.741L343.537,550.279z M440.231,571.492l37.741,37.741
	l-37.741,37.741l-37.741-37.741L440.231,571.492z M461.444,550.279l37.741-37.741l37.741,37.741l-37.741,37.741L461.444,550.279z
	 M558.139,571.492l37.741,37.741l-37.741,37.741l-37.741-37.741L558.139,571.492z M579.352,550.279l37.741-37.741l37.741,37.741
	l-37.741,37.741L579.352,550.279z M676.046,571.492l37.741,37.741l-37.741,37.741l-37.741-37.741L676.046,571.492z M697.259,550.279
	L735,512.538l37.741,37.741L735,588.02L697.259,550.279z M793.953,571.492l35.433,35.433l-37.741,37.741l-35.433-35.433
	L793.953,571.492z M815.166,550.279l37.741-37.741l19.231,19.231c-0.891,11.364-1.686,22.959-2.38,34.784l-19.159,19.159
	L815.166,550.279z M874.12,373.418l26.149-26.149c-3.439,13.527-6.635,27.769-9.572,42.727L874.12,373.418z M852.907,352.205
	l-37.741-37.741l37.741-37.741l37.741,37.741L852.907,352.205z M124.25,255.51l-37.741,37.741l-8.382-8.383
	c-8.147-20.93-16.155-36.374-23.125-47.61h50.997L124.25,255.51z M131.323,644.586l16.448-16.448l37.741,37.741l-17.979,17.979
	h-35.677C131.781,670.552,131.602,657.462,131.323,644.586z M227.938,665.878l35.433-35.433l37.741,37.741l-15.671,15.671h-39.524
	L227.938,665.878z M343.537,668.186l37.741-37.741l37.741,37.741l-15.671,15.671h-44.14L343.537,668.186z M461.444,668.186
	l37.741-37.741l37.741,37.741l-15.671,15.671h-44.14L461.444,668.186z M579.352,668.186l37.741-37.741l37.741,37.741l-15.671,15.671
	h-44.14L579.352,668.186z M697.259,668.186L735,630.445l35.433,35.433l-17.979,17.979H712.93L697.259,668.186z M919.64,285.472
	l-7.779,7.779L874.12,255.51l18.252-18.252h49.142h1.484c-2.629,4.238-5.405,9.074-8.281,14.578
	C929.895,261.065,924.793,272.17,919.64,285.472z M39,745.326V270.298c6.033,12.146,12.679,27.959,19.308,48.329
	c35.295,108.463,43.271,261.489,43.581,373.298L39,745.326z M959,745.326l-62.889-53.401
	c0.311-111.809,8.286-264.835,43.581-373.298c6.629-20.37,13.275-36.183,19.308-48.329V745.326z"/>
</svg>
