<?xml version="1.0" encoding="utf-8"?>
<!-- Generator: Adobe Illustrator 17.1.0, SVG Export Plug-In . SVG Version: 6.00 Build 0)  -->
<!DOCTYPE svg PUBLIC "-//W3C//DTD SVG 1.1//EN" "http://www.w3.org/Graphics/SVG/1.1/DTD/svg11.dtd">
<svg version="1.1" id="Capa_1" xmlns="http://www.w3.org/2000/svg" xmlns:xlink="http://www.w3.org/1999/xlink" x="0px" y="0px"
	 width="1000px" height="1000px" viewBox="0 0 1000 1000" enable-background="new 0 0 1000 1000" xml:space="preserve">
<g>
	<path d="M773.559,225.286l-36.42-64.653c-2.711-4.812-7.105-4.812-9.816,0l-36.419,64.653c-2.711,4.812-8.734,6.388-13.454,3.519
		l-63.426-38.545c-4.72-2.868-8.532-0.716-8.516,4.807l0.221,74.211c0.017,5.523-4.446,9.882-9.967,9.736l-74.195-1.956
		c-5.521-0.146-7.738,3.603-4.953,8.371l26.719,45.741c2.786,4.769,9.521,8.635,15.044,8.635H798.12
		c8.716,0,15.781,7.065,15.781,15.781v229.574c0,5.523,3.826,12.325,8.546,15.193l27.992,17.011c4.72,2.868,8.532,0.716,8.516-4.807
		l-0.222-74.211c-0.016-5.523,4.446-9.882,9.967-9.736l74.195,1.956c5.521,0.146,7.738-3.602,4.953-8.371l-37.405-64.033
		c-2.786-4.769-1.13-10.809,3.698-13.49l64.824-36.003c4.828-2.682,4.828-7.029,0-9.711l-64.824-36.003
		c-4.828-2.682-6.484-8.721-3.698-13.49l37.405-64.033c2.786-4.769,0.568-8.517-4.953-8.371l-74.195,1.955
		c-5.521,0.146-9.983-4.214-9.967-9.736l0.222-74.211c0.017-5.523-3.796-7.675-8.516-4.807l-63.426,38.545
		C782.293,231.674,776.269,230.098,773.559,225.286z"/>
	<path d="M30.564,824.073c5.305,2.454,11.553,1.604,16.008-2.179l67.882-57.642h581.939l67.882,57.642
		c2.765,2.348,6.22,3.566,9.711,3.566c2.135,0,4.284-0.456,6.297-1.387c5.305-2.455,8.701-7.768,8.701-13.613V379.451
		c0-8.284-6.716-15-15-15H36.864c-8.284,0-15,6.716-15,15v431.009C21.864,816.305,25.26,821.618,30.564,824.073z M758.985,432.301
		v345.743l-42.067-35.721c0.307-85.753,6.472-202.456,33.193-285.664C753.098,447.357,756.089,439.293,758.985,432.301z
		 M743.963,394.451c-6.254,10.971-13.271,26-20.218,46.391c-23.519,69.031-35.884,167.696-36.789,293.41H123.892
		c-0.905-125.714-13.27-224.378-36.789-293.41c-6.947-20.391-13.964-35.42-20.218-46.391H743.963z M51.864,432.301
		c2.897,6.992,5.887,15.056,8.874,24.357c26.721,83.208,32.886,199.911,33.193,285.664l-42.067,35.721V432.301z"/>
	<path d="M610.668,567.551c42.203,0,76.416-34.213,76.416-76.416c0-42.203-34.213-76.416-76.416-76.416
		s-76.416,34.213-76.416,76.416C534.252,533.339,568.464,567.551,610.668,567.551z M546.317,493.705l17.601-16.197
		c0.744-0.684,1.189-2.043,0.994-3.035l-4.606-23.433c7.229-9.062,16.839-16.141,27.885-20.268l20.88,11.693
		c0.882,0.494,2.311,0.494,3.193,0l20.88-11.693c11.045,4.126,20.655,11.205,27.885,20.267l-4.606,23.433
		c-0.195,0.992,0.25,2.35,0.994,3.035l17.601,16.197c-0.454,11.505-3.937,22.24-9.677,31.435l-23.638,3.518
		c-1,0.149-2.131,1.023-2.526,1.953l-9.37,22.036c-6.049,1.886-12.478,2.903-19.14,2.903s-13.091-1.017-19.14-2.903l-9.37-22.036
		c-0.396-0.93-1.526-1.805-2.526-1.953l-23.638-3.518C550.254,515.946,546.771,505.211,546.317,493.705z"/>
	<path d="M591.912,514.825c0.312,0.961,1.385,1.74,2.395,1.74h32.72c1.011,0,2.083-0.779,2.395-1.74l10.111-31.119
		c0.312-0.961-0.097-2.222-0.915-2.816l-26.471-19.233c-0.818-0.594-2.143-0.594-2.961,0l-26.471,19.233
		c-0.818,0.594-1.227,1.855-0.915,2.816L591.912,514.825z"/>
</g>
</svg>
