<?xml version="1.0" encoding="utf-8"?>
<!-- Generator: Adobe Illustrator 17.1.0, SVG Export Plug-In . SVG Version: 6.00 Build 0)  -->
<!DOCTYPE svg PUBLIC "-//W3C//DTD SVG 1.1//EN" "http://www.w3.org/Graphics/SVG/1.1/DTD/svg11.dtd">
<svg version="1.1" id="Capa_1" xmlns="http://www.w3.org/2000/svg" xmlns:xlink="http://www.w3.org/1999/xlink" x="0px" y="0px"
	 width="1000px" height="1000px" viewBox="0 0 1000 1000" enable-background="new 0 0 1000 1000" xml:space="preserve">
<g>
	<path d="M462.927,565.824c-2.372-2.372-6.218-2.372-8.59,0l-19.439,19.439c-2.372,2.372-2.372,6.218,0,8.59l26.117,26.117
		l-26.117,26.117c-2.372,2.372-2.372,6.218,0,8.59l19.439,19.439c2.372,2.372,6.218,2.372,8.59,0L489.044,648l26.117,26.117
		c2.372,2.372,6.218,2.372,8.59,0l19.439-19.439c2.372-2.372,2.372-6.218,0-8.59l-26.117-26.117l26.117-26.117
		c2.372-2.372,2.372-6.218,0-8.59l-19.439-19.439c-2.372-2.372-6.218-2.372-8.59,0l-26.117,26.117L462.927,565.824z"/>
	<path d="M642.668,778.33l26.117,26.117l-26.117,26.117c-2.372,2.372-2.372,6.218,0,8.59l19.439,19.439
		c2.372,2.372,6.218,2.372,8.59,0l26.117-26.117l26.117,26.117c2.372,2.372,6.218,2.372,8.59,0l19.439-19.439
		c2.372-2.373,2.372-6.218,0-8.59l-26.117-26.117l26.117-26.117c2.372-2.372,2.372-6.218,0-8.59l-19.439-19.439
		c-2.372-2.372-6.218-2.372-8.59,0l-26.117,26.117l-26.117-26.117c-2.372-2.372-6.218-2.372-8.59,0l-19.439,19.439
		C640.296,772.112,640.296,775.958,642.668,778.33z"/>
	<path d="M249.039,714.493l19.439,19.439c2.372,2.372,6.218,2.372,8.59,0l26.117-26.117l26.117,26.117
		c2.372,2.372,6.218,2.372,8.59,0l19.439-19.439c2.372-2.372,2.372-6.218,0-8.59l-26.117-26.117l26.117-26.117
		c2.372-2.372,2.372-6.218,0-8.59l-19.439-19.439c-2.372-2.372-6.218-2.372-8.59,0l-26.117,26.117l-26.117-26.117
		c-2.372-2.372-6.218-2.372-8.59,0l-19.439,19.439c-2.372,2.372-2.372,6.218,0,8.59l26.117,26.117l-26.117,26.117
		C246.667,708.275,246.667,712.121,249.039,714.493z"/>
	<circle cx="453.53" cy="383.619" r="57.998"/>
	<circle cx="453.53" cy="862.445" r="57.998"/>
	<path d="M558.084,495.219c0.957,5.439,5.164,6.972,9.395,3.422l14.946-12.534c25.58,38.088,40.003,76.773,42.907,115.168
		c2.552,33.735-3.717,67.583-18.635,100.602c-26.145,57.872-69.209,92.96-71.738,94.984c-0.353,0.267-0.698,0.551-1.032,0.854
		c-6.002,5.419-6.632,14.625-1.419,20.807c2.955,3.504,7.158,5.312,11.423,5.312c3.304-0.001,6.645-1.086,9.47-3.309
		c2.073-1.632,51.105-40.706,80.779-106.616c16.937-37.62,24.019-76.35,21.049-115.113c-3.408-44.478-20.124-88.853-49.704-132.063
		l15.395-12.912c4.231-3.549,3.455-7.958-1.734-9.848l-65.527-23.864c-5.189-1.89-8.62,0.987-7.663,6.427L558.084,495.219z"/>
	<path d="M971.436,292.222c8.284,0,15-6.716,15-15s-6.716-15-15-15h-4.52H827.811c2.133-5.427,3.317-11.327,3.317-17.502
		c0-21.236-13.864-39.284-33.011-45.599V12.719h-30v186.402c-19.148,6.315-33.012,24.363-33.012,45.599
		c0,6.175,1.185,12.075,3.317,17.502H261.578c2.133-5.427,3.317-11.327,3.317-17.502c0-21.236-13.864-39.284-33.012-45.599V12.719
		h-30v186.402c-19.148,6.315-33.011,24.363-33.011,45.599c0,6.175,1.185,12.075,3.317,17.502H33.083h-4.52c-8.284,0-15,6.716-15,15
		s6.716,15,15,15h4.52v655.497h-4.52c-8.284,0-15,6.716-15,15s6.716,15,15,15h4.52h933.833h4.52c8.284,0,15-6.716,15-15
		s-6.716-15-15-15h-4.52V292.222H971.436z M772.735,229.967c6.083-4.308,14.917-4.251,20.944,0.135
		c6.027,4.386,8.798,12.774,6.57,19.887c-5.157,16.465-29.377,16.373-34.341-0.221c-0.491-1.64-0.717-3.344-0.7-5.048
		C765.265,239.003,768.049,233.285,772.735,229.967z M216.883,226.708c9.925,0,18.001,8.069,18.012,17.992
		c0.024,22.129-36.023,23.201-36.023,0.02C198.872,234.788,206.952,226.708,216.883,226.708z M936.917,947.719H63.083V292.222
		h873.833V947.719z"/>
</g>
</svg>
