<?xml version="1.0" encoding="utf-8"?>
<!-- Generator: Adobe Illustrator 17.1.0, SVG Export Plug-In . SVG Version: 6.00 Build 0)  -->
<!DOCTYPE svg PUBLIC "-//W3C//DTD SVG 1.1//EN" "http://www.w3.org/Graphics/SVG/1.1/DTD/svg11.dtd">
<svg version="1.1" id="Capa_1" xmlns="http://www.w3.org/2000/svg" xmlns:xlink="http://www.w3.org/1999/xlink" x="0px" y="0px"
	 width="1000px" height="1000px" viewBox="0 0 1000 1000" enable-background="new 0 0 1000 1000" xml:space="preserve">
<g>
	<path d="M971.4,269.4c8.3,0,15-6.7,15-15s-6.7-15-15-15h-4.5H823c2.3-5.4,3.6-11.3,3.6-17.5c0-19.2-12.3-35.6-29.4-41.8V73.5
		c0-8.3-6.7-15-15-15s-15,6.7-15,15v106.6c-17.1,6.2-29.4,22.6-29.4,41.8c0,6.2,1.3,12.1,3.6,17.5H258.6c2.3-5.4,3.6-11.3,3.6-17.5
		c0-19.2-12.3-35.6-29.4-41.8V73.5c0-8.3-6.7-15-15-15s-15,6.7-15,15v106.6c-17.1,6.2-29.4,22.6-29.4,41.8c0,6.2,1.3,12.1,3.6,17.5
		H33.1h-4.5c-8.3,0-15,6.7-15,15c0,8.3,6.7,15,15,15h4.5v655.5h-4.5c-8.3,0-15,6.7-15,15s6.7,15,15,15h4.5h933.8h4.5
		c8.3,0,15-6.7,15-15s-6.7-15-15-15h-4.5V269.4H971.4z M760.6,221.9c0-11.9,9.7-21.6,21.6-21.6c11.9,0,21.6,9.7,21.6,21.6
		c0,7.2-3.5,13.6-8.9,17.5h-25.4C764.1,235.5,760.6,229.1,760.6,221.9z M196.1,221.9c0-11.9,9.7-21.6,21.6-21.6s21.6,9.7,21.6,21.6
		c0,7.2-3.5,13.6-8.9,17.5h-25.4C199.7,235.5,196.1,229.1,196.1,221.9z M936.9,924.9H63.1V269.4h873.8L936.9,924.9L936.9,924.9z"/>
	<path d="M226.7,787.1h546.6c13.8,0,25-11.2,25-25V436.8c0-13.8-11.2-25-25-25H226.7c-13.8,0-25,11.2-25,25v325.3
		C201.7,775.9,212.9,787.1,226.7,787.1z M768.3,513.1H697v172.7h71.3v71.3H515V649.6c21.6-6.5,37.4-26.5,37.4-50.2
		s-15.8-43.7-37.4-50.2V441.8h253.3V513.1z M231.7,441.8H485v107.5c-21.6,6.5-37.4,26.5-37.4,50.2s15.8,43.7,37.4,50.2v107.5H231.7
		v-71.3h71.8V513.1h-71.8L231.7,441.8L231.7,441.8z"/>
</g>
</svg>
