<?xml version="1.0" encoding="utf-8"?>
<!-- Generator: Adobe Illustrator 17.1.0, SVG Export Plug-In . SVG Version: 6.00 Build 0)  -->
<!DOCTYPE svg PUBLIC "-//W3C//DTD SVG 1.1//EN" "http://www.w3.org/Graphics/SVG/1.1/DTD/svg11.dtd">
<svg version="1.1" id="Capa_1" xmlns="http://www.w3.org/2000/svg" xmlns:xlink="http://www.w3.org/1999/xlink" x="0px" y="0px"
	 width="1000px" height="1000px" viewBox="0 0 1000 1000" enable-background="new 0 0 1000 1000" xml:space="preserve">
<g>
	<path d="M771,499c-17.5-17.5-37.9-31.3-60.6-40.9c-23.5-10-48.5-15-74.2-15h-14.6c-1.9-4.1-4.1-8.1-6.5-12.1
		c-0.2-0.4-2-3.2-3.3-3.8c-1.3-0.5-4.4-0.2-5.7,1.4c-0.7,0.9-0.4,3.2-0.1,4.6c0.6,3.3,1.3,6.6,1.9,9.9c1.2,6.4,2.4,12.7,2.5,19.1
		c0.1,2.5,0,5-0.3,7.5c-0.1,1.1-0.3,2.3-0.5,3.5c-0.8,4.2-2.2,8.4-4.5,12.8c-0.5,0.9-1,1.9-1.6,2.9c-2.3,3.1-4.9,6.5-7.8,10.1
		c-16.9,20.7-46,49.3-92.2,77.6c-1,0.6-1.9,1.2-2.9,1.8c-1,0.6-2.1,1.3-3.2,2c-1.3,0.8-2.6,1.7-3.8,2.6c-0.7,0.5-1.4,1-2.1,1.5
		c-2,1.5-3.9,3.1-5.6,4.7c-1.2,1.2-2.1,2.6-2.8,4.1c-1.5,3.3-1.8,7.2-1.8,10.9c0,0.3,0,0.6,0,0.9c0,0.5,0,1,0,1.5
		c0,1.1,0.1,3.4,0.1,6.6c0,2.2,0,4.9,0,7.9c0.1,23,0,65.8,0,85.3c0,6.1,0,12.3,0,18.4c0,5.7,4.2,10.3,9.4,10.3h7.8
		c5.2,0,9.4-4.6,9.4-10.3c0,0,0-109.6,0-109.8c0-5,2.2-8.7,5.4-11.7c3.4-3.2,7.8-5.7,11.8-7.9c7.9-4.4,16.8-9.7,26.1-15.5
		c14.8-9.3,30.7-20.2,45.3-32.1c2.1-1.7,4.9-2.9,7.9-3.5c0.2-0.1,0.5-0.1,0.8-0.1c0.5-0.1,1.1-0.1,1.6-0.1c2.9,0,6.5,0.8,9.9,1.7
		c2.1,0.6,4.1,1.2,5.8,1.8l9.2,3c3.8,1.2,9,3.2,12.2,3.2c1.2,0,2.2-0.3,2.7-1c0,0,0,0,0,0c1.3-0.8,2-2.3,1.4-4.3
		c-6-17.7-8.8-36.4-12.3-54.9c-1-5.1-2-10.1-3.1-15.1c-0.4-1.7-0.8-3.3-1.2-5h4.5c88.8,0,160.7,72,160.7,160.7v244.3
		c0,44.4-151.2,66.6-302.4,66.6s-302.4-22.2-302.4-66.6V633.8c0-88.8,72-160.7,160.7-160.7h5.8c-0.5,2.1-1,4.2-1.4,6.3
		c-1,4.7-2,9.5-2.8,14.3c-3,16.2-5.6,32.5-10.4,48.2l-1.8,4.8c-1.7,4.2-0.5,7,2.8,7c0.7,0,1.6-0.1,2.5-0.4l24.6-8l3.6-1.2
		c1.3-0.4,2.8-0.6,4.4-0.6c1.2,0,2.4,0.1,3.6,0.3c3.2,0.6,6.3,1.9,8.5,3.7c14.5,11.9,30.3,22.7,45,32c10.9,6.9,21.3,12.9,30.1,17.8
		c0.3-2.2,0.7-4.5,1.4-6.8c1.1-3.4,2.8-6.9,5.6-10c0.5-0.5,0.9-1,1.4-1.6c1.3-1.3,2.7-2.6,4.3-3.9c-43.5-27.6-70.6-56.1-86.5-76.5
		c-3.5-4.5-6.5-8.6-9-12.3c-0.2-0.3-0.3-0.7-0.5-1c-1.8-4.1-2.9-8.1-3.5-12.1c-0.2-1.1-0.3-2.2-0.4-3.4c-0.2-2.5-0.3-5-0.2-7.5
		c0.2-6.4,1.3-12.8,2.5-19.2c0.7-3.7,1.4-7.3,2.1-10.9c0.2-1.4-0.2-2.6-0.9-3.5c-1.3-1.6-4.4-2-5.6-1.5c-0.7,0.3-1.4,0.8-1.9,1.6
		c-0.7,1.1-1.4,2.2-2,3.3c-2.1,3.6-3.9,7.2-5.6,10.9h-15.7c-25.7,0-50.7,5-74.2,15c-22.7,9.6-43.1,23.4-60.6,40.9
		s-31.3,37.9-40.9,60.6c-10,23.5-15,48.5-15,74.2v244.3c0,9,2.5,22.6,14.6,35.8c6.9,7.6,16,14.1,27.9,20.1
		c18.4,9.3,44.1,17.2,76.2,23.4c56.7,11.1,132.6,17.2,213.6,17.2s157-6.1,213.6-17.2c32.2-6.3,57.8-14.2,76.2-23.4
		c11.9-6,21-12.5,27.9-20.1c12.1-13.3,14.6-26.8,14.6-35.8V633.8c0-25.7-5-50.7-15-74.2C802.3,536.9,788.5,516.5,771,499z"/>
	<path d="M336.2,321.4c3.8,9,7,18.9,13.3,26.4c4.4,5.3,11.3,9,18.2,10.1c16,25.6,27.7,55.1,29.8,85.2c0.5,6.9,0.4,13.8-0.2,20.8
		c-0.3,3.1-0.6,6.2-0.9,9.2c-0.2,1.5-0.3,3-0.5,4.5c14.5,21.4,43.8,55.9,96.8,88.5c0.1-0.1,0.2-0.1,0.2-0.2
		c28.4-17.1,53.1-36.1,73.4-56.4c12.6-12.5,21.1-23.3,26.6-31c-0.2-1.8-0.4-3.6-0.6-5.4c-0.3-3.1-0.6-6.1-0.9-9.2
		c-0.6-6.9-0.6-13.9-0.2-20.8c2.1-30,13.8-59.6,29.8-85.2c6.9-1,13.8-4.8,18.2-10.1c6.3-7.6,9.5-17.5,13.3-26.4
		c4.8-11.5,9.8-22.9,14.4-34.4c7.1-17.8,10.7-40.3-5.7-54.3c-4.5-3.8-10.5-5.7-16.3-5.7c-0.1,0-0.3,0-0.4,0c0,0,0,0,0,0
		c-0.7,0-1.4-1-2.1-2.6c0.2-28,2.7-57.4-1.2-85c-2.3-16.6-7.8-32.7-14.8-47.9c-16.2-34.9-42.9-56-79.7-67
		c-17.1-5.1-34.8-7.9-52.3-8.1c-0.1,0-0.2,0-0.3,0c-0.1,0-0.2,0-0.3,0c-17.5,0.2-35.1,3-52.3,8.1c-36.8,11-63.4,32.1-79.7,67
		c-7.1,15.2-12.5,31.2-14.8,47.9c-3.9,27.6-1.4,57-1.2,85c-0.7,1.6-1.4,2.6-2.1,2.6c0,0,0,0,0,0c-0.1,0-0.3,0-0.4,0
		c-5.9,0-11.8,1.9-16.3,5.7c-16.5,14-12.8,36.5-5.7,54.3C326.4,298.6,331.4,310,336.2,321.4z"/>
</g>
</svg>
