<?xml version="1.0" encoding="utf-8"?>
<!-- Generator: Adobe Illustrator 17.1.0, SVG Export Plug-In . SVG Version: 6.00 Build 0)  -->
<!DOCTYPE svg PUBLIC "-//W3C//DTD SVG 1.1//EN" "http://www.w3.org/Graphics/SVG/1.1/DTD/svg11.dtd">
<svg version="1.1" id="Capa_1" xmlns="http://www.w3.org/2000/svg" xmlns:xlink="http://www.w3.org/1999/xlink" x="0px" y="0px"
	 width="1000px" height="1000px" viewBox="0 0 1000 1000" enable-background="new 0 0 1000 1000" xml:space="preserve">
<g>
	<path d="M965.399,199.747H38.601c-6.407,0-11.601,4.619-11.601,10.316v584.875c0,5.698,5.194,10.316,11.601,10.316h926.798
		c6.407,0,11.601-4.619,11.601-10.316V210.062C977,204.365,971.806,199.747,965.399,199.747z M926,784.651h-39.202
		c-5.128,0-9.285-4.157-9.285-9.285s4.157-9.285,9.285-9.285H926c5.128,0,9.285,4.157,9.285,9.285S931.128,784.651,926,784.651z
		 M940.099,737.393c0,4.838-4.791,8.761-10.7,8.761H74.601c-5.91,0-10.7-3.922-10.7-8.761V245.098c0-4.838,4.791-8.761,10.7-8.761
		h854.798c5.91,0,10.7,3.922,10.7,8.761V737.393z"/>
	<path d="M502,269.256c-122.602,0-221.989,99.388-221.989,221.99c0,122.601,99.388,221.989,221.989,221.989
		s221.989-99.388,221.989-221.989C723.989,368.644,624.602,269.256,502,269.256z M686.282,569.083
		c-2.683,6.342-5.684,12.507-8.976,18.494l-85.148,12.674c-2.904,0.432-6.189,2.973-7.338,5.674l-33.695,79.243
		c-15.945,4.03-32.377,6.066-49.126,6.066s-33.181-2.037-49.126-6.066l-33.695-79.243c-1.149-2.702-4.434-5.242-7.338-5.674
		l-85.148-12.674c-3.292-5.987-6.293-12.152-8.976-18.494c-8.001-18.917-12.962-38.749-14.841-59.161l63.315-58.264
		c2.161-1.988,3.453-5.935,2.887-8.816l-16.59-84.41c2.611-2.933,5.303-5.806,8.098-8.601
		c17.879-17.879,38.621-32.005,61.664-42.033l75.111,42.063c2.562,1.435,6.715,1.435,9.276,0l75.111-42.063
		c23.043,10.028,43.785,24.154,61.664,42.033c2.795,2.795,5.487,5.668,8.098,8.601l-16.59,84.41
		c-0.566,2.881,0.726,6.828,2.887,8.816l63.315,58.264C699.244,530.334,694.284,550.166,686.282,569.083z"/>
	<path d="M583.2,461.482l-76.899-55.871c-2.375-1.726-6.226-1.726-8.602,0L420.8,461.482c-2.375,1.726-3.565,5.388-2.658,8.18
		l29.373,90.401c0.907,2.792,4.023,5.056,6.959,5.056h95.053c2.936,0,6.051-2.264,6.958-5.056l29.373-90.401
		C586.766,466.871,585.576,463.208,583.2,461.482z"/>
</g>
</svg>
