<?xml version="1.0" encoding="utf-8"?>
<!-- Generator: Adobe Illustrator 17.1.0, SVG Export Plug-In . SVG Version: 6.00 Build 0)  -->
<!DOCTYPE svg PUBLIC "-//W3C//DTD SVG 1.1//EN" "http://www.w3.org/Graphics/SVG/1.1/DTD/svg11.dtd">
<svg version="1.1" id="Capa_1" xmlns="http://www.w3.org/2000/svg" xmlns:xlink="http://www.w3.org/1999/xlink" x="0px" y="0px"
	 width="1000px" height="1000px" viewBox="0 0 1000 1000" enable-background="new 0 0 1000 1000" xml:space="preserve">
<g>
	<path d="M354.9,266c-5.8-0.1-11.6,1.6-16,5.1c-15.8,12.4-12.3,32.4-5.5,48.1c4.4,10.2,9.2,20.4,13.8,30.5
		c3.6,7.9,6.7,16.7,12.7,23.4c4.3,4.7,10.9,8.1,17.6,9c0.4,1.3,0.8,2.5,1,3.8c4.1,24.4,17.7,50.3,35.3,68.9
		c9.2,9.7,25.5,21,24.3,35.8c-0.6,6.8-2.9,15.2-10.6,17.2c-5.6,1.5-11.7,0.8-17.3,2.2c0,0.3-3.1,18.8-3.6,22.9
		c-0.8,5.9-1,11.9,0.3,17.7c1.9,8.8,9.2,16.4,14.9,23.2c5.7,6.7,11.7,13.2,18,19.4c16.3,16,34.5,30.1,53.7,42.4
		c2.7,1.8,5.4,3.5,8.2,5.1c0.2,0.1,0.3,0.2,0.5,0.3c33.4-20.3,66-46,89.5-77.6c7-9.4,8.3-19.1,6.8-30.6c-0.5-4.1-1.3-8.4-2.2-13
		c-0.4-2.1-1.4-9.5-1.4-9.7c-5.9-1.6-12.1-0.8-18-2.4c-7.6-2-10-10.5-10.6-17.2c-1.2-14.8,15.1-26.1,24.3-35.8
		c17.5-18.5,31.2-44.5,35.3-68.9c0.2-1.3,0.6-2.5,1-3.8c6.7-0.9,13.4-4.3,17.6-9c6.1-6.7,9.1-15.5,12.7-23.4
		c4.6-10.2,9.4-20.3,13.8-30.5c6.8-15.8,10.3-35.8-5.5-48.1c-4.4-3.5-10.3-5.1-16-5.1c-4.1,0.1-8.9-32.5-9.6-35.7
		c-4.2-21.6-3.8-41.1-2.3-63c0.1-1.6-1.8-2.2-3.2-1.7l-10,4.1c-6.4-22.3-12.7-44.7-19.1-67c-0.3-1.1-2-1.9-3.1-1.2
		c-5.2,3.6-10.5,7.1-15.7,10.7c-9.5-20.6-18.9-41.3-28.4-61.9c-0.6-1.3-3-1.3-3.6,0c-3.6,7.3-7.1,14.7-10.7,22
		c-19.3-15.3-33-35.3-39.6-58.1c-0.3-1-1.3-1.4-2.2-1.4c-1-0.1-2,0.4-2.2,1.4c-6.5,22.8-20.3,42.8-39.6,58.1
		c-3.6-7.3-7.1-14.7-10.7-22c-0.6-1.3-3-1.3-3.6,0c-9.5,20.6-18.9,41.3-28.4,61.9c-5.2-3.6-10.5-7.1-15.7-10.7
		c-1.1-0.8-2.8,0-3.1,1.2c-6.4,22.3-12.7,44.7-19.1,67l-10-4.1c-1.3-0.5-3.3,0.1-3.2,1.7c1.5,21.9,1.9,41.4-2.3,63
		C363.8,233.5,359,266.1,354.9,266z"/>
	<path d="M216.1,684.8V789c0,8.3,6.7,15,15,15s15-6.7,15-15V684.8c0-52.2,43.5-94.7,97-94.7h4.6h0.2c0.1,0,0.2,0,0.4,0
		c0.2-0.9,0.4-1.9,0.5-2.8c0.7-3.9,4.1-22,5.1-27.2h-10.9C273.1,560.1,216.1,616.1,216.1,684.8z"/>
	<path d="M218.7,563c-16.3,16.3-29.1,35.3-38.1,56.4c-9.3,21.9-14,45.2-14,69.1V959c0,17.6,14.4,32,32,32h607.2
		c17.6,0,32-14.4,32-32V688.5c0-24-4.7-47.2-14-69.1c-8.9-21.2-21.7-40.1-38.1-56.4c-16.3-16.3-35.3-29.1-56.4-38.1
		c-21.9-9.3-45.2-14-69.1-14h-24.7c3.6,7.2,6.5,14.6,8.8,22h15.9c85.9,0,155.6,69.7,155.6,155.6V959c0,5.5-4.5,10-10,10H198.7
		c-5.5,0-10-4.5-10-10V688.5c0-85.9,69.7-155.6,155.6-155.6h16.5c2.3-7.4,5.2-14.8,8.8-22h-25.3c-24,0-47.2,4.7-69.1,14
		C254,533.9,235,546.7,218.7,563z"/>
	<path d="M773.5,804c8.3,0,15-6.7,15-15V684.8c0-68.7-57-124.7-127-124.7h-10.3c1,5.2,4.7,25.2,5.6,30h4.6c53.5,0,97,42.5,97,94.7
		V789C758.5,797.2,765.2,804,773.5,804z"/>
	<path d="M644.9,836.6c24.2,0,43.8-23,43.8-47.3v-33.6h-87.7v33.6C601.1,813.6,620.7,836.6,644.9,836.6z"/>
	<path d="M575.4,750v37.5c0,39.9,32.5,74.8,69.5,74.8s69.5-35,69.5-74.8V750c0-9.6-7.9-17.5-17.5-17.5h-104
		C583.3,732.5,575.4,740.3,575.4,750z M699.4,750v37.5c0,14.8-5.9,29.9-16.2,41.5c-10.6,11.8-24.1,18.3-38.2,18.3
		c-14.1,0-27.7-6.5-38.2-18.3c-10.3-11.5-16.2-26.7-16.2-41.5V750c0-1.4,1.1-2.5,2.5-2.5h104C698.3,747.5,699.4,748.6,699.4,750z"/>
	<path d="M395.9,511.1c0,0,0-0.1,0-0.1c0.4-2.8-1.8-4.6-3.9-4.9c-0.3-0.1-0.6-0.1-0.9-0.1c-1.2,0-2.4,0.5-3.3,1.8
		c-0.7,1-1.3,2.1-1.9,3.1c-4.2,7.1-7.4,14.4-10,22c-3.1,8.8-5.3,18-7.2,27.2c-0.7,3.3-1.3,6.7-2,10.1c-1.2,6.6-2.4,13.3-3.7,19.9
		c-1.3,6.7-2.7,13.3-4.4,19.8c-0.7,2.9-1.5,5.7-2.4,8.5l-1.4,3.5c-1.6,4.1-0.4,6.7,2.7,6.7c0.7,0,1.5-0.1,2.4-0.4l25.5-8.2l1.8-0.6
		c1.3-0.4,2.8-0.6,4.3-0.6c4.1,0,8.7,1.5,11.7,3.9c3.2,2.6,6.5,5.2,9.8,7.7c21.8,16.6,45.2,30.6,62.5,40.3c0.3-5,2.1-9.9,4.9-14.1
		c2-2.9,4.4-5.5,7.3-7.5c-42.3-26.9-68.5-54.6-83.7-74.4c-2.8-3.6-5.2-7-7.4-10c-0.5-1-0.9-2-1.3-3c-1.8-4.6-2.9-9.2-3.3-13.7
		c-0.5-5-0.3-10,0.2-15C393,525.7,394.6,518.5,395.9,511.1z"/>
	<path d="M650.2,622.3c-1.3-3.9-2.5-7.9-3.5-11.9c-1.7-6.7-6.8-32.7-7.9-38.9c-0.7-3.8-1.4-7.6-2.2-11.3c-1.9-9.2-4.1-18.3-7.2-27.2
		c-2.6-7.6-5.8-14.9-10-22c-0.6-1-1.2-2.1-1.9-3.1c-0.8-1.3-2-1.8-3.3-1.8c-0.3,0-0.6,0-0.9,0.1c-2.2,0.2-4.3,2.1-3.9,4.9
		c0,0,0,0.1,0,0.1c1.3,7.4,2.9,14.7,3.6,21.9c0.6,5,0.7,10,0.2,15.1c-0.6,5.7-2.1,11.5-5.1,17.4c-1.3,2.6-3.6,5-5.4,7.3
		c-2.2,2.8-4.4,5.6-6.7,8.3c-5.5,6.5-11.3,12.8-17.3,18.8c-16.2,17.7-37.2,36.7-71.2,54.2c-7.5,3.9-17.7,8.1-17.7,18.2v121.9
		c0,5.5,4.1,10,9.1,10h7.5c5,0,9.1-4.5,9.1-10V687.8c0-5.5,3.7-11.9,8.2-14.3c17-9.2,41.7-23.7,65.1-41.1c4.2-3.2,8.4-6.4,12.5-9.8
		c2.9-2.4,7.5-3.9,11.7-3.9c1.5,0,3,0.2,4.3,0.6l27.4,8.8c0.9,0.3,1.7,0.4,2.4,0.4c2.5,0,4.2-1.6,3.8-4.3
		C650.6,623.4,650.4,623,650.2,622.3z"/>
</g>
</svg>
