<?xml version="1.0" encoding="utf-8"?>
<!-- Generator: Adobe Illustrator 17.1.0, SVG Export Plug-In . SVG Version: 6.00 Build 0)  -->
<!DOCTYPE svg PUBLIC "-//W3C//DTD SVG 1.1//EN" "http://www.w3.org/Graphics/SVG/1.1/DTD/svg11.dtd">
<svg version="1.1" id="Capa_1" xmlns="http://www.w3.org/2000/svg" xmlns:xlink="http://www.w3.org/1999/xlink" x="0px" y="0px"
	 width="1000px" height="1000px" viewBox="0 0 1000 1000" enable-background="new 0 0 1000 1000" xml:space="preserve">
<g>
	<path d="M634.576,168.72l-9.985,4.077c-6.358-22.343-12.717-44.685-19.075-67.028c-0.319-1.121-1.983-1.917-3.087-1.163
		c-5.225,3.57-10.45,7.14-15.675,10.71c-9.46-20.627-18.919-41.253-28.379-61.88c-0.593-1.294-3.021-1.254-3.629,0
		c-3.56,7.338-7.12,14.677-10.679,22.015c-19.294-15.25-33.032-35.329-39.554-58.095c-0.279-0.973-1.291-1.433-2.243-1.372
		c-0.952-0.061-1.964,0.399-2.243,1.372c-6.522,22.766-20.26,42.845-39.554,58.095c-3.56-7.338-7.12-14.677-10.679-22.015
		c-0.608-1.254-3.036-1.294-3.629,0c-9.46,20.627-18.919,41.254-28.379,61.88c-5.225-3.57-10.45-7.14-15.675-10.71
		c-1.104-0.754-2.768,0.042-3.087,1.163c-6.358,22.343-12.717,44.685-19.075,67.028l-9.985-4.077
		c-1.333-0.544-3.272,0.059-3.162,1.679c1.484,21.894,1.909,41.428-2.339,62.978c-0.629,3.189-5.459,35.735-9.573,35.683
		c-5.758-0.073-11.583,1.588-16.02,5.067c-15.78,12.371-12.26,32.386-5.497,48.139c4.398,10.245,9.213,20.352,13.827,30.515
		c3.608,7.948,6.678,16.718,12.744,23.422c4.254,4.701,10.918,8.065,17.618,8.962c0.428,1.258,0.785,2.533,0.997,3.787
		c4.122,24.369,17.741,50.322,35.279,68.865c9.177,9.703,25.544,20.997,24.322,35.793c-0.551,6.678-2.891,14.983-10.289,17.125
		h-14.216c0.075-0.406,0.149-0.807,0.225-1.218c0.369-1.986,0.75-4.039,1.112-6.117c0.884-5.062-0.317-10.086-3.38-14.145
		c-2.935-3.889-7.331-6.486-12.159-7.21c-1.062-0.188-2.138-0.283-3.21-0.283c-6.17,0-11.85,3.143-15.194,8.407
		c-4.247,6.686-7.64,13.568-10.433,20.565h-27.989c-87.512,0-158.455,70.943-158.455,158.455v298.772c0,5.523,4.477,10,10,10
		h616.197c5.523,0,10-4.477,10-10V669.191c0-87.512-70.943-158.455-158.455-158.455h-26.401
		c-2.792-6.998-6.186-13.879-10.432-20.565c-3.344-5.264-9.024-8.407-15.193-8.407h-0.001c-1.071,0-2.148,0.095-3.21,0.283
		c-4.827,0.724-9.223,3.321-12.159,7.21c-3.063,4.059-4.263,9.082-3.38,14.146c0.362,2.077,0.743,4.13,1.112,6.116
		c0.076,0.411,0.15,0.812,0.225,1.218h-15.804c-7.397-2.142-9.737-10.447-10.289-17.125c-1.222-14.796,15.145-26.09,24.322-35.793
		c17.538-18.543,31.157-44.496,35.279-68.865c0.212-1.254,0.569-2.529,0.997-3.787c6.7-0.897,13.365-4.261,17.618-8.962
		c6.066-6.704,9.136-15.474,12.744-23.422c4.614-10.164,9.429-20.27,13.827-30.515c6.763-15.753,10.284-35.768-5.497-48.139
		c-4.438-3.479-10.262-5.14-16.02-5.067c-4.114,0.052-8.945-32.494-9.573-35.683c-4.248-21.55-3.823-41.085-2.339-62.978
		C637.848,168.779,635.909,168.176,634.576,168.72z M279.914,568.61v374.835h-35.306V573.606c0,0,10.659-17.32,35.306-27.979V568.61
		z M724.625,553.621v-7.994c24.647,10.658,35.306,27.979,35.306,27.979v369.839h-35.306V553.621z M421.19,642.451v300.993h-35.307
		V631.912v-10.021l10.868-3.512c0.004,0,0.008,0,0.012,0c0.804,0,16.911,12.026,24.426,17.297V642.451z M476.548,653.336
		c-15.515-8.643-64.281-42.032-68.599-45.561c-2.824-2.307-7.219-3.707-11.185-3.707c-1.454,0-2.85,0.188-4.09,0.589l-6.791,2.195
		l-19.397,6.269c-0.862,0.279-1.64,0.411-2.321,0.411c-2.97,0-4.121-2.519-2.552-6.443c0,0,7.765-29.925,10.229-43.444
		c3.305-18.135,6.725-36.198,14.336-52.908c2.003-4.398,4.29-8.705,6.949-12.892c0.737-1.16,1.905-1.672,3.117-1.689
		c2.477-0.036,5.135,1.996,4.647,4.787c-0.576,3.299-1.205,6.559-1.79,9.794c-0.787,4.351-1.492,8.659-1.884,12.959
		c-0.855,9.386-0.206,18.74,4.409,28.448c1.962,2.834,4.24,5.968,6.841,9.34c3.584,4.647,7.794,9.753,12.721,15.206
		c15.046,16.655,36.713,36.481,67.09,55.909C481.647,637.435,477.161,645.216,476.548,653.336z M618.375,943.444h-35.306v-80.97
		c5.784,1.397,11.703,2.127,17.653,2.127s11.869-0.73,17.653-2.127V943.444z M654.046,745.861v30.844
		c0,23.261-14.9,45.883-35.672,54.368c-5.527,2.258-11.464,3.528-17.653,3.528c-6.189,0-12.127-1.27-17.653-3.528
		c-20.772-8.486-35.671-31.107-35.671-54.368v-30.844c0-5.523,4.477-10,10-10h25.671h35.306h25.672
		C649.569,735.861,654.046,740.338,654.046,745.861z M583.068,705.861v-69.312c7.929-5.528,15.856-11.42,23.451-17.622
		c0.394-0.231,11.856,2.565,11.856,2.565v84.37H583.068z M583.068,578.567c5.201-5.569,9.678-10.808,13.488-15.587
		c2.87-3.601,5.371-6.945,7.519-9.969c4.197-8.412,5.373-16.551,5.122-24.667c-0.181-5.85-1.103-11.688-2.173-17.608
		c-0.585-3.235-1.214-6.495-1.79-9.795c-0.714-4.093,5.5-6.661,7.764-3.097c2.66,4.187,4.952,8.493,6.955,12.892
		c8.013,17.594,11.375,36.691,14.854,55.789c2.519,13.827,5.101,27.655,9.559,40.912c0.234,0.695,0.251,1.322,0.139,1.885
		c0.385,2.618-0.821,4.209-3.179,4.209c-0.68,0-1.456-0.133-2.317-0.411c-4.328-1.399-8.656-2.798-12.984-4.196
		c-9.029-2.918-19.915-8.147-28.478-1.149c-4.716,3.854-9.573,7.591-14.48,11.19c-21.58,15.831-44.114,28.977-59.801,37.497
		c-1.91,1.038-3.664,2.814-5.028,4.928c-1.716,2.66-2.813,5.854-2.813,8.788v101.741c0,5.265-3.906,9.534-8.724,9.534h-7.194
		c-4.819,0-8.725-4.268-8.725-9.534c0,0,0-116.685,0-116.686c0-5.686,3.819-9.998,8.541-12.537
		C530.389,625.997,558.959,604.383,583.068,578.567z"/>
</g>
</svg>
