<?xml version="1.0" encoding="utf-8"?>
<!-- Generator: Adobe Illustrator 17.1.0, SVG Export Plug-In . SVG Version: 6.00 Build 0)  -->
<!DOCTYPE svg PUBLIC "-//W3C//DTD SVG 1.1//EN" "http://www.w3.org/Graphics/SVG/1.1/DTD/svg11.dtd">
<svg version="1.1" id="Capa_1" xmlns="http://www.w3.org/2000/svg" xmlns:xlink="http://www.w3.org/1999/xlink" x="0px" y="0px"
	 width="1000px" height="1000px" viewBox="0 0 1000 1000" enable-background="new 0 0 1000 1000" xml:space="preserve">
<g>
	<polygon points="971.2,394.2 971.2,363.1 849,363.1 849,617.6 971.2,617.6 971.2,586.5 875,586.5 875,394.2 	"/>
	<path d="M515.2,560.4v21.8c44.2-7.2,78.1-45.7,78.1-91.9s-33.9-84.7-78.1-91.9v21.8c32.4,6.9,56.7,35.6,56.7,70.1
		S547.6,553.5,515.2,560.4z"/>
	<polygon points="29.2,586.5 29.2,617.6 149.7,617.6 149.7,363.1 29.2,363.1 29.2,394.2 125.4,394.2 125.4,586.5 	"/>
	<path d="M485.2,420.3v-21.8c-44.2,7.2-78.1,45.7-78.1,91.9s33.9,84.7,78.1,91.9v-21.8c-32.4-6.9-56.6-35.6-56.6-70.1
		S452.9,427.2,485.2,420.3z"/>
	<path d="M485.2,203.4h-446c-5.5,0-10,4.5-10,10v119.7h125.5c13.8,0,25,11.2,25,25v60.6V562v60.6c0,13.8-11.2,25-25,25H29.2v119.7
		c0,5.5,4.5,10,10,10h446V614.8c-62.1-7.4-110.3-60.4-110.3-124.4s48.3-117,110.3-124.4V203.4z"/>
	<path d="M971.2,213.4c0-5.5-4.5-10-10-10h-446v162.6c62.1,7.4,110.3,60.4,110.3,124.4s-48.3,117-110.3,124.4v162.6h446
		c5.5,0,10-4.5,10-10V647.6H844c-13.8,0-25-11.2-25-25V562V418.7v-60.6c0-13.8,11.2-25,25-25h127.2V213.4z"/>
</g>
</svg>
