<?xml version="1.0" encoding="utf-8"?>
<!-- Generator: Adobe Illustrator 17.1.0, SVG Export Plug-In . SVG Version: 6.00 Build 0)  -->
<!DOCTYPE svg PUBLIC "-//W3C//DTD SVG 1.1//EN" "http://www.w3.org/Graphics/SVG/1.1/DTD/svg11.dtd">
<svg version="1.1" id="Capa_1" xmlns="http://www.w3.org/2000/svg" xmlns:xlink="http://www.w3.org/1999/xlink" x="0px" y="0px"
	 width="1000px" height="1000px" viewBox="0 0 1000 1000" enable-background="new 0 0 1000 1000" xml:space="preserve">
<g>
	<path d="M482.2,504.3H127.1c-5.1,0-9.2,4.1-9.2,9.2v447.3c0,5.1,4.1,9.2,9.2,9.2h260.2c6.2-0.1,11.2-2.8,15.5-6.6l323.9-315.1
		c-18.9-1.1-37.9-2.9-56.5-5.8c-33.4-5.1-62.7-13.2-87.3-24c-29-12.7-52.4-29.6-69.5-50.3C498.1,549.8,487.7,528.5,482.2,504.3z"/>
	<path d="M515.8,504.3c4.7,16.2,12.3,30.6,22.6,43c26.3,31.8,72.3,52.9,136.7,62.8c27.4,4.2,56.1,6.1,83.8,6.6L867.7,511
		c3.5-3.7,2.2-6.6-2.8-6.6h-28.3V32.9c0-8.3-6.7-15-15-15c-3.1,0-6,1-8.4,2.6c-0.5,0.2-1,0.4-1.5,0.7L594.4,148.9
		c-5.2,3.1-5.2,8,0,11l212.2,124.7v219.7L515.8,504.3L515.8,504.3z"/>
</g>
</svg>
