<?xml version="1.0" encoding="utf-8"?>
<!-- Generator: Adobe Illustrator 17.1.0, SVG Export Plug-In . SVG Version: 6.00 Build 0)  -->
<!DOCTYPE svg PUBLIC "-//W3C//DTD SVG 1.1//EN" "http://www.w3.org/Graphics/SVG/1.1/DTD/svg11.dtd">
<svg version="1.1" id="Capa_1" xmlns="http://www.w3.org/2000/svg" xmlns:xlink="http://www.w3.org/1999/xlink" x="0px" y="0px"
	 width="1000px" height="1000px" viewBox="0 0 1000 1000" enable-background="new 0 0 1000 1000" xml:space="preserve">
<g>
	<path d="M210.562,990h159.606h59.98h139.701h59.98h159.606c8.284,0,15-6.716,15-15V25c0-8.284-6.716-15-15-15H629.831h-59.98
		H430.149h-59.98H210.562c-8.284,0-15,6.716-15,15v950C195.562,983.284,202.278,990,210.562,990z M554.851,960H445.149v-39.851
		h109.701V960z M614.831,960h-29.98v-54.851c0-8.284-6.716-15-15-15H430.149c-8.284,0-15,6.716-15,15V960h-29.98v-99.831h229.662
		V960z M436.469,830.169c16.344-17.198,39.234-27.319,63.531-27.319c24.558,0,47.33,10.081,63.605,27.319H436.469z M445.149,40
		h109.701v39.851H445.149V40z M385.169,40h29.98v54.851c0,8.284,6.716,15,15,15h139.701c8.284,0,15-6.716,15-15V40h29.98v99.831
		H385.169V40z M562.644,169.831c-16.204,16.624-38.566,26.312-62.644,26.312c-23.822,0-46.298-9.722-62.572-26.312H562.644z
		 M225.562,40h129.606v114.831c0,8.284,6.716,15,15,15h29.468c21.308,34.846,59.346,56.312,100.363,56.312
		c41.429,0,79.073-21.357,100.366-56.312h29.465c8.284,0,15-6.716,15-15V40h129.606v445H616.626
		C609.237,427.224,559.753,382.421,500,382.421S390.763,427.224,383.374,485H225.562V40z M413.711,485
		c7.135-41.17,43.111-72.579,86.289-72.579s79.154,31.41,86.289,72.579H413.711z M586.289,515
		c-7.135,41.17-43.111,72.579-86.289,72.579S420.846,556.17,413.711,515H586.289z M225.562,515h157.811
		c7.389,57.776,56.874,102.579,116.626,102.579S609.237,572.776,616.626,515h157.811v445H644.831V845.169c0-8.284-6.716-15-15-15
		h-28.843c-21.179-35.556-59.16-57.319-100.988-57.319c-41.411,0-79.786,21.88-100.971,57.319h-28.86c-8.284,0-15,6.716-15,15V960
		H225.562V515z"/>
</g>
</svg>
