<?xml version="1.0" encoding="utf-8"?>
<!-- Generator: Adobe Illustrator 17.1.0, SVG Export Plug-In . SVG Version: 6.00 Build 0)  -->
<!DOCTYPE svg PUBLIC "-//W3C//DTD SVG 1.1//EN" "http://www.w3.org/Graphics/SVG/1.1/DTD/svg11.dtd">
<svg version="1.1" id="Capa_1" xmlns="http://www.w3.org/2000/svg" xmlns:xlink="http://www.w3.org/1999/xlink" x="0px" y="0px"
	 width="1000px" height="1000px" viewBox="0 0 1000 1000" enable-background="new 0 0 1000 1000" xml:space="preserve">
<g>
	<path d="M545.917,695.413v35.646c0,23.277,9.145,46.856,25.09,64.69c8.127,9.09,17.582,16.313,28.103,21.47
		c11.566,5.669,23.813,8.543,36.4,8.543c12.587,0,24.834-2.874,36.4-8.543c10.521-5.157,19.976-12.38,28.103-21.47
		c15.945-17.834,25.091-41.412,25.091-64.69v-35.646c0-22.056-17.944-40-40-40h-99.188
		C563.861,655.413,545.917,673.356,545.917,695.413z M695.105,695.413v35.646c0,32.913-26.681,64.703-59.594,64.703
		s-59.594-31.79-59.594-64.703v-35.646c0-5.523,4.477-10,10-10h99.188C690.628,685.413,695.105,689.89,695.105,695.413z"/>
	<path d="M808.889,507.976c-17.506-17.506-37.899-31.253-60.614-40.861c-23.532-9.953-48.512-15-74.246-15h-22.47
		c-0.66,6.814-0.759,13.788-0.139,20.853c0.266,3.032,0.567,6.086,0.887,9.147h21.722c88.764,0,160.72,71.957,160.72,160.721
		v244.267c0,44.382-151.188,66.573-302.376,66.573s-302.376-22.191-302.376-66.573V642.836c0-88.764,71.957-160.721,160.721-160.721
		h21.722c0.32-3.061,0.622-6.115,0.887-9.147c0.62-7.065,0.52-14.039-0.139-20.853h-22.47c-25.734,0-50.714,5.047-74.246,15
		c-22.714,9.607-43.108,23.355-60.614,40.861c-17.506,17.506-31.253,37.899-40.861,60.614c-9.953,23.532-15,48.512-15,74.246
		v244.267c0,9.028,2.538,22.572,14.631,35.824c6.897,7.559,16.013,14.133,27.869,20.1c18.402,9.261,44.05,17.15,76.231,23.448
		c56.681,11.093,132.555,17.202,213.645,17.202c81.09,0,156.964-6.109,213.645-17.202c32.181-6.298,57.829-14.187,76.231-23.448
		c11.856-5.966,20.972-12.541,27.869-20.1c12.093-13.252,14.631-26.796,14.631-35.824V642.836c0-25.734-5.047-50.714-15-74.246
		C840.143,545.875,826.395,525.482,808.889,507.976z"/>
	<path d="M790.923,760.222c8.284,0,15-6.716,15-15v-107.59c0-70.726-58.647-128.265-130.735-128.265h-19.609
		c0.258,1.987,0.517,3.969,0.774,5.939c0.669,5.115,1.36,10.403,2.015,15.638c0.326,2.608,0.486,5.443,0.374,8.423h16.445
		c55.545,0,100.735,44.082,100.735,98.265v107.59C775.923,753.506,782.639,760.222,790.923,760.222z"/>
	<path d="M408.395,515.306c0.258-1.97,0.516-3.952,0.774-5.939h-19.609c-72.088,0-130.735,57.539-130.735,128.265v107.59
		c0,8.284,6.716,15,15,15s15-6.716,15-15v-107.59c0-54.183,45.19-98.265,100.735-98.265h16.445c-0.112-2.98,0.047-5.815,0.374-8.423
		C407.035,525.709,407.726,520.42,408.395,515.306z"/>
	<path d="M662.295,705.554h-53.566c-5.523,0-10,4.477-10,10v18.174c0,20.315,16.468,39.655,36.783,39.655
		c20.315,0,36.783-19.34,36.783-39.655v-18.174C672.295,710.031,667.817,705.554,662.295,705.554z"/>
	<path d="M374.06,332.449c3.766,8.964,6.97,18.854,13.302,26.415c4.408,5.263,11.297,9.038,18.239,10.082
		c15.652,25.045,27.196,53.812,29.643,83.17c0.631,7.57,0.667,15.179,0,22.775c-0.211,2.41-0.441,4.818-0.683,7.225
		c-0.917,9.101-2.04,18.179-3.209,27.251c-1.045,8.104-2.127,16.203-3.142,24.309c-0.251,2.01-0.296,3.898-0.171,5.691
		c0.591,8.485,5.232,14.667,12.447,19.775c17.17,12.157,36.142,20.779,55.87,27.76c11.889,4.207,23.814,6.746,35.77,6.923
		c0.083-0.001,0.167-0.006,0.25-0.01c0.083,0.004,0.167,0.009,0.25,0.01c11.955-0.177,23.88-2.716,35.77-6.923
		c19.727-6.981,38.7-15.603,55.87-27.76c7.215-5.109,11.855-11.29,12.447-19.775c0.125-1.792,0.08-3.681-0.171-5.691
		c-1.015-8.107-2.097-16.206-3.142-24.309c-1.17-9.073-2.292-18.15-3.209-27.251c-0.243-2.407-0.472-4.815-0.683-7.225
		c-0.666-7.595-0.63-15.205,0-22.775c2.447-29.358,13.991-58.125,29.643-83.17c6.942-1.044,13.831-4.818,18.239-10.082
		c6.332-7.56,9.536-17.451,13.302-26.415c4.816-11.462,9.842-22.86,14.433-34.414c7.059-17.766,10.734-40.338-5.737-54.29
		c-4.534-3.84-10.457-5.717-16.342-5.717c-0.127,0-0.253,0.001-0.38,0.003c-0.003,0-0.007,0-0.01,0
		c-0.692,0-1.402-0.962-2.111-2.574c0.195-27.97,2.728-57.425-1.155-85c-2.341-16.627-7.776-32.667-14.842-47.856
		c-16.227-34.88-42.879-55.984-79.664-67.002c-17.144-5.135-34.755-7.913-52.255-8.1c-0.083,0.001-0.167,0.003-0.25,0.005
		c-0.083-0.002-0.167-0.004-0.25-0.005c-17.5,0.187-35.111,2.965-52.255,8.1c-36.785,11.018-63.437,32.122-79.664,67.002
		c-7.066,15.189-12.501,31.229-14.842,47.856c-3.883,27.575-1.35,57.029-1.155,85c-0.709,1.612-1.42,2.574-2.111,2.574
		c-0.004,0-0.007,0-0.01,0c-0.127-0.002-0.254-0.003-0.38-0.003c-5.885,0-11.807,1.876-16.342,5.717
		c-16.472,13.952-12.797,36.524-5.737,54.29C364.218,309.589,369.244,320.987,374.06,332.449z"/>
</g>
</svg>
