<?xml version="1.0" encoding="utf-8"?>
<!-- Generator: Adobe Illustrator 17.1.0, SVG Export Plug-In . SVG Version: 6.00 Build 0)  -->
<!DOCTYPE svg PUBLIC "-//W3C//DTD SVG 1.1//EN" "http://www.w3.org/Graphics/SVG/1.1/DTD/svg11.dtd">
<svg version="1.1" id="Capa_1" xmlns="http://www.w3.org/2000/svg" xmlns:xlink="http://www.w3.org/1999/xlink" x="0px" y="0px"
	 width="1000px" height="1000px" viewBox="0 0 1000 1000" enable-background="new 0 0 1000 1000" xml:space="preserve">
<g>
	<path d="M675.543,15.938h-47.865H372.322h-47.865c-68.426,0-124.095,55.669-124.095,124.095V856.09
		c0,68.426,55.669,124.095,124.095,124.095h47.865h255.355h47.865c68.426,0,124.095-55.669,124.095-124.095V140.032
		C799.638,71.606,743.969,15.938,675.543,15.938z M387.322,45.938h225.355v97.679H387.322V45.938z M561.897,173.616
		c-15.999,16.609-38.271,26.368-61.897,26.368c-23.881,0-46.038-9.722-61.969-26.368H561.897z M612.678,950.185H387.322v-97.678
		h225.355V950.185z M438.977,822.507c15.855-16.046,37.615-25.378,61.023-25.378c23.154,0,45.01,9.37,60.934,25.378H438.977z
		 M769.638,856.09c0,51.884-42.211,94.095-94.095,94.095h-32.865V837.507c0-8.284-6.716-15-15-15h-28.841
		c-21.014-34.271-58.46-55.378-98.836-55.378c-40.782,0-77.843,21-98.841,55.378h-28.837c-8.284,0-15,6.716-15,15v112.678h-32.865
		c-51.884,0-94.095-42.211-94.095-94.095V513.062h154.729C392.47,569.897,441.187,613.939,500,613.939
		s107.53-44.042,114.908-100.878h154.729V856.09z M584.54,513.062c-7.119,40.223-42.305,70.878-84.54,70.878
		s-77.42-30.655-84.54-70.878H584.54z M415.46,483.062c7.119-40.223,42.305-70.878,84.54-70.878s77.42,30.655,84.54,70.878H415.46z
		 M769.638,483.062H614.908C607.53,426.226,558.813,382.184,500,382.184s-107.53,44.042-114.908,100.878H230.362V140.032
		c0-51.884,42.211-94.095,94.095-94.095h32.865v112.679c0,8.284,6.716,15,15,15h28.223c20.885,34.97,58.279,56.368,99.455,56.368
		c40.764,0,78.545-21.513,99.44-56.368h28.238c8.284,0,15-6.716,15-15V45.938h32.865c51.884,0,94.095,42.211,94.095,94.095V483.062z
		"/>
</g>
</svg>
