<?xml version="1.0" encoding="utf-8"?>
<!-- Generator: Adobe Illustrator 17.1.0, SVG Export Plug-In . SVG Version: 6.00 Build 0)  -->
<!DOCTYPE svg PUBLIC "-//W3C//DTD SVG 1.1//EN" "http://www.w3.org/Graphics/SVG/1.1/DTD/svg11.dtd">
<svg version="1.1" id="Capa_1" xmlns="http://www.w3.org/2000/svg" xmlns:xlink="http://www.w3.org/1999/xlink" x="0px" y="0px"
	 width="1000px" height="1000px" viewBox="0 0 1000 1000" enable-background="new 0 0 1000 1000" xml:space="preserve">
<g>
	<path d="M770.409,476.801c0-144.181-116.882-261.063-261.063-261.063c-144.182,0-261.063,116.882-261.063,261.063
		s116.882,261.064,261.063,261.064C653.526,737.865,770.409,620.983,770.409,476.801z M524.345,305.186l74.25-41.581
		c0.227,0.095,0.455,0.183,0.682,0.278c27.511,11.636,52.225,28.301,73.455,49.531c3.975,3.975,7.79,8.072,11.441,12.287
		l-16.36,83.243l-74.502,24.479l-68.965-50.106V305.186z M345.958,313.415c21.23-21.23,45.944-37.895,73.456-49.531
		c0.226-0.096,0.455-0.183,0.682-0.278l74.249,41.58v78.133l-68.965,50.106l-74.502-24.479l-16.361-83.243
		C338.169,321.487,341.983,317.39,345.958,313.415z M308.334,590.857c-4.416-7.776-8.395-15.82-11.907-24.124
		c-9.655-22.826-15.483-46.804-17.418-71.498l62.722-57.718l72.184,23.718l26.315,80.992l-47.013,61.265L308.334,590.857z
		 M569.164,700.048c-19.377,5.184-39.393,7.817-59.819,7.817s-40.442-2.633-59.819-7.817l-33.012-77.636l45.07-58.733h95.52
		l45.071,58.734L569.164,700.048z M578.459,542.227l26.316-80.993l72.184-23.717l62.722,57.718
		c-1.935,24.694-7.763,48.672-17.418,71.498c-3.512,8.304-7.491,16.349-11.907,24.124l-84.884,12.635L578.459,542.227z"/>
	<path d="M834.817,486.874c-3.897,0.655-7.271,1.789-10.186,3.247c-1.458,0.729-2.799,1.54-4.034,2.416
		c-1.251,0.875-2.457,1.812-3.535,2.801c-2.17,1.976-3.955,4.151-5.411,6.413c-0.729,1.131-1.375,2.284-1.946,3.445
		c-0.583,1.16-1.035,2.335-1.561,3.489c-1.983,4.627-2.884,9.185-3.138,12.752c0,0,0.448,0.623,0.896,1.246
		c0.422,0.623,0.843,1.245,0.843,1.245c3.305,2.052,7.803,4.306,12.924,5.809c5.123,1.496,10.869,2.238,16.708,1.055
		c1.46-0.296,2.926-0.714,4.389-1.273c1.461-0.559,2.942-1.255,4.322-2.126c2.799-1.734,5.527-4.115,8.11-7.292
		c2.553-3.18,5.124-7.142,7-12.076c0.984-2.463,1.9-5.158,2.737-8.099c0.418-1.471,0.817-3.002,1.194-4.597
		c0.327-1.596,0.586-3.257,0.844-4.981C852.5,486.123,842.61,485.582,834.817,486.874z"/>
	<path d="M828.576,541.773c-7.885-0.01-14.206,2.142-19.052,5.315c-2.431,1.589-4.512,3.439-6.282,5.431
		c-1.878,1.964-3.477,4.061-4.792,6.188c-1.318,2.126-2.368,4.278-3.185,6.337c-0.852,2.048-1.601,3.963-2.065,5.684l1.289,2.75
		c2.941,2.595,7.023,5.592,11.826,7.95c4.806,2.35,10.337,4.057,16.25,3.87c2.957-0.095,6.011-0.667,9.121-1.883
		c1.555-0.608,3.124-1.376,4.701-2.326c0.789-0.475,1.58-0.995,2.372-1.563c0.77-0.575,1.517-1.205,2.275-1.883
		c3.021-2.712,6.02-6.241,8.935-10.73c0.364-0.561,0.727-1.137,1.089-1.728c0.35-0.594,0.667-1.212,0.998-1.84
		c0.655-1.26,1.301-2.582,1.937-3.968c1.271-2.772,2.503-5.802,3.682-9.101c-5.709-3.13-11.071-5.244-15.922-6.584
		C836.896,542.352,832.514,541.783,828.576,541.773z"/>
	<path d="M793.443,596.829c-5.443,2.258-9.7,5.769-12.912,9.562c-3.37,3.716-5.821,7.67-7.257,10.943l0.853,2.956
		c2.425,3.04,5.9,6.667,10.22,9.799c4.323,3.125,9.49,5.75,15.394,6.595c1.477,0.211,3,0.309,4.568,0.275
		c1.553-0.043,3.116-0.238,4.734-0.582c3.228-0.692,6.609-2.014,10.123-4.136c1.757-1.061,3.546-2.321,5.365-3.8
		c1.732-1.521,3.484-3.266,5.252-5.252c1.769-1.986,3.552-4.214,5.345-6.7c0.441-0.625,0.915-1.252,1.329-1.92
		c0.409-0.672,0.826-1.356,1.25-2.053c0.833-1.402,1.664-2.872,2.493-4.41c-10.312-8.142-19.45-11.947-27.242-13.338
		C805.155,593.404,798.681,594.496,793.443,596.829z"/>
	<path d="M788.674,644.396c-1.855-0.665-3.653-1.159-5.392-1.506c-1.763-0.361-3.473-0.579-5.124-0.671
		c-3.302-0.183-6.372,0.136-9.199,0.817c-2.827,0.682-5.412,1.727-7.751,3.01c-2.4,1.242-4.631,2.672-6.578,4.242
		c-1.956,1.564-3.667,3.242-5.128,4.911c-1.492,1.645-2.834,3.205-3.848,4.675l0.296,3.025c1.906,3.43,4.753,7.619,8.495,11.445
		c3.747,3.82,8.391,7.274,14.026,9.071c2.819,0.897,5.888,1.377,9.224,1.269c1.668-0.054,3.402-0.254,5.205-0.623
		c0.901-0.184,1.82-0.41,2.755-0.681c0.92-0.282,1.834-0.627,2.775-1.011c3.754-1.544,7.76-3.864,12.008-7.115
		c0.528-0.409,1.072-0.823,1.597-1.268c0.514-0.452,1.031-0.92,1.551-1.403c1.041-0.966,2.094-1.993,3.159-3.084
		c2.13-2.182,4.308-4.62,6.527-7.329C804.487,652.397,796.069,647.06,788.674,644.396z"/>
	<path d="M756.252,689.135c-6.909-3.895-13.341-4.989-19.1-4.567c-5.878,0.326-11.055,2.233-15.342,4.753
		c-4.463,2.342-8.041,5.311-10.491,7.918c0,0-0.042,0.768-0.084,1.536c-0.047,0.766-0.121,1.508-0.121,1.508
		c1.278,3.675,3.357,8.256,6.394,12.646c3.042,4.384,7.043,8.574,12.327,11.327c1.322,0.688,2.724,1.285,4.213,1.771
		c0.744,0.242,1.513,0.461,2.297,0.642c0.775,0.169,1.57,0.308,2.388,0.412c3.27,0.416,6.893,0.287,10.904-0.552
		c2.005-0.419,4.107-1.016,6.31-1.81c2.192-0.804,4.379-1.91,6.715-3.184c2.323-1.287,4.741-2.796,7.252-4.546
		c0.622-0.444,1.255-0.897,1.901-1.358c0.632-0.475,1.238-0.993,1.867-1.512c1.25-1.045,2.52-2.153,3.812-3.328
		C770.48,699.678,763.133,693.042,756.252,689.135z"/>
	<path d="M725.905,737.66c-2.935-4.093-5.985-7.29-9.042-9.774c-6.142-4.983-12.395-7.262-18.161-7.836
		c-2.896-0.299-5.652-0.128-8.314,0.266c-2.701,0.343-5.253,0.988-7.612,1.823c-2.363,0.828-4.516,1.871-6.46,2.941
		c-1.991,1-3.739,2.079-5.188,3.12l-0.718,2.959c0.664,3.873,1.963,8.773,4.225,13.625c2.269,4.848,5.503,9.646,10.22,13.204
		c2.359,1.778,5.093,3.244,8.272,4.243c1.589,0.5,3.291,0.882,5.111,1.128c0.911,0.123,1.851,0.212,2.822,0.265
		c0.974,0.057,1.976,0.072,2.979,0.005c4.047-0.221,8.588-1.092,13.664-2.764c1.257-0.434,2.598-0.851,3.88-1.441
		c1.299-0.569,2.63-1.193,3.993-1.872c2.727-1.359,5.583-2.945,8.569-4.771c-1.248-3.024-2.562-5.765-3.946-8.28
		C728.81,741.978,727.372,739.707,725.905,737.66z"/>
	<path d="M663.306,752.335c-1.387-0.862-2.783-1.584-4.178-2.181c-0.697-0.298-1.395-0.565-2.091-0.803
		c-0.708-0.26-1.416-0.491-2.121-0.696c-5.653-1.652-11.133-1.508-16.039-0.619c-4.979,0.732-9.331,2.349-12.501,4
		c0,0-0.073,0.178-0.183,0.444c-0.109,0.268-0.257,0.624-0.413,0.961c-0.31,0.686-0.619,1.372-0.619,1.372
		c-0.017,3.892,0.42,8.906,1.82,14.057c1.408,5.148,3.784,10.432,7.848,14.785c2.026,2.159,4.509,4.156,7.46,5.648
		c2.943,1.476,6.401,2.554,10.462,3.09c4.055,0.526,8.759,0.601,13.957-0.373c2.617-0.448,5.397-1.076,8.346-1.9
		c1.464-0.43,3.013-0.833,4.527-1.426c1.524-0.575,3.089-1.204,4.695-1.888c-2.932-12.823-7.662-21.521-12.853-27.486
		C668.818,756.343,666.08,754.059,663.306,752.335z"/>
	<path d="M621.395,782.772c-4.139-6.778-9.264-10.989-14.505-13.46c-2.629-1.249-5.279-2.004-7.919-2.526
		c-2.659-0.582-5.278-0.829-7.778-0.833s-4.881,0.234-7.062,0.622c-2.209,0.274-4.218,0.698-5.932,1.191l-1.667,2.543
		c-0.671,3.868-1.087,8.918-0.581,14.246c0.514,5.327,1.954,10.932,5.208,15.868c1.628,2.468,3.714,4.767,6.376,6.776
		c1.332,1.005,2.807,1.936,4.441,2.78c1.63,0.827,3.439,1.646,5.376,2.185c3.89,1.146,8.464,1.845,13.812,1.967
		c1.331,0.012,2.734,0.067,4.143-0.06c1.416-0.104,2.879-0.248,4.393-0.435c3.026-0.374,6.25-0.917,9.676-1.645
		c-0.328-6.52-1.311-12.136-2.716-16.99C625.256,790.162,623.447,786.131,621.395,782.772z"/>
	<path d="M556.083,781.639c-4.775-3.456-9.998-5.243-14.915-5.994c-1.226-0.158-2.449-0.393-3.635-0.514
		c-1.187-0.133-2.342-0.21-3.454-0.24c-2.225-0.061-4.275,0.063-6.047,0.296l-2.073,2.27c-0.33,0.933-0.655,1.941-0.964,3.012
		c-0.311,1.054-0.605,2.167-0.871,3.335c-0.532,2.335-0.951,4.878-1.15,7.536c-0.394,5.316,0.082,11.093,2.458,16.574
		c2.377,5.467,6.664,10.39,13.96,14.189c1.822,0.936,3.835,1.831,6.043,2.572c2.203,0.679,4.606,1.259,7.224,1.725
		c2.617,0.467,5.448,0.821,8.503,1.047c0.763,0.053,1.543,0.113,2.333,0.137c0.786-0.004,1.587-0.009,2.402-0.013
		c1.629-0.027,3.316-0.09,5.06-0.191c1.537-13.052-0.005-22.831-2.899-30.196C565.135,789.819,560.818,784.895,556.083,781.639z"/>
	<path d="M509.392,792.466c-1.579-2.91-3.463-5.378-5.53-7.442c-2.067-2.066-4.317-3.737-6.64-5.075
		c-1.162-0.671-2.343-1.252-3.528-1.77c-1.181-0.578-2.368-1.08-3.547-1.516c-2.357-0.871-4.684-1.474-6.87-1.867
		c-1.093-0.197-2.151-0.341-3.16-0.441c-0.504-0.051-0.996-0.085-1.473-0.12c-0.475-0.055-0.935-0.098-1.38-0.132l-2.412,1.81
		c-1.912,3.402-3.975,8.004-5.26,13.189c-1.278,5.186-1.774,10.957-0.342,16.724c0.717,2.884,1.921,5.767,3.763,8.577
		c0.461,0.7,0.961,1.405,1.504,2.087c0.546,0.662,1.134,1.317,1.767,1.963c1.266,1.292,2.71,2.547,4.353,3.757
		c1.642,1.209,3.481,2.372,5.535,3.477c1.027,0.553,2.107,1.091,3.242,1.613c0.568,0.261,1.149,0.518,1.746,0.771
		c0.596,0.23,1.208,0.446,1.833,0.662c2.501,0.859,5.231,1.639,8.204,2.328c1.486,0.344,3.033,0.666,4.641,0.963
		c1.608,0.281,3.278,0.615,5.011,0.744c3.7-12.669,3.827-22.575,2.212-30.294C512.244,798.615,510.97,795.302,509.392,792.466z"/>
	<path d="M451.818,779.732c-0.848-1.173-1.757-2.254-2.712-3.251c-0.96-0.973-1.951-1.946-2.97-2.849
		c-2.043-1.791-4.214-3.269-6.399-4.477c-1.092-0.604-2.188-1.141-3.273-1.615c-1.085-0.473-2.163-0.872-3.189-1.311
		c-2.065-0.828-4.03-1.422-5.769-1.817l-2.697,1.421c-2.47,3.061-5.293,7.276-7.444,12.181c-2.144,4.907-3.612,10.503-3.168,16.389
		c0.446,5.885,2.824,12.071,8.435,18.148c2.843,2.884,6.503,5.698,11.12,8.387c1.154,0.672,2.368,1.335,3.644,1.99
		c1.274,0.657,2.634,1.189,4.044,1.769c2.827,1.132,5.91,2.211,9.26,3.225c5.76-11.753,7.54-21.484,7.25-29.416
		C457.632,790.569,455.199,784.422,451.818,779.732z"/>
	<path d="M401.453,765.739c-1.249-2.657-2.799-5.004-4.529-7.063c-0.865-1.03-1.774-1.987-2.715-2.876
		c-0.935-0.901-1.923-1.676-2.872-2.517c-3.837-3.253-7.927-5.452-11.261-6.741c0,0-0.729,0.254-1.442,0.465
		c-0.72,0.221-1.44,0.441-1.44,0.441c-2.937,2.557-6.417,6.195-9.364,10.647c-2.939,4.456-5.342,9.727-5.929,15.651
		c-0.288,2.952-0.139,6.113,0.673,9.342c0.833,3.184,2.306,6.491,4.584,9.893c2.288,3.377,5.322,6.991,9.489,10.245
		c2.065,1.668,4.374,3.341,6.94,5.009c1.287,0.824,2.623,1.691,4.054,2.477c1.439,0.763,2.947,1.521,4.522,2.274
		c7.702-10.671,11.113-19.967,12.166-27.802c0.517-3.921,0.425-7.483-0.111-10.701C403.688,771.249,402.685,768.438,401.453,765.739
		z"/>
	<path d="M352.77,739.313c-0.563-1.266-1.213-2.443-1.862-3.653c-1.324-2.376-2.874-4.501-4.526-6.376
		c-0.827-0.938-1.679-1.813-2.542-2.626c-0.854-0.825-1.756-1.534-2.576-2.294c-1.67-1.474-3.325-2.692-4.833-3.648l-3.018,0.435
		c-3.352,2.057-7.421,5.085-11.087,8.989c-3.66,3.908-6.914,8.692-8.464,14.389c-1.544,5.692-1.386,12.335,1.88,19.913
		c1.712,3.67,4.212,7.556,7.655,11.64c0.863,1.018,1.776,2.061,2.766,3.092c1.013,0.992,2.088,1.994,3.228,3.005
		c2.279,2.022,4.816,4.08,7.626,6.167c9.352-9.12,14.322-17.751,16.684-25.279c2.363-7.589,2.137-14.206,0.529-19.771
		C353.826,741.904,353.334,740.576,352.77,739.313z"/>
	<path d="M309.492,705.08c-0.475-1.258-1.016-2.464-1.608-3.615c-0.296-0.575-0.605-1.137-0.925-1.684
		c-0.309-0.56-0.611-1.125-0.932-1.665c-2.542-4.345-5.696-7.757-8.396-10.103l-3.011-0.116c-3.624,1.438-8.12,3.715-12.38,6.936
		c-4.255,3.227-8.271,7.4-10.79,12.788c-1.258,2.695-2.139,5.696-2.479,9.042c-0.292,3.298,0.015,6.886,1.03,10.85
		c0.51,1.979,1.202,4.048,2.096,6.206c0.453,1.072,0.929,2.198,1.509,3.29c0.585,1.086,1.225,2.194,1.921,3.323
		c1.393,2.257,3.012,4.598,4.876,7.022c0.934,1.21,1.921,2.449,2.986,3.692c1.102,1.198,2.269,2.414,3.502,3.648
		c10.82-7.492,17.141-15.115,20.748-22.148c1.796-3.523,2.897-6.911,3.465-10.124c0.567-3.213,0.582-6.228,0.313-9.178
		C311.125,710.325,310.441,707.597,309.492,705.08z"/>
	<path d="M271.555,660.533c-1.973-4.561-4.307-8.601-6.543-11.388l-2.998-0.585c-3.849,0.833-8.697,2.344-13.452,4.812
		c-4.75,2.474-9.406,5.908-12.751,10.765c-3.344,4.857-5.368,11.157-4.806,19.394c0.792,8.046,4.123,18.137,12.135,29.597
		c11.867-5.517,19.373-11.962,24.137-18.312c4.745-6.37,6.719-12.68,7.037-18.456C274.542,670.646,273.46,665.145,271.555,660.533z"
		/>
	<path d="M240.543,642.367c0.806-1.424,1.44-2.833,2.003-4.269c0.573-1.441,1.023-2.878,1.366-4.302
		c0.685-2.848,0.939-5.644,0.873-8.327c-0.061-2.687-0.495-5.234-0.933-7.726c-0.487-2.465-1.187-4.763-1.991-6.832
		c-0.402-1.034-0.831-2.011-1.272-2.923c-0.457-0.903-0.89-1.759-1.292-2.553l-2.804-1.106c-3.898,0.154-8.898,0.807-13.988,2.428
		c-5.087,1.628-10.263,4.227-14.427,8.468c-2.081,2.122-3.907,4.658-5.335,7.7c-0.736,1.531-1.282,3.146-1.723,4.903
		c-0.439,1.757-0.754,3.648-0.926,5.683c-0.172,2.035-0.202,4.214-0.071,6.546c0.065,1.166,0.171,2.37,0.32,3.613
		c0.15,1.242,0.421,2.48,0.697,3.78c0.571,2.589,1.33,5.332,2.292,8.234c0.481,1.451,1.013,2.942,1.599,4.473
		c0.568,1.542,1.327,3.038,2.069,4.62c12.703-3.485,21.195-8.581,26.926-14.016C236.787,648.035,238.946,645.206,240.543,642.367z"
		/>
	<path d="M221.181,586.713c2.109-5.302,2.963-10.859,2.69-15.83c-0.342-4.95-1.179-9.537-2.354-12.907l-2.628-1.552
		c-3.905-0.502-8.978-0.699-14.285,0.036c-5.304,0.742-10.841,2.42-15.619,5.878c-4.776,3.459-8.793,8.721-11.019,16.678
		c-1.039,3.953-1.457,8.526-1.338,13.87c0.027,5.377,1.154,11.323,2.918,18.101c13.034-1.247,22.256-4.827,28.861-9.226
		C215.002,597.335,218.961,592.046,221.181,586.713z"/>
	<path d="M200.74,543.408c1.229-1.07,2.327-2.191,3.305-3.347c0.98-1.157,1.923-2.367,2.716-3.593
		c1.607-2.455,2.792-5.005,3.638-7.557c0.423-1.276,0.761-2.553,1.024-3.819c0.267-1.267,0.429-2.518,0.647-3.767
		c0.763-4.975,0.495-9.614-0.151-13.131c0,0-0.148-0.123-0.371-0.306c-0.223-0.184-0.523-0.429-0.799-0.678
		c-0.563-0.498-1.127-0.996-1.127-0.996c-3.713-1.163-8.632-2.223-13.967-2.4c-5.334-0.169-11.083,0.548-16.441,3.152
		c-2.659,1.301-5.305,3.086-7.594,5.466c-2.276,2.378-4.323,5.364-6.029,9.085c-1.669,3.715-3.186,8.194-3.766,13.446
		c-0.337,2.632-0.551,5.473-0.625,8.533c-0.037,1.53-0.04,3.114-0.006,4.753c0.095,1.627,0.25,3.306,0.434,5.042
		c13.131,0.974,22.838-0.985,30.062-4.188C195.298,547.492,198.282,545.549,200.74,543.408z"/>
	<path d="M184.022,494.385c7.625-1.962,13.218-5.631,17.117-9.924c1.958-2.151,3.512-4.468,4.729-6.845
		c1.258-2.377,2.338-4.814,3.067-7.209c1.514-4.786,1.844-9.42,2.034-12.984l-1.929-2.337c-3.494-1.769-8.191-3.637-13.431-4.702
		c-5.242-1.058-11.025-1.31-16.71,0.366c-2.842,0.839-5.66,2.164-8.373,4.125c-1.356,0.98-2.686,2.119-3.979,3.435
		c-1.307,1.315-2.429,2.814-3.573,4.505c-2.25,3.382-4.276,7.546-5.981,12.615c-0.453,1.267-0.772,2.591-1.096,3.972
		c-0.32,1.381-0.616,2.821-0.885,4.32c-0.54,2.998-0.976,6.233-1.295,9.716c6.308,1.597,12.042,2.303,17.068,2.387
		C175.822,495.906,180.207,495.361,184.022,494.385z"/>
	<path d="M185.77,439.155c7.904-0.655,13.914-3.35,18.421-6.934c2.204-1.804,4.238-3.806,5.921-5.927
		c1.683-2.122,3.048-4.357,4.143-6.596c0.548-1.119,1.026-2.24,1.448-3.345c0.481-1.093,0.899-2.173,1.261-3.225
		c0.723-2.103,1.216-4.095,1.523-5.853l-1.552-2.638c-3.166-2.338-7.538-4.987-12.495-6.917c-2.483-0.964-5.142-1.751-7.922-2.215
		c-2.79-0.467-5.68-0.604-8.595-0.251c-5.847,0.701-11.898,3.347-17.684,9.222c-0.719,0.735-1.451,1.517-2.146,2.357
		c-0.669,0.846-1.331,1.745-1.983,2.698c-1.306,1.908-2.577,4.037-3.803,6.403c-1.208,2.369-2.451,4.963-3.494,7.83
		c-0.989,2.875-1.913,6.002-2.759,9.394C168.067,438.416,177.869,439.782,185.77,439.155z"/>
	<path d="M216.085,381.314c2.588-1.365,4.852-3.02,6.818-4.842c0.984-0.911,1.894-1.864,2.733-2.843
		c0.838-0.98,1.714-1.948,2.464-2.95c1.528-1.993,2.789-4.036,3.81-6.006c0.51-0.985,0.959-1.952,1.353-2.885
		c0.196-0.466,0.377-0.925,0.546-1.371c0.192-0.437,0.369-0.864,0.531-1.279l-1.021-2.838c-2.69-2.829-6.481-6.155-11.058-8.911
		c-4.581-2.749-9.949-4.923-15.88-5.252c-2.967-0.163-6.076,0.138-9.303,1.073c-0.803,0.235-1.627,0.504-2.435,0.825
		c-0.794,0.327-1.594,0.696-2.398,1.111c-1.608,0.83-3.236,1.842-4.877,3.057c-1.641,1.214-3.296,2.631-4.959,4.27
		c-1.655,1.642-3.376,3.484-4.896,5.64c-1.563,2.14-3.12,4.523-4.661,7.165c-1.517,2.65-3.142,5.519-4.425,8.758
		c11.014,7.245,20.45,10.256,28.312,10.97C204.63,385.702,210.835,384.014,216.085,381.314z"/>
	<path d="M236.445,333.164c1.368-0.465,2.667-1.017,3.898-1.638c1.243-0.615,2.49-1.261,3.633-1.981
		c2.305-1.431,4.348-3.076,6.138-4.815c0.895-0.869,1.727-1.762,2.496-2.662c0.755-0.909,1.562-1.756,2.242-2.635
		c1.39-1.739,2.526-3.45,3.408-5.002l-0.574-3.004c-2.205-3.266-5.413-7.21-9.467-10.708c-4.03-3.472-8.993-6.551-14.728-7.843
		c-5.748-1.299-12.341-0.836-19.769,2.754c-1.89,0.876-3.675,2.043-5.562,3.393c-1.875,1.356-3.792,2.932-5.748,4.746
		c-0.978,0.907-1.965,1.873-2.961,2.901c-0.494,0.516-1.007,1.038-1.491,1.594c-0.474,0.561-0.95,1.137-1.427,1.73
		c-1.909,2.371-3.841,5.002-5.791,7.908c9.541,8.972,18.317,13.541,25.979,15.599C224.394,335.535,230.978,335.018,236.445,333.164z
		"/>
	<path d="M245.216,286.166c7.204,3.291,13.625,3.779,19.471,2.981c2.895-0.425,5.581-1.232,8.043-2.295
		c1.232-0.531,2.408-1.127,3.527-1.772c1.145-0.623,2.271-1.264,3.318-1.955c2.104-1.375,3.973-2.884,5.59-4.406
		c1.621-1.519,2.958-3.079,4.153-4.401l-0.02-3.022c-1.596-3.567-4.067-7.968-7.468-12.091c-3.405-4.117-7.744-7.953-13.225-10.234
		c-5.455-2.256-12.219-3.081-19.948-0.62c-1.95,0.599-3.979,1.384-6.09,2.375c-2.093,1.006-4.353,2.147-6.5,3.674
		c-2.187,1.495-4.446,3.221-6.777,5.196c-2.31,1.99-4.797,4.15-7.091,6.77C230.159,276.87,238.044,282.864,245.216,286.166z"/>
	<path d="M281.237,244.272c6.559,4.466,12.934,6.158,18.701,6.214c1.45,0.021,2.833-0.097,4.232-0.24
		c1.405-0.137,2.771-0.361,4.093-0.656c2.645-0.592,5.113-1.473,7.375-2.526c1.134-0.522,2.201-1.106,3.239-1.684
		c1.061-0.55,2.065-1.129,3.006-1.723c1.884-1.187,3.519-2.43,4.862-3.608l0.45-3.031c-1.005-3.825-2.72-8.604-5.355-13.208
		c-2.65-4.61-6.309-9.156-11.324-12.322c-4.987-3.126-11.354-4.865-19.536-3.926c-1.022,0.117-2.073,0.276-3.153,0.48
		c-1.056,0.232-2.132,0.518-3.24,0.847c-2.214,0.662-4.541,1.516-6.982,2.583c-1.22,0.533-2.469,1.12-3.747,1.762
		c-1.27,0.651-2.607,1.313-3.878,2.138c-2.581,1.607-5.271,3.451-8.066,5.548C267.941,232.558,274.699,239.787,281.237,244.272z"/>
	<path d="M332.469,215.292c2.919,1.496,5.875,2.504,8.738,3.049c2.867,0.553,5.664,0.676,8.334,0.483
		c1.345-0.082,2.621-0.304,3.926-0.481c1.299-0.187,2.561-0.438,3.778-0.74c2.435-0.605,4.694-1.415,6.72-2.32
		c1.013-0.452,1.967-0.929,2.857-1.412c0.914-0.438,1.761-0.887,2.532-1.334l0.979-2.862c-0.324-3.898-1.194-8.874-3.033-13.894
		c-1.845-5.016-4.662-10.075-9.07-14.043c-2.206-1.983-4.813-3.691-7.908-4.978c-1.543-0.636-3.225-1.198-5.007-1.577
		c-1.77-0.357-3.668-0.584-5.704-0.661c-4.06-0.137-8.717,0.25-13.897,1.519c-2.554,0.692-5.254,1.578-8.104,2.677
		c-1.425,0.549-2.887,1.151-4.386,1.808c-1.5,0.657-3.049,1.351-4.563,2.209c4.033,12.559,9.485,20.831,15.153,26.319
		C326.656,211.793,329.57,213.825,332.469,215.292z"/>
	<path d="M387.262,193.579c2.69,0.933,5.468,1.635,8.151,1.946c2.687,0.321,5.305,0.31,7.783,0.068
		c1.245-0.108,2.434-0.329,3.616-0.494s2.32-0.376,3.405-0.621c2.169-0.49,4.123-1.117,5.779-1.779l1.433-2.708
		c0.167-1.967,0.242-4.222,0.157-6.644c-0.085-2.423-0.313-4.964-0.794-7.593c-0.958-5.23-2.885-10.736-6.555-15.4
		c-3.656-4.611-9.076-8.373-17.107-10.214c-1.003-0.23-2.047-0.43-3.133-0.598c-1.085-0.166-2.187-0.229-3.344-0.293
		c-2.309-0.111-4.787-0.077-7.445,0.12c-2.652,0.209-5.506,0.528-8.503,1.122c-2.969,0.663-6.118,1.514-9.452,2.57
		c1.812,12.988,5.782,22.052,10.455,28.454C376.406,187.905,381.85,191.615,387.262,193.579z"/>
	<path d="M429.653,171.288c2.242,2.354,4.697,4.323,7.209,5.792c2.517,1.485,5.111,2.542,7.691,3.26
		c1.291,0.359,2.578,0.632,3.852,0.832c1.286,0.258,2.561,0.453,3.809,0.579c2.498,0.255,4.899,0.257,7.112,0.092
		c2.216-0.142,4.228-0.559,5.991-0.823l1.884-2.356c1.002-3.772,1.85-8.744,1.8-14.087c-0.057-5.341-1.017-11.053-3.843-16.279
		c-2.825-5.207-7.561-10.078-15.122-13.025c-1.893-0.76-3.966-1.426-6.232-1.983c-1.133-0.278-2.314-0.529-3.545-0.751
		c-0.615-0.11-1.244-0.218-1.883-0.308c-0.635-0.068-1.283-0.128-1.943-0.18c-2.641-0.207-5.484-0.28-8.541-0.204
		c-1.528,0.038-3.108,0.113-4.743,0.228c-0.816,0.066-1.647,0.133-2.493,0.202c-0.84,0.094-1.684,0.234-2.547,0.365
		c-0.405,13.185,1.968,22.802,5.474,29.871C425.346,166.045,427.413,168.935,429.653,171.288z"/>
	<path d="M488.561,169.214c1.114,0.923,2.266,1.744,3.441,2.47c0.588,0.367,1.181,0.694,1.78,1.029
		c0.601,0.349,1.205,0.676,1.813,0.982c2.43,1.224,4.907,2.114,7.331,2.74c2.423,0.641,4.793,0.951,7.006,1.187
		c2.212,0.289,4.268,0.376,6.054,0.327l2.256-2.047c1.622-3.579,3.292-8.365,4.137-13.65c0.837-5.286,0.845-11.073-1.068-16.665
		c-1.915-5.575-5.772-11.024-12.72-15.445c-3.472-2.078-7.716-3.894-12.851-5.345c-1.284-0.363-2.623-0.703-4.019-1.018
		c-1.396-0.306-2.845-0.49-4.354-0.697c-3.018-0.389-6.27-0.664-9.763-0.809c-2.639,12.819-1.935,22.687,0.327,30.295
		C480.219,160.175,484.111,165.519,488.561,169.214z"/>
	<path d="M540.898,170.036c3.761,4.54,8.372,7.578,12.946,9.535c1.148,0.461,2.274,0.976,3.39,1.397
		c1.115,0.425,2.213,0.788,3.281,1.095c2.136,0.615,4.151,1.007,5.923,1.224l2.573-1.68c1.107-1.656,2.264-3.562,3.361-5.681
		c1.098-2.128,2.141-4.486,2.999-7.01c1.712-5.049,2.699-10.761,1.77-16.66c-0.46-2.982-1.433-5.863-3.042-8.76
		c-1.611-2.886-3.87-5.733-6.932-8.474c-1.532-1.358-3.257-2.741-5.214-3.993c-1.963-1.208-4.146-2.371-6.563-3.477
		c-2.417-1.107-5.071-2.157-7.973-3.14c-0.726-0.238-1.464-0.504-2.225-0.707c-0.761-0.193-1.537-0.388-2.327-0.588
		c-1.583-0.382-3.23-0.742-4.943-1.08c-4.746,12.254-5.699,22.108-4.737,29.962C534.173,159.857,537.123,165.716,540.898,170.036z"
		/>
	<path d="M592.264,179.821c2.953,5.046,7.047,8.596,11.136,11.555c2.062,1.425,4.162,2.582,6.179,3.502
		c1.005,0.47,2.004,0.839,2.938,1.229c0.933,0.397,1.829,0.735,2.673,1.019l2.797-1.155c2.715-2.818,5.88-6.757,8.439-11.452
		c2.552-4.698,4.495-10.151,4.565-16.08c0.034-2.965-0.404-6.05-1.48-9.221c-0.538-1.586-1.236-3.193-2.115-4.818
		c-0.898-1.57-1.984-3.138-3.271-4.718c-2.575-3.149-5.958-6.34-10.316-9.45c-4.422-2.895-9.803-5.78-16.3-8.395
		c-6.772,11.337-9.378,20.896-9.753,28.771c-0.181,3.953,0.231,7.434,1.029,10.633C589.581,174.458,590.785,177.308,592.264,179.821
		z"/>
	<path d="M645.168,205.475c1.534,2.228,3.272,4.185,5.092,5.886c1.845,1.653,3.663,3.253,5.469,4.549
		c1.803,1.302,3.566,2.354,5.16,3.158l2.983-0.714c1.585-1.167,3.341-2.622,5.088-4.256c1.748-1.636,3.519-3.508,5.172-5.598
		c3.304-4.183,6.147-9.235,7.249-15.108c1.058-5.803,0.296-12.34-3.623-19.58c-1.92-3.689-4.806-7.229-8.602-10.973
		c-1.905-1.859-4.039-3.768-6.45-5.654c-2.458-1.791-5.177-3.593-8.171-5.399c-8.566,9.934-12.757,18.899-14.484,26.633
		c-1.7,7.745-0.895,14.281,1.202,19.639C642.331,200.689,643.623,203.269,645.168,205.475z"/>
	<path d="M693.047,239.065c2.92,4.087,6.453,7.094,9.205,9.368l3.026-0.158c3.502-1.752,7.801-4.413,11.78-7.987
		c3.972-3.579,7.62-8.074,9.661-13.638c1.019-2.783,1.633-5.835,1.674-9.181c0.021-1.673-0.103-3.419-0.389-5.241
		c-0.301-1.806-0.816-3.626-1.498-5.549c-1.375-3.827-3.5-7.957-6.564-12.342c-1.594-2.11-3.422-4.284-5.503-6.517
		c-1.041-1.117-2.145-2.248-3.312-3.394c-0.59-0.566-1.191-1.143-1.802-1.729c-0.613-0.586-1.25-1.164-1.93-1.708
		c-10.17,8.413-15.827,16.547-18.817,23.844c-1.49,3.659-2.282,7.101-2.582,10.356c-0.328,3.299-0.146,6.389,0.408,9.253
		C687.502,230.187,690.171,234.913,693.047,239.065z"/>
	<path d="M726.547,257.994c0.069,1.421,0.167,2.875,0.371,4.266c0.201,1.394,0.487,2.744,0.844,4.048
		c0.713,2.607,1.709,5.027,2.867,7.232c0.287,0.553,0.595,1.084,0.892,1.618c0.285,0.545,0.579,1.075,0.878,1.592
		c0.6,1.032,1.226,2.006,1.864,2.918c1.275,1.823,2.597,3.396,3.838,4.681l3.058,0.313c3.782-1.169,8.394-3.009,12.919-5.867
		c4.506-2.852,8.862-6.674,11.845-11.844c1.512-2.605,2.587-5.474,3.15-8.732c0.562-3.257,0.597-6.892-0.058-10.947
		c-0.343-2.013-0.793-4.19-1.554-6.369c-0.762-2.177-1.723-4.457-2.901-6.841c-1.179-2.384-2.575-4.873-4.206-7.467
		c-1.687-2.537-3.681-5.108-5.898-7.808c-11.386,6.525-18.325,13.584-22.524,20.3C727.751,245.821,726.343,252.247,726.547,257.994z
		"/>
	<path d="M760.38,297.898c-0.42,2.881-0.414,5.673-0.096,8.325c0.183,1.31,0.335,2.659,0.59,3.94c0.248,1.286,0.56,2.532,0.92,3.732
		c0.721,2.4,1.639,4.614,2.641,6.593c0.511,0.982,1.003,1.931,1.471,2.832c0.481,0.891,0.973,1.716,1.457,2.464l2.914,0.85
		c3.889-0.494,8.832-1.58,13.772-3.632c4.937-2.059,9.87-5.087,13.635-9.655c1.882-2.285,3.471-4.958,4.614-8.098
		c1.121-3.126,1.908-6.788,1.822-10.82c-0.035-4.063-0.693-8.649-2.127-13.807c-1.547-5.078-4.027-10.623-7.381-16.775
		c-12.387,4.569-20.426,10.37-25.662,16.259C763.78,285.98,761.226,292.141,760.38,297.898z"/>
	<path d="M787.125,342.841c-1.87,5.567-2.066,11.095-1.334,16.011c0.209,1.218,0.342,2.455,0.577,3.621
		c0.223,1.171,0.49,2.297,0.789,3.367c0.598,2.14,1.321,4.06,2.065,5.682l2.781,1.311c3.924,0.169,8.908-0.037,14.121-1.218
		c5.2-1.185,10.582-3.334,15.118-7.213c1.128-0.969,2.226-2.054,3.212-3.247c0.975-1.189,1.875-2.498,2.681-3.939
		c1.612-2.883,2.853-6.297,3.581-10.34c0.357-2.018,0.615-4.205,0.675-6.536c0.001-2.306-0.152-4.775-0.475-7.416
		c-0.324-2.64-0.818-5.452-1.5-8.44c-0.313-1.508-0.799-2.999-1.294-4.553c-0.502-1.551-1.056-3.146-1.663-4.785
		c-12.917,2.374-21.807,6.728-27.995,11.666C792.287,331.775,788.831,337.362,787.125,342.841z"/>
	<path d="M805.681,391.714c-1.361,2.574-2.289,5.205-2.878,7.81c-0.27,1.296-0.544,2.608-0.751,3.905
		c-0.199,1.295-0.326,2.573-0.391,3.824c-0.28,5.006,0.566,9.562,1.272,13.058l2.451,1.778c3.825,0.838,8.84,1.472,14.18,1.194
		c5.339-0.286,11.003-1.486,16.088-4.529c2.542-1.523,4.939-3.511,7.075-6.088c1.068-1.288,2.071-2.724,2.993-4.323
		c0.925-1.599,1.646-3.335,2.328-5.26c1.334-3.843,2.255-8.389,2.639-13.733c0.21-5.299-0.249-11.365-1.358-18.289
		c-13.202,0.164-22.72,2.949-29.62,6.75C812.878,381.62,808.404,386.574,805.681,391.714z"/>
	<path d="M831.891,431.699c-7.489,2.607-12.635,6.718-16.103,11.312c-1.681,2.296-3.168,4.747-4.259,7.223
		c-1.1,2.477-1.862,4.985-2.363,7.429c-0.25,1.222-0.435,2.428-0.564,3.605c-0.183,1.181-0.326,2.334-0.412,3.445
		c-0.175,2.222-0.156,4.279-0.016,6.061l2.16,2.168c3.658,1.471,8.523,2.94,13.845,3.563c5.323,0.615,11.102,0.382,16.59-1.763
		c5.487-2.146,10.687-6.224,14.824-13.353c0.51-0.89,1.033-1.829,1.484-2.816c0.437-0.986,0.852-2.021,1.246-3.107
		c0.788-2.172,1.486-4.55,2.083-7.145c0.582-2.594,1.124-5.412,1.435-8.449c0.239-3.03,0.352-6.289,0.323-9.785
		C849.217,427.996,839.384,429.119,831.891,431.699z"/>
	<path d="M961.388,139.444L523.024,13.632c-3.734-1.072-6.498-1.897-7.821-2.308c-1.962-0.859-4.15-1.314-6.428-1.261
		c-2.277-0.054-4.468,0.402-6.429,1.261c-1.322,0.41-4.086,1.235-7.82,2.307L56.162,139.444
		c-11.682,3.353-20.55,14.994-20.627,27.079c-0.312,48.727,3.141,221.489,60.655,398.766
		c33.328,102.729,79.24,189.141,136.462,256.835c70.588,83.509,158.824,138.977,262.258,164.864
		c1.849,0.463,3.579,0.891,5.058,1.256c1.389,0.343,2.531,0.624,3.286,0.815c1.719,0.623,3.575,0.947,5.522,0.897
		c0.119,0.003,0.239,0.004,0.359,0.004c1.768,0,3.532-0.311,5.188-0.909c0.762-0.193,1.908-0.474,3.298-0.818
		c1.47-0.363,3.187-0.787,5.018-1.246c103.435-25.888,191.671-81.356,262.259-164.865
		c57.221-67.694,103.133-154.106,136.462-256.834c57.514-177.277,60.966-350.039,60.654-398.765
		C981.938,154.439,973.07,142.797,961.388,139.444z M892.824,556.031c-32.121,99.008-76.142,182.019-130.837,246.726
		c-66.444,78.606-149.423,130.799-246.631,155.128c-1.8,0.451-3.487,0.867-4.931,1.224c-0.593,0.146-1.146,0.283-1.65,0.408
		c-0.494-0.122-1.033-0.255-1.61-0.398c-1.453-0.358-3.153-0.779-4.971-1.234c-97.208-24.329-180.187-76.521-246.631-155.128
		c-54.696-64.708-98.716-147.718-130.838-246.726C69.081,384.518,65.292,217.208,65.527,167.967l437.275-125.5
		c2.244-0.644,4.312-1.249,5.973-1.744c1.659,0.495,3.728,1.1,5.973,1.745l437.273,125.5
		C952.258,217.207,948.469,384.518,892.824,556.031z"/>
</g>
</svg>
