<?xml version="1.0" encoding="utf-8"?>
<!-- Generator: Adobe Illustrator 17.1.0, SVG Export Plug-In . SVG Version: 6.00 Build 0)  -->
<!DOCTYPE svg PUBLIC "-//W3C//DTD SVG 1.1//EN" "http://www.w3.org/Graphics/SVG/1.1/DTD/svg11.dtd">
<svg version="1.1" id="Capa_1" xmlns="http://www.w3.org/2000/svg" xmlns:xlink="http://www.w3.org/1999/xlink" x="0px" y="0px"
	 width="1000px" height="1000px" viewBox="0 0 1000 1000" enable-background="new 0 0 1000 1000" xml:space="preserve">
<g>
	<path d="M645.358,486.994h-26.635c1.059,9.475,2.3,18.999,3.517,28.312c0.236,1.806,0.475,3.638,0.714,5.477h20.036
		c73.056,0,132.491,58.31,132.491,129.982v109.222c0,8.284-6.716,15-15,15s-15-6.716-15-15V650.765
		c0-55.13-45.977-99.982-102.491-99.982h-20.217c-2.648,8.905-8.473,18.216-19.909,26.313c-17.089,12.1-36.55,21.806-61.244,30.545
		c-14.978,5.3-28.972,7.976-42.782,8.181l-0.328,0.005l-0.249-0.004l-0.249,0.004l-0.328-0.005
		c-13.81-0.205-27.804-2.881-42.782-8.181c-24.694-8.739-44.154-18.445-61.243-30.545c-11.437-8.098-17.261-17.409-19.91-26.313
		h-20.717c-56.513,0-102.49,44.852-102.49,99.982v109.222c0,8.284-6.716,15-15,15s-15-6.716-15-15V650.765
		c0-71.672,59.435-129.982,132.49-129.982h20.536c0.239-1.839,0.478-3.671,0.714-5.477c1.218-9.313,2.459-18.837,3.517-28.312
		h-27.135c-92.33,0-167.178,74.848-167.178,167.178v254.081c0,92.33,629.049,92.33,629.049,0V654.172
		C812.536,561.842,737.688,486.994,645.358,486.994z M692.105,731.059c0,23.277-9.145,46.856-25.09,64.69
		c-8.127,9.09-17.582,16.313-28.103,21.47c-11.566,5.669-23.813,8.543-36.4,8.543c-12.588,0-24.834-2.874-36.4-8.543
		c-10.521-5.157-19.976-12.38-28.103-21.47c-15.945-17.834-25.09-41.412-25.09-64.69v-35.646c0-22.056,17.944-40,40-40h99.188
		c22.056,0,40,17.944,40,40V731.059z"/>
	<path d="M652.105,685.413h-99.188c-5.523,0-10,4.477-10,10v35.646c0,32.913,26.681,64.703,59.594,64.703
		s59.594-31.79,59.594-64.703v-35.646C662.105,689.89,657.628,685.413,652.105,685.413z M639.295,733.728
		c0,20.315-16.468,39.655-36.783,39.655s-36.783-19.34-36.783-39.655v-18.174c0-5.523,4.477-10,10-10h53.566c5.523,0,10,4.477,10,10
		V733.728z"/>
	<path d="M339.947,332.449c3.766,8.964,6.97,18.854,13.302,26.415c4.408,5.263,11.297,9.038,18.239,10.082
		c19.688,31.504,32.893,68.895,29.643,105.945c-0.354,4.04-0.765,8.073-1.202,12.104c-1.222,11.282-2.705,22.535-4.175,33.789
		c-0.561,4.297-1.12,8.594-1.658,12.893c-0.863,6.899,0.588,12.439,3.755,17.107c2.124,3.131,5.013,5.875,8.521,8.359
		c17.17,12.157,36.142,20.779,55.87,27.76c11.889,4.207,23.814,6.746,35.769,6.923c0.083-0.001,0.167-0.006,0.25-0.01
		c0.083,0.004,0.167,0.009,0.25,0.01c11.955-0.177,23.88-2.716,35.77-6.923c19.727-6.981,38.7-15.603,55.87-27.76
		c3.508-2.484,6.397-5.227,8.521-8.359c3.167-4.668,4.618-10.208,3.755-17.107c-0.538-4.299-1.097-8.596-1.658-12.893
		c-1.47-11.254-2.952-22.507-4.175-33.789c-0.437-4.031-0.848-8.064-1.202-12.104c-3.25-37.05,9.955-74.441,29.643-105.945
		c6.942-1.044,13.831-4.818,18.239-10.082c6.331-7.56,9.536-17.451,13.302-26.415c4.816-11.462,9.842-22.86,14.433-34.414
		c7.06-17.766,10.734-40.338-5.737-54.29c-4.534-3.84-10.457-5.717-16.342-5.717c-0.127,0-0.253,0.001-0.38,0.003
		c-0.003,0-0.007,0-0.01,0c-0.692,0-1.402-0.962-2.111-2.574c0.195-27.97,2.728-57.425-1.155-85
		c-2.341-16.627-7.776-32.667-14.842-47.856c-16.227-34.88-42.879-55.984-79.664-67.002c-17.144-5.135-34.755-7.913-52.255-8.1
		c-0.083,0.001-0.167,0.003-0.25,0.005c-0.083-0.002-0.167-0.004-0.25-0.005c-17.5,0.187-35.112,2.965-52.255,8.1
		c-36.785,11.018-63.437,32.122-79.664,67.002c-7.066,15.189-12.501,31.229-14.842,47.856c-3.883,27.575-1.35,57.029-1.155,85
		c-0.709,1.612-1.42,2.574-2.111,2.574c-0.004,0-0.007,0-0.01,0c-0.127-0.002-0.254-0.003-0.38-0.003
		c-5.885,0-11.807,1.876-16.342,5.717c-16.472,13.952-12.797,36.524-5.737,54.29C330.105,309.589,335.131,320.987,339.947,332.449z"
		/>
</g>
</svg>
