<?xml version="1.0" encoding="utf-8"?>
<!-- Generator: Adobe Illustrator 17.1.0, SVG Export Plug-In . SVG Version: 6.00 Build 0)  -->
<!DOCTYPE svg PUBLIC "-//W3C//DTD SVG 1.1//EN" "http://www.w3.org/Graphics/SVG/1.1/DTD/svg11.dtd">
<svg version="1.1" id="Capa_1" xmlns="http://www.w3.org/2000/svg" xmlns:xlink="http://www.w3.org/1999/xlink" x="0px" y="0px"
	 width="1000px" height="1000px" viewBox="0 0 1000 1000" enable-background="new 0 0 1000 1000" xml:space="preserve">
<g>
	<path d="M974,171.2H24c-0.1,0-0.2,0-0.3,0c-0.3,0-0.6,0-0.8,0c-0.2,0-0.5,0-0.7,0.1c-0.2,0-0.5,0.1-0.7,0.1c-0.3,0-0.5,0.1-0.8,0.2
		c-0.2,0-0.4,0.1-0.6,0.2c-0.3,0.1-0.5,0.1-0.8,0.2c-0.2,0.1-0.4,0.1-0.6,0.2c-0.2,0.1-0.5,0.2-0.7,0.3c-0.2,0.1-0.4,0.2-0.6,0.3
		c-0.2,0.1-0.4,0.2-0.6,0.3c-0.2,0.1-0.5,0.3-0.7,0.4c-0.2,0.1-0.4,0.2-0.5,0.4c-0.2,0.2-0.4,0.3-0.7,0.5c-0.2,0.1-0.3,0.3-0.5,0.4
		c-0.2,0.2-0.4,0.4-0.6,0.5c-0.2,0.2-0.3,0.3-0.5,0.5c-0.2,0.2-0.3,0.4-0.5,0.5c-0.2,0.2-0.3,0.4-0.5,0.6c-0.1,0.1-0.2,0.2-0.2,0.3
		c-0.1,0.1-0.1,0.2-0.2,0.2c-0.2,0.2-0.3,0.5-0.5,0.7c-0.1,0.2-0.2,0.4-0.3,0.5c-0.1,0.2-0.3,0.5-0.4,0.7c-0.1,0.2-0.2,0.4-0.3,0.6
		c-0.1,0.2-0.2,0.5-0.3,0.7c-0.1,0.2-0.2,0.4-0.2,0.7c-0.1,0.2-0.1,0.5-0.2,0.7c-0.1,0.2-0.1,0.5-0.2,0.7c0,0.2-0.1,0.4-0.1,0.7
		c0,0.3-0.1,0.5-0.1,0.8c0,0.2,0,0.4-0.1,0.6c0,0.3,0,0.6,0,0.9c0,0.1,0,0.2,0,0.3v555.5c0,5.8,3.4,11.2,8.7,13.6
		c5.3,2.5,11.6,1.6,16-2.2l88.7-75.3h35.4c0.7-5,1.7-10,2.9-14.9c0.9-3.8,1.9-7.5,3.1-11.2c0.4-1.3,0.8-2.6,1.2-3.8h-33.1
		c-0.1-13.3-0.3-26.4-0.5-39.3l16.4-16.4l28.8,28.8c4.8-9.1,10.5-17.6,16.8-25.7L169,570.8l35.4-35.4l25.1,25.1
		c8.4-6,17.3-11.3,26.7-15.7l-30.6-30.6l37.7-37.7l37.7,37.7l-21.5,21.5c11.5-3.6,23.5-6,35.9-7.1c4.7-0.4,9.5-0.7,14.3-0.7
		c0.6,0,1.2,0,1.8,0c9.4,0,18.7,0.8,27.8,2.2l-15.9-15.9l37.7-37.7l37.7,37.7L394,539.2c10,3.8,19.5,8.4,28.5,13.9l17.7-17.7
		l37.7,37.7l-14.4,14.4c6.7,7.6,12.7,15.7,18,24.4l17.6-17.6l37.7,37.7l-15.7,15.7h-22.9c2,5.9,3.6,11.8,5,18
		c0.2,0.9,0.4,1.8,0.6,2.7c0.6,3.1,1.2,6.2,1.6,9.3h370.1l88.7,75.3c2.8,2.3,6.2,3.6,9.7,3.6c2.1,0,4.3-0.5,6.3-1.4
		c5.3-2.5,8.7-7.8,8.7-13.6V186.2C989,177.9,982.3,171.2,974,171.2z M866.1,647.8h-35.3l-18-18l37.7-37.7l16.1,16.1
		C866.4,621.1,866.2,634.3,866.1,647.8z M579.4,632.1l37.7-37.7l37.7,37.7l-15.7,15.7H595L579.4,632.1z M223.9,201.2l18.3,18.3
		l-37.7,37.7l-37.7-37.7l18.3-18.3H223.9z M341.8,201.2l18.3,18.3l-37.7,37.7l-37.7-37.7l18.3-18.3L341.8,201.2L341.8,201.2z
		 M459.7,201.2l18.3,18.3l-37.7,37.7l-37.7-37.7l18.3-18.3L459.7,201.2L459.7,201.2z M577.6,201.2l18.3,18.3l-37.7,37.7l-37.7-37.7
		l18.3-18.3L577.6,201.2L577.6,201.2z M695.5,201.2l18.3,18.3L676,257.1l-37.7-37.7l18.3-18.3L695.5,201.2L695.5,201.2z
		 M813.4,201.2l18.3,18.3L794,257.1l-37.7-37.7l18.3-18.3L813.4,201.2L813.4,201.2z M499.2,316.1l-37.7-37.7l37.7-37.7l37.7,37.7
		L499.2,316.1z M558.1,299.6l37.7,37.7l-37.7,37.7l-37.7-37.7L558.1,299.6z M882.1,404.8L852.9,434l-37.7-37.7l37.7-37.7l31.4,31.4
		C883.6,394.9,882.8,399.8,882.1,404.8z M735,434l-37.7-37.7l37.7-37.7l37.7,37.7L735,434z M794,417.5l37.7,37.7L794,493l-37.7-37.7
		L794,417.5z M794,375.1l-37.7-37.7l37.7-37.7l37.7,37.7L794,375.1z M735,316.1l-37.7-37.7l37.7-37.7l37.7,37.7L735,316.1z
		 M713.8,337.3L676,375.1l-37.7-37.7l37.7-37.7L713.8,337.3z M617.1,316.1l-37.7-37.7l37.7-37.7l37.7,37.7L617.1,316.1z
		 M617.1,358.5l37.7,37.7L617.1,434l-37.7-37.7L617.1,358.5z M676,417.5l37.7,37.7L676,493l-37.7-37.7L676,417.5z M697.3,514.2
		l37.7-37.7l37.7,37.7L735,551.9L697.3,514.2z M713.8,573.1L676,610.9l-37.7-37.7l37.7-37.7L713.8,573.1z M794,535.4l35.4,35.4
		l-37.7,37.7l-35.4-35.4L794,535.4z M815.2,514.2l37.7-37.7l19.2,19.2c-0.9,11.4-1.7,23-2.4,34.8l-19.2,19.2L815.2,514.2z
		 M874.1,337.3l26.1-26.1c-3.4,13.5-6.6,27.8-9.6,42.7L874.1,337.3z M852.9,316.1l-37.7-37.7l37.7-37.7l37.7,37.7L852.9,316.1z
		 M419,278.4l-37.7,37.7l-37.7-37.7l37.7-37.7L419,278.4z M301.1,278.4l-37.7,37.7l-37.7-37.7l37.7-37.7L301.1,278.4z M97.6,310.7
		l26.6,26.6l-16.9,16.9C104.4,339,101.1,324.4,97.6,310.7z M107.7,278.4l37.7-37.7l37.7,37.7l-37.7,37.7L107.7,278.4z M124.3,219.4
		l-37.7,37.7l-8.4-8.4C70,227.8,62,212.4,55,201.2h51L124.3,219.4z M115.9,404.4c-0.7-4.8-1.4-9.5-2.1-14.1l31.7-31.7l37.7,37.7
		L145.5,434L115.9,404.4z M166.7,337.3l37.7-37.7l37.7,37.7l-37.7,37.7L166.7,337.3z M263.4,358.5l37.7,37.7L263.4,434l-37.7-37.7
		L263.4,358.5z M284.6,337.3l37.7-37.7l37.7,37.7l-37.7,37.7L284.6,337.3z M381.3,358.5l37.7,37.7L381.3,434l-37.7-37.7L381.3,358.5
		z M402.5,337.3l37.7-37.7l37.7,37.7l-37.7,37.7L402.5,337.3z M499.2,358.5l37.7,37.7L499.2,434l-37.7-37.7L499.2,358.5z
		 M558.1,417.5l37.7,37.7L558.1,493l-37.7-37.7L558.1,417.5z M617.1,476.4l37.7,37.7l-37.7,37.7l-37.7-37.7L617.1,476.4z
		 M697.3,632.1l37.7-37.7l35.4,35.4l-18,18h-39.5L697.3,632.1z M919.6,249.4l-7.8,7.8l-37.7-37.7l18.3-18.3h49.1h1.5
		c-2.6,4.2-5.4,9.1-8.3,14.6C929.9,225,924.8,236.1,919.6,249.4z M39,709.2V234.1c5.4,10.9,11.3,24.7,17.3,42.2
		c37,108.5,45.3,264.9,45.6,379.5L39,709.2z M147.8,549.6l-19.6-19.6c-0.7-11.6-1.5-22.9-2.3-34l19.6-19.6l37.7,37.7L147.8,549.6z
		 M204.4,493l-37.7-37.7l37.7-37.7l37.7,37.7L204.4,493z M322.3,493l-37.7-37.7l37.7-37.7l37.7,37.7L322.3,493z M402.5,455.2
		l37.7-37.7l37.7,37.7L440.2,493L402.5,455.2z M461.4,514.2l37.7-37.7l37.7,37.7l-37.7,37.7L461.4,514.2z M520.4,573.1l37.7-37.7
		l37.7,37.7l-37.7,37.7L520.4,573.1z M959,709.2l-62.9-53.4c0.3-111.8,8.3-264.8,43.6-373.3c6.6-20.4,13.3-36.2,19.3-48.3V709.2z"/>
	<path d="M474.7,668.4c-1.7-7.1-4-14-6.7-20.6c-2.1-5.2-4.5-10.2-7.2-15c-0.5-1-1.1-1.9-1.6-2.9c-4.6-7.9-9.8-15.3-15.7-22.1
		c-10.8-12.5-23.6-23.2-38-31.6c-1.3-0.7-2.5-1.4-3.8-2.1c-9.5-5.1-19.6-9.3-30.2-12.2c-8.9-2.5-18.2-4.2-27.7-5
		c-4-0.3-8-0.5-12.1-0.5c-11.8,0-23.2,1.4-34.2,4c-6.7,1.6-13.2,3.6-19.6,6.1c-9.9,3.9-19.2,8.8-27.9,14.6
		c-14,9.3-26.3,21-36.4,34.5c-6.2,8.2-11.5,17.1-15.8,26.6c-0.9,1.9-1.7,3.8-2.5,5.7c-2.1,5.1-3.9,10.3-5.4,15.6
		c-1.3,4.7-2.4,9.5-3.3,14.4c-1.5,8.4-2.3,17-2.3,25.9c0,81.4,66,147.3,147.3,147.3C413,851,479,785,479,703.6
		c0-8.8-0.8-17.5-2.3-25.9C476.1,674.6,475.5,671.5,474.7,668.4z M449,703.6c0,24.3-7.3,47.4-20.9,66.9l-36.6,5.4
		c-1.9,0.3-4.1,2-4.9,3.8l-14.5,34.1c-12.8,4.7-26.4,7.1-40.5,7.1s-27.7-2.5-40.5-7.1l-14.5-34.1c-0.8-1.8-2.9-3.5-4.9-3.8
		l-36.6-5.4c-13.6-19.5-20.9-42.6-20.9-66.9c0-0.4,0-0.8,0-1.3l26.7-24.6l0.4-0.4c1.4-1.3,2.3-3.9,1.9-5.9l-1.4-7.2l-3.2-16.5
		l-1.8-8.9l-0.7-3.6c3.7-5.1,7.8-10,12.4-14.6c7-7,14.8-13,23.1-18c7.7-4.6,16-8.3,24.5-11l15.7,8.8l13.3,7.5l3.3,1.8
		c1.7,1,4.5,1,6.2,0l32.3-18.1c4.2,1.3,8.3,2.9,12.3,4.6c2.6,1.2,5.3,2.5,7.8,3.8c10,5.4,19.3,12.2,27.5,20.5
		c2.7,2.7,5.2,5.4,7.5,8.3c1.7,2,3.3,4.1,4.8,6.3l-0.8,4l-1.7,8.5l-3.9,19.7l-0.8,4.1c-0.4,1.9,0.5,4.5,1.9,5.9l0.4,0.4l26.7,24.6
		C449,702.8,449,703.2,449,703.6z"/>
	<path d="M385.5,683.9l-8.4-6.1l-15.7-11.4l-25.6-18.6l-1.3-1c-1.5-1.1-4-1.1-5.6-0.1c0,0-0.1,0-0.1,0.1l-1.3,1l-6.2,4.5l-18,13.1
		l-17.1,12.4l-8.4,6.1c-1.6,1.1-2.4,3.6-1.8,5.4l19.5,60c0.6,1.9,2.7,3.4,4.6,3.4h63.1c1.9,0,4-1.5,4.6-3.4l19.5-60
		C387.9,687.4,387.1,685,385.5,683.9z"/>
</g>
</svg>
