<?xml version="1.0" encoding="utf-8"?>
<!-- Generator: Adobe Illustrator 17.1.0, SVG Export Plug-In . SVG Version: 6.00 Build 0)  -->
<!DOCTYPE svg PUBLIC "-//W3C//DTD SVG 1.1//EN" "http://www.w3.org/Graphics/SVG/1.1/DTD/svg11.dtd">
<svg version="1.1" id="Capa_1" xmlns="http://www.w3.org/2000/svg" xmlns:xlink="http://www.w3.org/1999/xlink" x="0px" y="0px"
	 width="1000px" height="1000px" viewBox="0 0 1000 1000" enable-background="new 0 0 1000 1000" xml:space="preserve">
<g>
	<path d="M785.1,506c-17.5-17.5-37.9-31.3-60.6-40.9c-23.5-10-48.5-15-74.2-15h-18.6c-0.9-1.7-1.9-3.3-2.9-4.9
		c-0.5-0.9-1.2-2.3-2.5-2.9c-1.3-0.5-4.4-0.2-5.7,1.4c-0.7,0.9-0.5,3.2-0.3,4.6c0.1,0.6,0.2,1.3,0.3,1.9c1.7,8.8,4.1,17.1,4.6,25.6
		c0.1,1.5,0.1,2.9,0.1,4.4c0,1.1-0.1,2.1-0.2,3.2c-0.5,5.5-2.1,11.2-5.4,17.3c-0.2,0.4-0.4,0.8-0.7,1.2c-0.3,0.4-0.6,0.8-0.9,1.2
		c-2.3,3.1-4.9,6.6-7.9,10.3c-3.3,4-7,8.4-11.3,13c-2.2,2.3-4.4,4.7-6.8,7.1c-17.3,17.5-41.6,37.9-74.5,58c-1,0.6-1.9,1.2-2.9,1.8
		c-0.2,0.1-0.4,0.2-0.6,0.4c-0.8,0.5-1.7,1.1-2.6,1.6c-2,1.3-4,2.6-5.9,4.1c-2,1.5-3.9,3.1-5.6,4.7c-0.1,0.1-0.2,0.2-0.3,0.3
		c-2.8,2.9-3.8,6.7-4.1,10.6c-0.1,1.6-0.1,3.2-0.1,4.8c0,0.5,0,1,0,1.5c0,1.1,0.1,3.4,0.1,6.6c0,2.2,0,4.9,0,7.9
		c0.1,23,0,65.8,0,85.3c0,6.1,0,12.3,0,18.4c0,5.7,4.2,10.3,9.4,10.3h7.8c5.2,0,9.4-4.6,9.4-10.3c0,0,0-109.6,0-109.8
		c0-8.4,6.4-13.3,13-17.3c1.4-0.8,2.8-1.6,4.2-2.4c13.8-7.8,30.7-17.9,47.6-29.8c1.7-1.2,3.3-2.3,5-3.5c6.4-4.6,12.7-9.4,18.8-14.4
		c1.4-1.2,3.3-2.1,5.2-2.8c0.9-0.3,1.7-0.5,2.6-0.7c0.7-0.2,1.5-0.2,2.4-0.2c2.2,0,4.7,0.4,7.2,1c0.3,0.1,0.6,0.1,0.9,0.2
		c2.7,0.7,5.4,1.5,7.6,2.2l9.2,3c3.8,1.2,9,3.2,12.2,3.2c1.2,0,2.2-0.3,2.7-1c0,0,0,0,0,0c1.3-0.8,2-2.3,1.4-4.3
		c-4.5-13.5-7.3-27.4-9.8-41.5c-2.3-12.6-4.5-25.3-7.7-37.5c-0.3-1.3-0.7-2.7-1.1-4h6.5c88.8,0,160.7,72,160.7,160.7v244.3
		c0,44.4-151.2,66.6-302.4,66.6s-302.4-22.2-302.4-66.6V640.8c0-88.8,72-160.7,160.7-160.7h7.9c-0.1,0.4-0.2,0.9-0.4,1.3
		c-3,10.9-5.1,22.1-7.1,33.3c-2.7,14.6-5.3,29.3-9.6,43.4l-1.4,3.6c-1.7,4.2-0.5,7,2.8,7c0.7,0,1.6-0.1,2.5-0.4l26.3-8.5l0.9-0.3
		l1-0.3c1.3-0.4,2.8-0.6,4.4-0.6c2.3,0,4.8,0.5,7,1.3c1.9,0.7,3.7,1.6,5,2.7c6.1,5,12.4,9.8,18.8,14.4c1.5,1.1,3,2.2,4.5,3.2
		c18.6,13,37.2,24.1,51.7,32.1c0.4-3.3,1.2-6.9,2.9-10.4c1.3-2.7,3.1-5.4,5.6-7.9c0.6-0.6,1.2-1.2,1.9-1.8c0.8-0.7,1.6-1.4,2.4-2.1
		c-30.4-19.3-52.8-39-69-56.2c-2.7-2.8-5.2-5.6-7.5-8.3c-3.9-4.5-7.4-8.7-10.4-12.7c-3.1-4-5.8-7.7-8.1-11c-0.5-0.8-0.9-1.7-1.3-2.5
		c-2.9-5.9-4.4-11.2-4.9-16.1c-0.1-1.1-0.2-2.1-0.2-3.2c0-1.5,0-3,0.1-4.4c0.6-8.6,3.5-16.5,5.4-25.6c0.2-1,0.4-1.9,0.6-2.9
		c0.2-1.4-0.2-2.6-0.9-3.5c-1.3-1.6-4.4-2-5.6-1.5c-0.7,0.3-1.4,0.8-1.9,1.6c-0.5,0.8-1,1.7-1.5,2.5c-0.7,1.2-1.4,2.5-2.1,3.7h-19.7
		c-25.7,0-50.7,5-74.2,15c-22.7,9.6-43.1,23.4-60.6,40.9c-17.5,17.5-31.3,37.9-40.9,60.6c-10,23.5-15,48.5-15,74.2v244.3
		c0,9,2.5,22.6,14.6,35.8c6.9,7.6,16,14.1,27.9,20.1c18.4,9.3,44,17.2,76.2,23.4c56.7,11.1,132.6,17.2,213.6,17.2
		s157-6.1,213.6-17.2c32.2-6.3,57.8-14.2,76.2-23.4c11.9-6,21-12.5,27.9-20.1c12.1-13.3,14.6-26.8,14.6-35.8V640.8
		c0-25.7-5-50.7-15-74.2C816.3,543.9,802.6,523.5,785.1,506z"/>
	<path d="M263.9,906.8c0,0,14.4,7.2,36.3,9.9V535.2v-23.7c-25.4,11-36.3,28.8-36.3,28.8V906.8z"/>
	<path d="M394.2,572.8c-0.1,0-0.2,0-0.2,0l-5.3,1.7v356.7c0,0,29,2.7,36.3,2.7V594.4c-9.4-6.5-18.9-13.4-27.9-20.8
		C396.8,573.3,395.4,572.8,394.2,572.8z"/>
	<path d="M716.9,511.5v23.7v381.6c21.9-2.7,36.3-9.9,36.3-9.9V540.3C753.2,540.3,742.2,522.5,716.9,511.5z"/>
	<path d="M621.3,573.1c-0.8,0.2-1.2,0.5-1.4,0.6c-9,7.4-18.5,14.4-27.9,20.8V935c7.4,0,36.3-2.7,36.3-2.7V574.6
		C625.8,573.9,623,573.1,621.3,573.1z"/>
	<path d="M350.3,332.4c3.8,9,7,18.9,13.3,26.4c4.4,5.3,11.3,9,18.2,10.1c15.3,24.5,26.7,52.5,29.5,81.2c0.8,8.2,0.9,16.5,0.2,24.8
		c-0.2,1.7-0.3,3.5-0.5,5.2c-0.4,4-0.8,8-1.3,11.9c14.4,21.3,43.7,56.2,97.2,89c0.1-0.1,0.2-0.1,0.2-0.2
		c28.4-17.1,53.1-36.1,73.4-56.4c12.9-12.8,21.6-23.8,27-31.6c-0.5-4.3-1-8.5-1.4-12.8c-0.2-1.7-0.3-3.5-0.5-5.2
		c-0.7-8.3-0.6-16.5,0.2-24.8c2.8-28.7,14.2-56.7,29.5-81.2c6.9-1,13.8-4.8,18.2-10.1c6.3-7.6,9.5-17.5,13.3-26.4
		c4.8-11.5,9.8-22.9,14.4-34.4c7.1-17.8,10.7-40.3-5.7-54.3c-4.5-3.8-10.5-5.7-16.3-5.7c-0.1,0-0.3,0-0.4,0c0,0,0,0,0,0
		c-0.7,0-1.4-1-2.1-2.6c0.2-28,2.7-57.4-1.2-85c-2.3-16.6-7.8-32.7-14.8-47.9c-16.2-34.9-42.9-56-79.7-67
		c-17.1-5.1-34.8-7.9-52.3-8.1c-0.1,0-0.2,0-0.3,0c-0.1,0-0.2,0-0.3,0c-17.5,0.2-35.1,3-52.3,8.1c-36.8,11-63.4,32.1-79.7,67
		c-7.1,15.2-12.5,31.2-14.8,47.9c-3.9,27.6-1.4,57-1.2,85c-0.7,1.6-1.4,2.6-2.1,2.6c0,0,0,0,0,0c-0.1,0-0.3,0-0.4,0
		c-5.9,0-11.8,1.9-16.3,5.7c-16.5,14-12.8,36.5-5.7,54.3C340.5,309.6,345.5,321,350.3,332.4z"/>
</g>
</svg>
