<?xml version="1.0" encoding="utf-8"?>
<!-- Generator: Adobe Illustrator 17.1.0, SVG Export Plug-In . SVG Version: 6.00 Build 0)  -->
<!DOCTYPE svg PUBLIC "-//W3C//DTD SVG 1.1//EN" "http://www.w3.org/Graphics/SVG/1.1/DTD/svg11.dtd">
<svg version="1.1" id="Capa_1" xmlns="http://www.w3.org/2000/svg" xmlns:xlink="http://www.w3.org/1999/xlink" x="0px" y="0px"
	 width="1000px" height="1000px" viewBox="0 0 1000 1000" enable-background="new 0 0 1000 1000" xml:space="preserve">
<g>
	<path d="M954.15,115.699h-913c-16.568,0-30,13.432-30,30v661.096c0,16.568,13.432,30,30,30s30-13.432,30-30v-27.338h853v27.338
		c0,16.568,13.432,30,30,30s30-13.432,30-30V145.699C984.15,129.131,970.719,115.699,954.15,115.699z M827.157,175.699
		l-15.727,15.727l-15.727-15.727H827.157z M226.607,525.756l-41.41,41.41l-41.41-41.41l41.41-41.41L226.607,525.756z
		 M143.786,400.509l41.411-41.411l41.411,41.411l-41.411,41.411L143.786,400.509z M206.409,463.133l41.411-41.411l41.41,41.41
		l-41.411,41.411L206.409,463.133z M269.033,400.509l41.41-41.41l41.41,41.41l-41.41,41.41L269.033,400.509z M310.443,484.345
		l41.411,41.411l-41.411,41.411l-41.411-41.411L310.443,484.345z M331.656,463.132l41.41-41.41l41.411,41.411l-41.41,41.41
		L331.656,463.132z M394.28,400.509l41.411-41.411l41.411,41.411L435.69,441.92L394.28,400.509z M435.69,484.345l41.41,41.41
		l-41.41,41.41l-41.41-41.41L435.69,484.345z M456.903,463.133l41.411-41.411l41.41,41.41l-41.411,41.411L456.903,463.133z
		 M519.527,400.509l41.41-41.41l41.41,41.41l-41.41,41.41L519.527,400.509z M560.937,484.345l41.411,41.411l-41.411,41.411
		l-41.411-41.411L560.937,484.345z M582.15,463.132l41.41-41.41l41.411,41.411l-41.41,41.41L582.15,463.132z M644.773,400.509
		l41.411-41.411l41.411,41.411l-41.411,41.411L644.773,400.509z M686.184,484.345l41.41,41.41l-41.41,41.41l-41.41-41.41
		L686.184,484.345z M707.397,463.133l41.411-41.411l41.411,41.41l-41.411,41.411L707.397,463.133z M811.431,484.345l41.411,41.411
		l-41.411,41.411l-41.411-41.411L811.431,484.345z M770.02,400.509l41.41-41.41l41.411,41.41l-41.411,41.41L770.02,400.509z
		 M748.807,379.296l-41.411-41.411l41.41-41.41l41.411,41.411L748.807,379.296z M686.184,316.673l-41.41-41.41l41.41-41.41
		l41.41,41.41L686.184,316.673z M664.971,337.885l-41.411,41.411l-41.41-41.41l41.411-41.411L664.971,337.885z M560.937,316.673
		l-41.411-41.411l41.411-41.411l41.411,41.411L560.937,316.673z M539.724,337.886l-41.41,41.41l-41.411-41.411l41.41-41.41
		L539.724,337.886z M435.69,316.673l-41.41-41.41l41.41-41.41l41.41,41.41L435.69,316.673z M414.477,337.885l-41.411,41.411
		l-41.41-41.41l41.411-41.411L414.477,337.885z M310.443,316.673l-41.411-41.411l41.411-41.411l41.411,41.411L310.443,316.673z
		 M289.23,337.886l-41.41,41.41l-41.411-41.411l41.41-41.41L289.23,337.886z M185.197,316.673l-41.41-41.41l41.41-41.41l41.41,41.41
		L185.197,316.673z M163.984,337.885l-41.411,41.411l-41.41-41.41l41.411-41.411L163.984,337.885z M163.984,463.133l-41.41,41.41
		l-41.411-41.411l41.41-41.41L163.984,463.133z M163.984,588.379l-38.959,38.959l-41.41-41.41l38.959-38.959L163.984,588.379z
		 M185.197,609.592l41.411,41.411l-38.959,38.959l-41.411-41.411L185.197,609.592z M206.409,588.379l41.41-41.41l41.411,41.411
		l-41.41,41.41L206.409,588.379z M310.443,609.592l41.41,41.41l-41.41,41.41l-41.41-41.41L310.443,609.592z M331.656,588.379
		l41.411-41.411l41.41,41.41l-41.411,41.411L331.656,588.379z M435.69,609.592l41.411,41.411l-41.411,41.411l-41.411-41.411
		L435.69,609.592z M456.903,588.379l41.41-41.41l41.411,41.411l-41.41,41.41L456.903,588.379z M560.937,609.592l41.41,41.41
		l-41.41,41.41l-41.41-41.41L560.937,609.592z M582.15,588.379l41.411-41.411l41.41,41.41L623.56,629.79L582.15,588.379z
		 M686.184,609.592l41.411,41.411l-41.411,41.411l-41.411-41.411L686.184,609.592z M707.397,588.379l41.41-41.41l41.411,41.411
		l-41.41,41.41L707.397,588.379z M811.431,609.592l38.959,38.959l-41.41,41.41l-38.959-38.959L811.431,609.592z M832.644,588.379
		l41.411-41.411l38.959,38.959l-41.411,41.411L832.644,588.379z M832.644,463.132l41.411-41.41l41.411,41.41l-41.411,41.411
		L832.644,463.132z M832.644,337.886l41.411-41.411l41.411,41.411l-41.411,41.41L832.644,337.886z M811.431,316.673l-41.411-41.411
		l41.411-41.411l41.411,41.411L811.431,316.673z M744.336,175.699h8.942l36.939,36.939l-41.411,41.411l-41.41-41.41L744.336,175.699
		z M701.911,175.699l-15.727,15.727l-15.727-15.727H701.911z M619.089,175.699h8.942l36.94,36.94l-41.41,41.41l-41.411-41.411
		L619.089,175.699z M576.664,175.699l-15.727,15.727l-15.727-15.727H576.664z M493.843,175.699h8.942l36.939,36.939l-41.411,41.411
		l-41.41-41.41L493.843,175.699z M451.417,175.699l-15.727,15.727l-15.727-15.727H451.417z M368.596,175.699h8.942l36.94,36.94
		l-41.41,41.41l-41.411-41.411L368.596,175.699z M326.17,175.699l-15.727,15.727l-15.727-15.727H326.17z M243.349,175.699h8.942
		l36.939,36.939l-41.411,41.411l-41.41-41.41L243.349,175.699z M200.923,175.699l-15.727,15.727l-15.727-15.727H200.923z
		 M71.15,175.699h55.894l36.94,36.94l-41.41,41.41L71.15,202.626V175.699z M71.15,245.052l30.21,30.21l-30.21,30.21V245.052z
		 M71.15,370.299l30.21,30.21l-30.21,30.21V370.299z M71.15,495.546l30.21,30.21l-30.21,30.21V495.546z M71.15,615.89l32.661,32.661
		L71.15,681.212V615.89z M128.153,749.457H71.15v-25.819l53.874-53.874l41.411,41.411L128.153,749.457z M170.579,749.457
		l17.069-17.069l17.069,17.069H170.579z M253.399,749.457h-6.256l-38.282-38.282l38.959-38.959l41.41,41.41L253.399,749.457z
		 M295.825,749.457l14.618-14.618l14.618,14.618H295.825z M378.646,749.457h-11.159l-35.831-35.831l41.41-41.41l41.411,41.411
		L378.646,749.457z M421.072,749.457l14.618-14.618l14.618,14.618H421.072z M503.893,749.457h-11.159l-35.831-35.831l41.411-41.411
		l41.41,41.41L503.893,749.457z M546.319,749.457l14.618-14.618l14.618,14.618H546.319z M629.14,749.457h-11.159l-35.831-35.831
		l41.41-41.41l41.411,41.411L629.14,749.457z M671.566,749.457l14.618-14.618l14.618,14.618H671.566z M749.484,749.457h-6.256
		l-35.831-35.831l41.411-41.411l38.959,38.959L749.484,749.457z M791.91,749.457l17.07-17.07l17.07,17.07H791.91z M924.15,749.457
		h-55.676l-38.282-38.282l41.41-41.41l52.548,52.548V749.457z M924.15,679.886l-31.335-31.335l31.335-31.335V679.886z
		 M924.15,554.639l-28.883-28.883l28.883-28.883V554.639z M924.15,429.392l-28.883-28.883l28.883-28.883V429.392z M924.15,304.146
		l-28.883-28.883l28.883-28.883V304.146z M924.15,203.953l-50.096,50.096l-41.411-41.411l36.939-36.939h54.567V203.953z"/>
</g>
</svg>
