<?xml version="1.0" encoding="utf-8"?>
<!-- Generator: Adobe Illustrator 17.1.0, SVG Export Plug-In . SVG Version: 6.00 Build 0)  -->
<!DOCTYPE svg PUBLIC "-//W3C//DTD SVG 1.1//EN" "http://www.w3.org/Graphics/SVG/1.1/DTD/svg11.dtd">
<svg version="1.1" id="Capa_1" xmlns="http://www.w3.org/2000/svg" xmlns:xlink="http://www.w3.org/1999/xlink" x="0px" y="0px"
	 width="1000px" height="1000px" viewBox="0 0 1000 1000" enable-background="new 0 0 1000 1000" xml:space="preserve">
<g>
	<path d="M698.568,570.652c4.652,0,9.026-1.205,12.833-3.313c8.188-4.534,13.745-13.261,13.745-23.265V33.269
		c0-14.655-11.923-26.578-26.578-26.578H382.864c-14.655,0-26.578,11.923-26.578,26.578v510.805c0,4.442,1.101,8.63,3.036,12.314
		c2.4,4.569,6.089,8.357,10.583,10.878c3.837,2.152,8.256,3.386,12.959,3.386h3.72c-6.946,6.504-11.573,15.413-11.573,25.938
		c0,16.427,10.364,40.653,38.693,41.87l7.14-67.808l1.232-11.698l0.348-3.302l1.579-15h-7.383h-30.335v-5.442V36.691h308.86v503.961
		h-10.983h-41.804h-84.468v4.659v10.341v15v19.635l-0.08,0.048v21.146l14.87,16.952c0.219,0.25,0.43,0.507,0.632,0.771
		c11.792,15.396,11.514,28.913,9.204,37.541c-6.025,22.507-31.107,33.512-33.947,34.692c-1.852,0.77-3.809,1.149-5.757,1.149
		c-2.922,0-5.825-0.853-8.327-2.522c-4.17-2.783-6.674-7.464-6.674-12.478v-79.251l-0.081,0.048v-1.674v-36.058v-15v-15v-54.435
		c0-18.679-15.196-33.875-33.875-33.875s-33.875,15.196-33.875,33.875v0.792l-5.649,53.643l-1.58,15l-1.579,15l-6.272,59.567
		l-7.932,75.331l-2.056,19.526l13.323,241.615h151.422c7.761-26.634,32.87-113.857,53.897-198.585
		c35.652-143.655,34.25-177.105,31.993-184.819c-1.304-4.454-4.725-8.701-10.024-12.634h20.55H698.568z"/>
	<path d="M437.534,355.093l33.564,33.564l4.201,4.201c4.608,4.608,12.08,4.608,16.688,0l5.812-5.812l44.927-44.927l50.739,50.739
		c4.608,4.608,12.08,4.608,16.688,0l37.766-37.766c4.608-4.608,4.608-12.08,0-16.689l-50.739-50.739l50.739-50.738
		c4.608-4.608,4.608-12.08,0-16.688l-37.766-37.766c-4.609-4.608-12.08-4.608-16.688,0l-50.739,50.738l-50.738-50.738
		c-4.608-4.608-12.08-4.608-16.688,0l-37.766,37.766c-4.608,4.608-4.608,12.08,0,16.688l50.739,50.738l-50.739,50.739
		C432.926,343.013,432.926,350.485,437.534,355.093z"/>
</g>
</svg>
