<?xml version="1.0" encoding="utf-8"?>
<!-- Generator: Adobe Illustrator 17.1.0, SVG Export Plug-In . SVG Version: 6.00 Build 0)  -->
<!DOCTYPE svg PUBLIC "-//W3C//DTD SVG 1.1//EN" "http://www.w3.org/Graphics/SVG/1.1/DTD/svg11.dtd">
<svg version="1.1" id="Capa_1" xmlns="http://www.w3.org/2000/svg" xmlns:xlink="http://www.w3.org/1999/xlink" x="0px" y="0px"
	 width="1000px" height="1000px" viewBox="0 0 1000 1000" enable-background="new 0 0 1000 1000" xml:space="preserve">
<g>
	<path d="M718.6,82h-68.7c0,0,0,0,0,0c-3-6.9-6.5-13.7-10.7-20.4c-2.2-3.4-5.3-6.1-9-7.6c-2.2-0.9-4.6-1.4-7.2-1.4
		c-6.4,0-12.5,2.7-16.3,7.3c-0.4,0.5-0.8,1-1.1,1.5c-2.8,4.2-3.9,9.4-3.1,14.4c0.3,2,0.7,3.9,1.1,5.8c0,0.1,0,0.2,0,0.2
		c0.1,0.4,0.1,0.8,0.2,1.2c2.7,14.3,4.9,26.6,1.4,38.5c-0.8,2.7-4.2,8.7-7.1,12.5c-15.2,19.7-33.2,37.9-53.7,54.4
		c-14.4,4.2-30.2,6.6-46.7,6.6c-13.9,0-27.3-1.7-39.8-4.7c-26.5-21.4-44.4-41.8-55.9-57.1c-2.9-3.8-6.1-9.7-6.9-12.5
		c-3.2-11.6-1-23.7,1.6-37.7c0.1-0.4,0.1-0.8,0.2-1.2c0-0.1,0-0.2,0-0.2c0.4-1.9,0.7-3.8,1.1-5.8c1-5.7-0.5-11.5-4.2-15.9
		c-0.5-0.6-1-1.1-1.5-1.6c-3.8-3.6-9.2-5.7-14.8-5.7c-2.6,0-5,0.5-7.2,1.4c-3.7,1.5-6.8,4.2-9,7.6c-4.2,6.6-7.7,13.4-10.7,20.4
		c0,0,0,0,0,0h-66.2c-93.4,0-169.1,75.7-169.1,169.1v278c0,5.5,4.5,10,10,10l108.8,0.1V313.6h27.6l0,642c0,8.6,4.1,10.5,10,10.5
		l460.1,0c0.3,0,1.6,0,1.6,0c4.8-0.6,8.5-5,8.5-10l0.6-319.8V313.6h28.3v225.7l106.8-0.2c5.5,0,10-4.5,10-10V251
		C887.7,157.7,812,82,718.6,82z M318.1,136.8v799.3h-29.1V136.9c-43.3,1.3-75.9,16-97.1,43.8c-22.9,30-26.3,67.2-26.3,86.7v223.2
		c0,5-3.6,9.5-8.5,10.2c-6.2,0.9-11.5-3.9-11.5-9.9V267.4c0-72.8,39.3-150.6,149.5-150.6h44.5c-1.6,6.7-2.9,13.3-4.1,20L318.1,136.8
		L318.1,136.8z M436.7,936.1h-29.1V231.2c9.8,6.9,19.7,13.4,29.1,19.2V936.1z M467.3,251.2c-9.3-5.3-70.1-46.3-75.6-50.8
		c-3.4-2.7-8.6-4.4-13.3-4.4c-1.7,0-3.4,0.2-4.9,0.7l-31.1,10.1c-1,0.3-2,0.5-2.8,0.5c-3.5,0-4.9-3-3-7.7l1.6-3.9
		c5.9-19.1,8.9-39.1,12.7-58.9c1.3-6.7,2.7-13.4,4.3-20c2.9-12,6.7-23.7,12.1-34.8c0-0.1,0.1-0.2,0.1-0.2
		c1.8-3.8,5.7-15.1,11.4-14.1c2.2,0.4,4,2.4,4.5,4.6c0.7,2.9-0.9,6.6-1.5,9.5c0,0.1,0,0.2,0,0.2c-2.6,14.3-5,28.1-1.2,42.3
		c1.5,5.5,4.1,10.6,7.4,15.2c6.9,9.5,16.4,21.1,28.9,33.9c5.8,6,12.4,12.2,19.6,18.5c0,0,0.1,0.1,0.1,0.1
		c13.4,11.8,29.4,24.1,48.2,36.3c-3.3,2.3-6.5,4.9-9.5,8C470.8,241.1,468.5,246.3,467.3,251.2z M519.5,258.5c-5,2.9-9,10-9,16.1v3.8
		v117.3c0,6.3-4.6,11.3-10.4,11.3h-8.6c-5.7,0-10.4-5.1-10.4-11.3c0-3.7,0-7.4,0-11.1c0-27.2,0-54.4,0-81.6c0-9,0-18,0-27
		c0-2.8,0-5.7,0-8.5c0-0.1,0-0.2,0-0.4c0-2.8-0.1-5.5,0.1-8.1c0.3-4.4,1.4-8.6,4.9-12.3c3.5-3.7,7.8-6.6,12.2-9.3
		c1.5-0.9,3-1.8,4.5-2.6c0.7-0.4,1.4-0.8,2.1-1.3c2.2-1.3,4.4-2.5,6.5-3.9c31.9-19.3,60.7-42.4,85.3-70.4c4.6-5.2,9-10.5,13.3-16.1
		c0.2-0.3,0.4-0.5,0.6-0.8c3.3-4.5,7.5-11.5,9-16.5c2.7-9,2.9-18.5,1.8-27.8c-0.8-7.5-5.1-17.8-4.2-25.2c0.2-2,1.3-3.8,3-4.8
		c6.4-3.8,11.1,9.6,13,13.6c0,0.1,0.1,0.2,0.1,0.2c5.4,11.2,9.2,22.9,12.1,34.8c1.6,6.6,3,13.3,4.3,20c4.1,21.2,7.2,42.8,14.1,63.2
		c0.1,0.4,0.2,0.8,0.2,1.1c0,0.6,0.8,4.2-1.7,5.6c-0.6,0.3-1.3,0.5-2.2,0.5c-0.8,0-1.7-0.2-2.8-0.5l-31.1-10.1
		c-1.5-0.5-3.1-0.7-4.9-0.7c-4.7,0-9.9,1.7-13.3,4.4c-4.3,3.5-8.6,6.9-13,10.2c-8.3,6.2-16.8,12.1-25.1,17.6
		c-18.7,12.4-36.6,22.7-50.3,30.1C519.8,258.4,519.6,258.5,519.5,258.5z M599.2,226.3v104.2h-25.8c-1.1,0-2.2,0.1-3.3,0.2v-84.6
		C579.7,240.1,589.5,233.4,599.2,226.3z M599.2,936.1h-29.1V439.5c8.4,8.7,18.4,14.8,29.1,18.1V936.1z M671.2,386.8
		c0,29.8-24.1,58.5-53.9,58.5c-6.4,0-12.5-1.3-18.1-3.7c-12.4-5.2-22.7-15.3-29.1-27.7c-4.3-8.4-6.7-17.7-6.7-27.2v-31.3
		c0-4.4,2.8-8.1,6.7-9.4c1-0.4,2.1-0.6,3.3-0.6h25.8h62c5.5,0,10,4.5,10,10V386.8z M861.8,491c0,6-5.3,10.8-11.5,9.9
		c-5-0.7-8.5-5.2-8.5-10.2V267.4c0-19.5-3.4-56.7-26.3-86.7c-21.8-28.6-55.7-43.3-100.8-43.9c1.3,0.9,1.9,1.5,1.9,1.5v797.8h-29.1
		V191v-54.2h-22.4c-1.3-6.7-2.6-13.3-4.1-20h51.2c110.3,0,149.5,77.8,149.5,150.6L861.8,491L861.8,491z"/>
</g>
</svg>
