<?xml version="1.0" encoding="utf-8"?>
<!-- Generator: Adobe Illustrator 17.1.0, SVG Export Plug-In . SVG Version: 6.00 Build 0)  -->
<!DOCTYPE svg PUBLIC "-//W3C//DTD SVG 1.1//EN" "http://www.w3.org/Graphics/SVG/1.1/DTD/svg11.dtd">
<svg version="1.1" id="Capa_1" xmlns="http://www.w3.org/2000/svg" xmlns:xlink="http://www.w3.org/1999/xlink" x="0px" y="0px"
	 width="1000px" height="1000px" viewBox="0 0 1000 1000" enable-background="new 0 0 1000 1000" xml:space="preserve">
<g>
	<path d="M411.423,852.042v-15v-15H118.789c-1.39,0-2.521-1.131-2.521-2.521v-773c0-1.39,1.131-2.521,2.521-2.521h477.754
		c1.39,0,2.521,1.131,2.521,2.521v80.438h15h15V46.521c0-17.932-14.589-32.521-32.521-32.521H118.789
		c-17.932,0-32.521,14.589-32.521,32.521v773c0,17.932,14.588,32.521,32.521,32.521H411.423z"/>
	<path d="M936.698,156.958H629.064h-15h-15h-140.12c-9.677,0-17.521,7.844-17.521,17.521v647.562v15v15v95.438
		c0,9.676,7.844,17.521,17.521,17.521h477.754c9.676,0,17.521-7.844,17.521-17.521v-773
		C954.219,164.803,946.375,156.958,936.698,156.958z"/>
</g>
</svg>
