<?xml version="1.0" encoding="utf-8"?>
<!-- Generator: Adobe Illustrator 17.1.0, SVG Export Plug-In . SVG Version: 6.00 Build 0)  -->
<!DOCTYPE svg PUBLIC "-//W3C//DTD SVG 1.1//EN" "http://www.w3.org/Graphics/SVG/1.1/DTD/svg11.dtd">
<svg version="1.1" id="Capa_1" xmlns="http://www.w3.org/2000/svg" xmlns:xlink="http://www.w3.org/1999/xlink" x="0px" y="0px"
	 width="1000px" height="1000px" viewBox="0 0 1000 1000" enable-background="new 0 0 1000 1000" xml:space="preserve">
<g>
	<path d="M846.5,153.5c-45-45-97.4-80.3-155.7-105C630.3,23,566.1,10,500,10S369.7,23,309.3,48.5c-58.4,24.7-110.8,60-155.7,105
		s-80.3,97.4-105,155.7C23,369.7,10,433.9,10,500s13,130.3,38.5,190.7c24.7,58.4,60,110.8,105,155.7s97.4,80.3,155.7,105
		C369.7,977,433.9,990,500,990s130.3-13,190.7-38.5c58.4-24.7,110.8-60,155.7-105s80.3-97.4,105-155.7C977,630.3,990,566.1,990,500
		s-13-130.3-38.5-190.7C926.8,250.9,891.5,198.5,846.5,153.5z M923.9,679c-7.4,17.5-15.8,34.4-25.2,50.7l-3.4-12.9
		c-1.6-6.1-8-10.3-14.3-9.4l-186.4,27.8c-6.3,0.9-13.4,6.4-15.8,12.2l-73.8,173.5c-2.5,5.8,0,13.1,5.5,16.2l11.6,6.6
		C582.6,954.5,541.7,960,500,960s-82.6-5.5-122.1-16.4l11.6-6.6c5.5-3.1,8-10.4,5.5-16.2l-73.8-173.5c-2.5-5.8-9.6-11.3-15.8-12.2
		L119,707.4c-6.3-0.9-12.7,3.3-14.3,9.4l-3.4,12.9c-9.4-16.3-17.8-33.2-25.2-50.7C56.5,632.7,44.8,584,41.2,533.8l10,8.7
		c4.8,4.2,12.4,4,17.1-0.2L207,414.6c4.7-4.3,7.4-12.8,6.2-19l-36.4-185c-1.2-6.2-7.3-10.8-13.6-10.3l-13.2,1.1
		c7.8-9.2,16.1-18.1,24.7-26.7C217,132.5,266.2,99.3,321,76.1c1.4-0.6,2.8-1.2,4.2-1.8L320,86.7c-2.5,5.8,0,13.1,5.6,16.2L490,195
		c5.5,3.1,14.5,3.1,20,0l164.5-92.1c5.5-3.1,8-10.3,5.6-16.2l-5.2-12.3c1.4,0.6,2.8,1.2,4.2,1.8c54.8,23.2,104,56.3,146.2,98.6
		c8.6,8.6,16.8,17.5,24.7,26.7l-13.2-1.1c-6.3-0.5-12.4,4.1-13.6,10.3l-36.4,185c-1.2,6.2,1.6,14.7,6.2,19l138.7,127.6
		c4.7,4.3,12.3,4.4,17.1,0.2l10-8.7C955.2,584,943.5,632.7,923.9,679z"/>
	<path d="M675.2,435.8L509.3,315.2c-5.1-3.7-13.4-3.7-18.6,0L324.8,435.8c-5.1,3.7-7.7,11.6-5.7,17.6l63.4,195c2,6,8.7,10.9,15,10.9
		h205.1c6.3,0,13.1-4.9,15-10.9l63.4-195C682.9,447.4,680.3,439.5,675.2,435.8z"/>
</g>
</svg>
