<?xml version="1.0" encoding="utf-8"?>
<!-- Generator: Adobe Illustrator 17.1.0, SVG Export Plug-In . SVG Version: 6.00 Build 0)  -->
<!DOCTYPE svg PUBLIC "-//W3C//DTD SVG 1.1//EN" "http://www.w3.org/Graphics/SVG/1.1/DTD/svg11.dtd">
<svg version="1.1" id="Capa_1" xmlns="http://www.w3.org/2000/svg" xmlns:xlink="http://www.w3.org/1999/xlink" x="0px" y="0px"
	 width="1000px" height="1000px" viewBox="0 0 1000 1000" enable-background="new 0 0 1000 1000" xml:space="preserve">
<g>
	<path d="M198.6,531.4h246.1c-1.6,26.5,7.5,52.2,26.6,75.3c21.4,25.9,54.4,47.3,95.3,62.1c27.4,9.9,56.9,16,86,18.2L377.9,963.1
		c-5.8,5.9-5.8,15.4,0.1,21.2c2.9,2.9,6.8,4.4,10.6,4.4c3.9,0,7.7-1.5,10.6-4.4l454.8-457.3c3-3,4.5-7.1,4.3-11.2c0-0.1,0-0.2,0-0.4
		V23.7c0-8.3-6.7-15-15-15s-15,6.7-15,15v477.7H198.6c-8.3,0-15,6.7-15,15S190.3,531.4,198.6,531.4z M681.7,657.7
		c-2.4,0.1-4.8,0.1-7.2,0.1c-71.4,0-145.5-28.5-180.1-70.2c-14.7-17.7-21.3-36.6-19.6-56.2h332.5L681.7,657.7z"/>
	<path d="M569.6,168.6l219.9,129.2c5.3,3.1,9.5,0.6,9.5-5.4V33.7c0-6.1-4.3-8.5-9.5-5.4L569.6,157.4
		C564.4,160.5,564.4,165.5,569.6,168.6z"/>
</g>
</svg>
