<?xml version="1.0" encoding="utf-8"?>
<!-- Generator: Adobe Illustrator 17.1.0, SVG Export Plug-In . SVG Version: 6.00 Build 0)  -->
<!DOCTYPE svg PUBLIC "-//W3C//DTD SVG 1.1//EN" "http://www.w3.org/Graphics/SVG/1.1/DTD/svg11.dtd">
<svg version="1.1" id="Capa_1" xmlns="http://www.w3.org/2000/svg" xmlns:xlink="http://www.w3.org/1999/xlink" x="0px" y="0px"
	 width="1000px" height="1000px" viewBox="0 0 1000 1000" enable-background="new 0 0 1000 1000" xml:space="preserve">
<g>
	<path d="M975,461.589h-65.112V311.663c0-5.219-4.231-9.45-9.45-9.45H99.561c-5.219,0-9.45,4.231-9.45,9.45v149.927H25
		c-8.284,0-15,6.716-15,15v190.872c0,8.284,6.716,15,15,15h65.112V762.4c0,5.219,4.231,9.45,9.45,9.45h800.877
		c5.219,0,9.45-4.231,9.45-9.45v-79.938H975c8.284,0,15-6.716,15-15V476.589C990,468.305,983.284,461.589,975,461.589z
		 M90.112,652.461H40V491.589h50.112V652.461z M730.971,329.77h38.704v8.24h-14.418v40.464h-9.834V338.01h-14.451V329.77z
		 M685.257,329.77h9.834v26.378c0,4.186,0.121,6.899,0.366,8.139c0.42,1.993,1.423,3.594,3.007,4.8
		c1.583,1.208,3.748,1.811,6.495,1.811c2.791,0,4.895-0.57,6.313-1.71c1.417-1.141,2.27-2.542,2.558-4.203
		c0.288-1.661,0.432-4.419,0.432-8.273V329.77h9.834v25.581c0,5.847-0.266,9.978-0.797,12.391c-0.531,2.415-1.512,4.452-2.94,6.113
		c-1.429,1.661-3.339,2.985-5.731,3.97c-2.392,0.985-5.515,1.478-9.369,1.478c-4.651,0-8.179-0.537-10.581-1.611
		c-2.403-1.074-4.302-2.469-5.698-4.186c-1.395-1.716-2.314-3.516-2.758-5.399c-0.643-2.791-0.963-6.91-0.963-12.359V329.77z
		 M632.634,341.93c1.107-2.48,2.618-4.706,4.535-6.678c1.916-1.971,4.014-3.433,6.296-4.385c3.034-1.284,6.533-1.927,10.498-1.927
		c7.176,0,12.918,2.226,17.226,6.678c4.307,4.451,6.461,10.642,6.461,18.571c0,7.863-2.138,14.015-6.412,18.455
		c-4.275,4.441-9.989,6.661-17.142,6.661c-7.242,0-13.001-2.209-17.275-6.628c-4.275-4.418-6.412-10.503-6.412-18.255
		C630.408,349.46,631.15,345.296,632.634,341.93z M291.872,328.726h9.568l19.933,32.525v-32.525h9.136v48.704h-9.867l-19.634-31.76
		v31.76h-9.136V328.726z M272.57,328.726h9.834v48.704h-9.834V328.726z M485,742.152H127.952c-4.849,0-8.78-3.696-8.78-8.255
		v-51.436v-30V491.589v-30v-51.436c0-4.559,3.931-8.255,8.78-8.255H485V742.152z M880.828,461.589v30v160.872v30v51.436
		c0,4.559-3.931,8.255-8.78,8.255H515V401.899h357.048c4.849,0,8.78,3.696,8.78,8.255V461.589z M960,652.461h-50.112V491.589H960
		V652.461z"/>
	<path d="M654.062,370.899c3.92,0,7.137-1.412,9.651-4.236c2.514-2.823,3.771-7.06,3.771-12.707c0-5.581-1.224-9.745-3.671-12.491
		c-2.448-2.746-5.697-4.119-9.751-4.119s-7.32,1.39-9.801,4.169c-2.481,2.78-3.721,6.971-3.721,12.574
		c0,5.515,1.273,9.696,3.82,12.542C646.908,369.477,650.142,370.899,654.062,370.899z"/>
	<path d="M170.223,531.129c9.824-5.751,18.902-12.519,27.232-20.308v171.024h45.381V444.124h-36.821
		c-5.168,14.429-14.696,27.051-28.585,37.871c-2.434,1.896-4.836,3.68-7.207,5.363c-10.632,7.546-20.632,12.945-30,16.203
		c-0.464,0.161-0.93,0.327-1.391,0.478v41.182c0.467-0.154,0.926-0.321,1.391-0.479
		C150.894,541.119,160.898,536.587,170.223,531.129z"/>
	<path d="M387.375,685.883c22.933,0,40.803-8.075,53.617-24.225c15.504-19.594,23.255-51.785,23.255-96.574
		c0-44.896-7.699-77.034-23.094-96.413c-12.92-16.364-30.846-24.547-53.778-24.547c-22.932,0-40.805,8.075-53.617,24.225
		c-15.504,19.596-23.255,51.678-23.255,96.251c0,45.436,7.051,77.008,21.156,94.717
		C345.762,677.029,364.334,685.883,387.375,685.883z M362.666,505.815c2.367-9.044,5.705-15.314,10.013-18.814
		c4.305-3.497,9.205-5.249,14.696-5.249s10.361,1.751,14.616,5.249c4.252,3.5,7.777,10.444,10.578,20.833
		c2.799,10.391,4.199,29.473,4.199,57.251c0,27.777-1.562,47.479-4.684,59.107c-2.37,9.044-5.708,15.317-10.013,18.814
		c-4.307,3.5-9.205,5.249-14.696,5.249s-10.363-1.721-14.615-5.168c-4.255-3.444-7.779-10.361-10.578-20.752
		c-2.801-10.389-4.199-29.473-4.199-57.25C357.982,537.307,359.542,517.551,362.666,505.815z"/>
	<path d="M736.625,554.021c10.336-4.522,18.355-11.062,24.063-19.622c5.705-8.559,8.559-18.33,8.559-29.312
		c0-17.656-6.218-32.244-18.653-43.766c-12.435-11.519-29.904-17.28-52.405-17.28c-22.718,0-40.24,5.761-52.567,17.28
		c-12.329,11.522-18.491,26.109-18.491,43.766c0,10.336,2.665,19.838,7.994,28.504c5.33,8.668,13.861,15.479,25.597,20.429
		c-13.674,5.814-23.686,14.078-30.038,24.79c-6.354,10.714-9.528,22.476-9.528,35.287c0,23.255,8.451,41.56,25.355,54.908
		c14.317,11.305,32.244,16.957,53.778,16.957c23.147,0,41.691-6.836,55.636-20.51c13.941-13.672,20.913-31.436,20.913-53.294
		c0-13.243-3.419-24.923-10.255-35.045C759.745,566.997,749.76,559.298,736.625,554.021z M677.841,487.808
		c5.168-5.168,12.112-7.752,20.833-7.752c8.398,0,15.153,2.559,20.268,7.671c5.112,5.115,7.671,11.926,7.671,20.429
		c0,9.044-2.584,16.124-7.752,21.237c-5.168,5.115-12.06,7.671-20.672,7.671c-8.506,0-15.317-2.528-20.429-7.59
		c-5.115-5.06-7.671-12.112-7.671-21.156C670.089,499.814,672.673,492.976,677.841,487.808z M722.737,639.372
		c-6.137,6.73-13.888,10.093-23.255,10.093c-9.584,0-17.578-3.497-23.982-10.497c-6.406-6.997-9.609-16.74-9.609-29.231
		c0-8.935,2.718-17.224,8.156-24.87c5.435-7.643,13.699-11.466,24.79-11.466c9.581,0,17.494,3.366,23.74,10.094
		c6.243,6.73,9.367,15.64,9.367,26.727C731.942,622.927,728.874,632.645,722.737,639.372z"/>
</g>
</svg>
