<?xml version="1.0" encoding="utf-8"?>
<!-- Generator: Adobe Illustrator 17.1.0, SVG Export Plug-In . SVG Version: 6.00 Build 0)  -->
<!DOCTYPE svg PUBLIC "-//W3C//DTD SVG 1.1//EN" "http://www.w3.org/Graphics/SVG/1.1/DTD/svg11.dtd">
<svg version="1.1" id="Capa_1" xmlns="http://www.w3.org/2000/svg" xmlns:xlink="http://www.w3.org/1999/xlink" x="0px" y="0px"
	 width="1000px" height="1000px" viewBox="0 0 1000 1000" enable-background="new 0 0 1000 1000" xml:space="preserve">
<g>
	<path d="M973.4,183.5H26.6c-5.5,0-10,4.5-10,10v610.3c0,5.5,4.5,10,10,10h946.8c5.5,0,10-4.5,10-10V193.5
		C983.4,188,978.9,183.5,973.4,183.5z M448.4,747c0,8.3-6.7,15-15,15H82.6c-8.3,0-15-6.7-15-15V250.3c0-8.3,6.7-15,15-15h350.9
		c8.3,0,15,6.7,15,15L448.4,747L448.4,747z M499.1,603.1c-19.3,0-19.3-30,0-30C518.4,573.1,518.4,603.1,499.1,603.1z M499.1,423.6
		c-19.3,0-19.3-30,0-30C518.4,393.6,518.4,423.6,499.1,423.6z M930.4,747c0,8.3-6.7,15-15,15H564.6c-8.3,0-15-6.7-15-15V250.3
		c0-8.3,6.7-15,15-15h350.9c8.3,0,15,6.7,15,15L930.4,747L930.4,747z"/>
	<path d="M97.6,732h320.9V265.3H97.6V732z M336.7,688.6H179.4c-8.3,0-15-6.7-15-15s6.7-15,15-15h157.3c8.3,0,15,6.7,15,15
		S345,688.6,336.7,688.6z M364.7,343.6c8.3,0,15,6.7,15,15v278c0,8.3-6.7,15-15,15s-15-6.7-15-15v-278
		C349.7,350.4,356.4,343.6,364.7,343.6z M180.4,306.6h157.3c8.3,0,15,6.7,15,15s-6.7,15-15,15H180.4c-8.3,0-15-6.7-15-15
		S172.1,306.6,180.4,306.6z M136.4,358.6c0-8.3,6.7-15,15-15s15,6.7,15,15v278c0,8.3-6.7,15-15,15s-15-6.7-15-15V358.6z"/>
	<path d="M579.6,732h320.9V265.3H579.6V732z M833.6,355.6c0-8.3,6.7-15,15-15s15,6.7,15,15v106c0,8.3-6.7,15-15,15s-15-6.7-15-15
		V355.6z M833.6,535.1c0-8.3,6.7-15,15-15s15,6.7,15,15v106c0,8.3-6.7,15-15,15s-15-6.7-15-15V535.1z M661.3,306.6h157.3
		c8.3,0,15,6.7,15,15s-6.7,15-15,15H661.3c-8.3,0-15-6.7-15-15S653,306.6,661.3,306.6z M661.3,483.6h157.3c8.3,0,15,6.7,15,15
		s-6.7,15-15,15H661.3c-8.3,0-15-6.7-15-15S653,483.6,661.3,483.6z M661.3,660.6h157.3c8.3,0,15,6.7,15,15s-6.7,15-15,15H661.3
		c-8.3,0-15-6.7-15-15S653,660.6,661.3,660.6z"/>
</g>
</svg>
