<?xml version="1.0" encoding="utf-8"?>
<!-- Generator: Adobe Illustrator 17.1.0, SVG Export Plug-In . SVG Version: 6.00 Build 0)  -->
<!DOCTYPE svg PUBLIC "-//W3C//DTD SVG 1.1//EN" "http://www.w3.org/Graphics/SVG/1.1/DTD/svg11.dtd">
<svg version="1.1" id="Capa_1" xmlns="http://www.w3.org/2000/svg" xmlns:xlink="http://www.w3.org/1999/xlink" x="0px" y="0px"
	 width="1000px" height="1000px" viewBox="0 0 1000 1000" enable-background="new 0 0 1000 1000" xml:space="preserve">
<path d="M672.177,385.647h-99.188c-5.523,0-10,4.477-10,10v35.646c0,32.913,26.681,64.703,59.594,64.703
	c32.913,0,59.594-31.79,59.594-64.703v-35.646C682.177,390.125,677.7,385.647,672.177,385.647z M659.366,433.963
	c0,20.314-16.468,39.655-36.783,39.655c-20.315,0-36.783-19.34-36.783-39.655v-18.174c0-5.523,4.477-10,10-10h53.566
	c5.523,0,10,4.477,10,10V433.963z"/>
<path d="M963.812,318.008c-66.023-30.044-132.146-59.879-198.079-90.121c-42.071-19.297-82.406-45.431-130.168-45.431h-25.353
	c-4.75,0-8.497,3.921-9.797,8.491c-7.5,26.373-49.385,46.561-99.932,46.561c-50.547,0-92.432-20.188-99.932-46.561
	c-1.3-4.569-5.047-8.491-9.797-8.491c0,0-25.353,0-25.354,0c-52.053,0-100.577,31.706-146.66,52.251
	c-49.961,22.274-99.432,45.614-149.296,68.106c-11.11,5.011-22.152,10.187-33.257,15.194c-13.833,6.239-19.99,22.51-13.751,36.343
	l51.125,113.362c6.238,13.833,22.51,19.989,36.342,13.75l102.235-50.92v396.518c0,84.645,576.69,84.645,576.69,0V429.469
	l101.268,51.994c13.833,6.239,30.104,0.082,36.342-13.75l51.125-113.362C983.803,340.518,977.646,324.247,963.812,318.008z
	 M712.177,431.294c0,23.278-9.145,46.856-25.091,64.69c-8.127,9.089-17.583,16.313-28.103,21.47
	c-11.566,5.668-23.812,8.543-36.4,8.543s-24.834-2.875-36.4-8.543c-10.521-5.157-19.976-12.38-28.104-21.47
	c-15.945-17.834-25.091-41.412-25.091-64.69v-35.646c0-22.056,17.944-40,40-40h99.188c22.056,0,40,17.944,40,40V431.294z
	 M939.007,345.554c-3.433,7.54-12.328,10.866-19.866,7.44c-10.889-4.955-20.724-9.407-29.869-13.53
	c-16-7.213-29.869-13.412-43.434-19.475c-25.868-11.561-50.302-22.48-86.357-39.019c-8.841-4.055-17.651-8.427-26.172-12.655
	c-32.552-16.152-63.298-31.409-97.742-31.409h-3.439c-13.444,37.54-85.8,55.052-131.643,55.052s-118.199-17.514-131.643-55.052
	h-3.441c-36.607,0.001-72.854,17.956-107.908,35.319c-10.718,5.309-21.801,10.799-32.643,15.633
	c-27.734,12.364-55.819,25.289-82.979,37.789c-11.805,5.433-23.83,10.965-35.91,16.492c-10.109,4.625-20.255,9.245-30.348,13.797
	c-2.002,0.903-4.098,1.331-6.159,1.331c-5.718,0-11.179-3.286-13.683-8.836c-3.406-7.552-0.045-16.436,7.506-19.841
	c22.052-9.947,44.42-20.241,66.052-30.196c27.24-12.536,55.408-25.5,83.306-37.937c10.286-4.586,20.611-9.7,31.542-15.115
	c38.147-18.896,77.594-38.436,121.225-38.437h7.3c11.19,0,20.926,7.791,24.225,19.387c1.556,5.47,11.312,14.834,33.692,23.23
	c20.755,7.786,46.874,12.435,69.867,12.435s49.112-4.648,69.867-12.435c22.38-8.396,32.137-17.761,33.692-23.229
	c3.296-11.596,13.031-19.388,24.225-19.388h7.298c41.479,0,76.86,17.558,111.077,34.536c8.318,4.128,16.92,8.396,25.345,12.261
	c35.923,16.477,60.291,27.367,86.09,38.897c21.365,9.548,43.458,19.422,73.489,33.087
	C939.106,329.119,942.438,338.014,939.007,345.554z"/>
</svg>
