<?xml version="1.0" encoding="utf-8"?>
<!-- Generator: Adobe Illustrator 17.1.0, SVG Export Plug-In . SVG Version: 6.00 Build 0)  -->
<!DOCTYPE svg PUBLIC "-//W3C//DTD SVG 1.1//EN" "http://www.w3.org/Graphics/SVG/1.1/DTD/svg11.dtd">
<svg version="1.1" id="Capa_1" xmlns="http://www.w3.org/2000/svg" xmlns:xlink="http://www.w3.org/1999/xlink" x="0px" y="0px"
	 width="1000px" height="1000px" viewBox="0 0 1000 1000" enable-background="new 0 0 1000 1000" xml:space="preserve">
<g>
	<path d="M254.131,730.881c0,135.722,110.025,245.747,245.747,245.747c135.723,0,245.747-110.025,245.747-245.747
		S635.601,485.133,499.878,485.133C364.156,485.133,254.131,595.158,254.131,730.881z M506.444,886.931
		c-2.634-13.682-4.137-38.399,15.165-50.979c4.626-3.016,11.181-0.409,12.602,4.927c2.874,10.792,3.755,29.406-14.833,47.261
		c16.459-1.934,32.358-6.336,47.261-13.029c-0.405-0.508-0.77-1.092-1.076-1.762c-5.513-12.096-12.208-34.135,2.247-50.033
		c3.715-4.086,10.719-3.123,13.333,1.742c4.764,8.865,9.276,24.31-0.966,43.194c12.591-7.154,24.298-16.051,34.815-26.568
		c0.601-0.601,1.188-1.213,1.778-1.822c-0.628-0.445-1.229-1.007-1.771-1.72c-7.396-9.729-17.316-27.407-8.5-44.232
		c2.563-4.892,9.634-5.559,13.221-1.359c5.524,6.468,11.676,17.656,8.867,33.733c8.301-10.675,15.166-22.246,20.504-34.47
		c-0.902-0.362-1.793-0.942-2.619-1.785c-7.891-8.054-18.498-22.567-13.102-38.597c1.762-5.234,8.714-6.843,12.766-3.09
		c4.4,4.076,9.297,10.504,11.149,19.821c3.386-12.952,5.18-26.409,5.281-40.135c-0.645-0.139-1.308-0.366-1.98-0.708
		c-9.283-4.715-22.31-13.993-22.833-29.091c-0.191-5.52,5.878-9.341,10.899-7.04c3.708,1.7,7.944,4.396,11.649,8.653
		c-2.173-12.696-5.878-25.006-11.052-36.813c-8.931-1.351-21.121-5.266-26.15-16.441c-2.267-5.036,2.203-10.733,7.688-10.086
		c3.97,0.468,8.692,1.79,13.325,4.857c-4.098-7.948-7.756-19.546-2.062-29.869c2.667-4.836,9.907-4.681,12.682,0.094
		c3.81,6.555,6.842,17.081,0.577,30.773c-0.074,0.163-0.161,0.306-0.242,0.458c4.116,7.587,7.658,15.448,10.603,23.522
		c1.577-5.545,4.564-10.821,9.823-14.786c4.41-3.325,11.024-0.549,12.021,4.884c1.573,8.564,0.811,21.712-12.709,34.135
		c-0.627,0.576-1.282,1.003-1.942,1.319c2.302,11.431,3.488,23.119,3.488,34.904c0,4.704-0.189,9.379-0.553,14.022
		c4.471-5.387,10.48-9.755,18.507-11.007c5.457-0.851,10.091,4.576,8.629,9.902c-2.495,9.093-9.563,21.959-29.458,27.339
		c-0.628,0.17-1.233,0.258-1.812,0.284c-2.253,9.561-5.305,18.934-9.167,28.067c-2.253,5.328-4.756,10.517-7.498,15.56
		c9.003-5.909,20.79-10.225,33.164-5.374c5.142,2.016,6.574,8.972,2.79,12.995c-7.003,7.445-20.675,16.544-43.137,10.761
		c-1.309-0.337-2.375-0.912-3.185-1.641c-5.894,8.424-12.534,16.352-19.903,23.721c-3.226,3.226-6.562,6.307-9.996,9.254
		c12.044-1.303,21.471,2.673,27.532,6.542c4.656,2.971,5.082,10.031,0.717,13.415c-16.803,13.026-38.043,4.786-49.604-1.58
		c-0.773-0.426-1.412-0.929-1.941-1.476c-7.256,4.4-14.842,8.278-22.73,11.614c-5.268,2.228-10.617,4.185-16.035,5.879
		c14.968,3.885,23.292,13.475,27.611,20.745c2.821,4.748,0.1,11.256-5.292,12.454c-22.49,4.998-39.106-13.362-47.044-24.813
		c-0.555-0.801-0.931-1.614-1.157-2.412c-5.063,0.768-10.174,1.305-15.321,1.63c3.916,7.946,5.117,20.121-4.937,37.475
		c-2.769,4.779-8.699,5.235-11.896,0.731c-6.109-8.604-13.245-23.329-5.167-38.134c-5.548-0.314-11.053-0.877-16.504-1.703
		c-0.227,0.799-0.603,1.611-1.158,2.412c-7.938,11.451-24.554,29.811-47.044,24.813c-5.391-1.198-8.112-7.706-5.291-12.454
		c4.319-7.27,12.643-16.86,27.611-20.745c-5.418-1.694-10.767-3.65-16.035-5.879c-7.888-3.337-15.474-7.215-22.729-11.615
		c-0.53,0.547-1.168,1.051-1.942,1.477c-11.562,6.366-32.802,14.607-49.604,1.58c-4.365-3.384-3.938-10.444,0.717-13.415
		c6.06-3.867,15.481-7.842,27.52-6.543c-0.914-0.784-1.82-1.578-2.719-2.382c-4.117-3.682-10.453-10.018-14.134-14.134
		c-4.688-5.241-9.033-10.734-13.036-16.454c-0.811,0.727-1.875,1.302-3.182,1.638c-22.462,5.783-36.134-3.316-43.137-10.761
		c-3.784-4.023-2.352-10.979,2.79-12.995c12.377-4.852,24.167-0.533,33.17,5.379c-2.743-5.046-5.25-10.234-7.504-15.564
		c-3.863-9.132-6.915-18.506-9.167-28.067c-0.579-0.025-1.183-0.114-1.812-0.284c-19.894-5.379-26.962-18.246-29.458-27.339
		c-1.461-5.326,3.172-10.753,8.629-9.902c8.027,1.251,14.036,5.62,18.507,11.006c-0.364-4.643-0.553-9.318-0.553-14.022
		c0-11.784,1.187-23.473,3.488-34.904c-0.66-0.316-1.314-0.743-1.941-1.319c-13.52-12.422-14.282-25.57-12.709-34.135
		c0.998-5.432,7.611-8.209,12.021-4.884c5.259,3.965,8.247,9.241,9.823,14.786c2.945-8.075,6.487-15.935,10.604-23.522
		c-0.081-0.152-0.168-0.296-0.243-0.458c-6.265-13.692-3.232-24.218,0.578-30.773c2.775-4.775,10.015-4.93,12.682-0.094
		c5.694,10.323,2.036,21.922-2.062,29.869c4.633-3.067,9.355-4.389,13.325-4.857c5.485-0.647,9.955,5.05,7.688,10.086
		c-5.029,11.174-17.219,15.09-26.15,16.441c-5.174,11.807-8.88,24.117-11.052,36.814c3.705-4.257,7.941-6.953,11.649-8.653
		c5.021-2.302,11.09,1.52,10.899,7.04c-0.523,15.098-13.55,24.376-22.833,29.091c-0.673,0.342-1.336,0.568-1.981,0.708
		c0.102,13.726,1.896,27.183,5.282,40.135c1.851-9.317,6.748-15.745,11.148-19.821c4.052-3.753,11.004-2.144,12.766,3.09
		c5.396,16.03-5.211,30.542-13.102,38.597c-0.825,0.843-1.717,1.423-2.619,1.785c5.339,12.224,12.204,23.795,20.505,34.47
		c-2.81-16.077,3.342-27.265,8.867-33.733c3.587-4.199,10.658-3.533,13.221,1.359c8.815,16.825-1.105,34.503-8.501,44.232
		c-0.542,0.713-1.142,1.276-1.771,1.721c0.59,0.609,1.177,1.22,1.778,1.822c10.518,10.518,22.225,19.415,34.816,26.568
		c-10.243-18.884-5.73-34.329-0.967-43.194c2.614-4.865,9.618-5.828,13.333-1.742c14.455,15.898,7.76,37.937,2.247,50.033
		c-0.306,0.671-0.671,1.254-1.076,1.762c14.903,6.693,30.802,11.096,47.261,13.029c-18.587-17.855-17.706-36.469-14.832-47.261
		c1.421-5.337,7.975-7.943,12.602-4.927c19.301,12.58,17.798,37.297,15.165,50.979c-0.157,0.815-0.417,1.537-0.742,2.182
		c2.354,0.1,4.715,0.16,7.085,0.16c0.075,0,0.147,0.009,0.222,0.011c0.075-0.002,0.147-0.011,0.223-0.011
		c2.37,0,4.731-0.06,7.084-0.16C506.86,888.468,506.601,887.746,506.444,886.931z"/>
	<path d="M449.527,26.628H234.963c-5.552,0-8.285,4.139-6.104,9.245l164.688,385.498l117.335-274.655L463.53,35.873
		C461.348,30.767,455.079,26.628,449.527,26.628z"/>
	<path d="M810.725,26.628H596.162c-5.552,0-11.821,4.139-14.002,9.245l-59.315,138.843L409.637,439.708
		c-2.181,5.105,0.551,9.244,6.103,9.245h0.001h214.206h0.357c5.552,0,11.821-4.139,14.003-9.245L816.829,35.873
		C819.01,30.767,816.277,26.628,810.725,26.628z"/>
</g>
</svg>
