<?xml version="1.0" encoding="utf-8"?>
<!-- Generator: Adobe Illustrator 17.1.0, SVG Export Plug-In . SVG Version: 6.00 Build 0)  -->
<!DOCTYPE svg PUBLIC "-//W3C//DTD SVG 1.1//EN" "http://www.w3.org/Graphics/SVG/1.1/DTD/svg11.dtd">
<svg version="1.1" id="Capa_1" xmlns="http://www.w3.org/2000/svg" xmlns:xlink="http://www.w3.org/1999/xlink" x="0px" y="0px"
	 width="1000px" height="1000px" viewBox="0 0 1000 1000" enable-background="new 0 0 1000 1000" xml:space="preserve">
<path d="M139.064,120.84c-2.646,0.716-5.125,2.068-7.101,4.043c-6.317,6.317-5.961,16.275,0,22.637
	c40.233,42.938,80.104,87.877,114.34,134.347c15.015,20.382,29.469,41.594,42.506,63.474c7.917,14.344,15.715,28.753,23.29,43.28
	c7.435,15.559,13.945,31.382,19.237,47.423c5.926,17.96,9.983,36.497,11.713,54.603c0.303,3.174,0.544,6.351,0.759,9.531
	c-1.03-0.056-2.067-0.089-3.111-0.089c-31.236,0-56.557,25.322-56.557,56.557c0,31.236,25.321,56.557,56.557,56.557
	c1.19,0,2.368-0.049,3.54-0.122c3.89,0.064,7.713-0.651,11.404-1.889c16.505-4.512,29.993-16.308,36.803-31.724
	c0.903-1.433,1.778-2.88,2.591-4.356l36.786,287.04h-25.118c-5.219,0-9.449,4.23-9.449,9.449v32.126c0,0.978,0.149,1.92,0.424,2.807
	h-26.875c-7.134,0-12.918,5.783-12.918,12.917v43.92c0,7.134,5.783,12.917,12.918,12.917h267.393
	c7.134,0,12.918-5.783,12.918-12.917v-43.92c0-7.134-5.783-12.917-12.918-12.917h-26.875c0.276-0.887,0.424-1.83,0.424-2.807
	v-32.126c0-5.219-4.23-9.449-9.449-9.449h-25.118l36.786-287.04c0.813,1.476,1.688,2.923,2.591,4.356
	c6.81,15.417,20.297,27.212,36.803,31.724c3.691,1.238,7.514,1.953,11.404,1.889c1.172,0.073,2.35,0.122,3.54,0.122
	c31.236,0,56.557-25.322,56.557-56.557c0-31.235-25.321-56.557-56.557-56.557c-1.044,0-2.081,0.033-3.111,0.089
	c0.215-3.179,0.456-6.357,0.759-9.531c1.73-18.106,5.787-36.643,11.713-54.603c5.292-16.04,11.803-31.864,19.237-47.423
	c7.575-14.526,15.373-28.936,23.29-43.28c13.037-21.88,27.49-43.093,42.506-63.474c34.236-46.47,74.107-91.409,114.34-134.347
	c5.961-6.362,6.317-16.32,0-22.637c-1.976-1.976-4.455-3.327-7.101-4.043c-2.076-1.072-4.539-1.712-7.419-1.712H704.584
	c-0.697,0,14.015-82.364,14.015-82.364c1.124-5.785-2.742-10.475-8.635-10.475H504.5H299.036c-5.893,0-9.76,4.69-8.635,10.475
	l16.031,82.477c-0.65-0.071-159.949-0.113-159.949-0.113C143.603,119.129,141.14,119.768,139.064,120.84z M694.294,161.813h87.978
	c-19.951,42.46-42.771,83.506-65.732,124.41c-8.263,14.721-16.542,29.437-24.699,44.219c-7.214,12.23-14.03,24.687-20.313,37.423
	c-0.536,1.086-1.066,2.179-1.598,3.271c-0.159,0.305-0.321,0.608-0.48,0.913c-7.544,14.48-14.89,29.068-21.839,43.845
	c-1.393,2.961-2.878,5.879-4.406,8.777L694.294,161.813z M362.871,72.626h137.062v754.065h-23.839
	c-5.894,0-11.291-4.738-12.066-10.58c-7.987-60.208-49.689-369.792-110.076-732.958C352.986,77.339,356.978,72.626,362.871,72.626z
	 M314.706,161.813l51.09,262.856c-1.528-2.897-3.014-5.815-4.406-8.777c-6.949-14.776-14.295-29.364-21.839-43.845
	c-0.159-0.305-0.321-0.608-0.48-0.913c-0.531-1.091-1.062-2.184-1.598-3.271c-6.283-12.736-13.099-25.193-20.313-37.423
	c-8.157-14.782-16.435-29.498-24.699-44.219c-22.961-40.904-45.781-81.95-65.732-124.41H314.706z"/>
</svg>
