<?xml version="1.0" encoding="utf-8"?>
<!-- Generator: Adobe Illustrator 17.1.0, SVG Export Plug-In . SVG Version: 6.00 Build 0)  -->
<!DOCTYPE svg PUBLIC "-//W3C//DTD SVG 1.1//EN" "http://www.w3.org/Graphics/SVG/1.1/DTD/svg11.dtd">
<svg version="1.1" id="Capa_1" xmlns="http://www.w3.org/2000/svg" xmlns:xlink="http://www.w3.org/1999/xlink" x="0px" y="0px"
	 width="1000px" height="1000px" viewBox="0 0 1000 1000" enable-background="new 0 0 1000 1000" xml:space="preserve">
<g>
	<path d="M325.3,748.6c0,99.6,80.7,180.3,180.3,180.3s180.3-80.7,180.3-180.3s-80.7-180.3-180.3-180.3S325.3,649,325.3,748.6z
		 M393.4,709.3h83.2l25.7-79.1c1.8-5.6,4.7-5.6,6.5,0l25.7,79.1h83.2c5.8,0,6.8,2.8,2,6.2l-67.3,48.9l25.7,79.1
		c1.8,5.6-0.6,7.3-5.3,3.8l-67.3-48.9l-67.3,48.9c-4.7,3.4-7.1,1.7-5.3-3.8l25.7-79.1l-67.3-48.9
		C386.6,712.1,387.5,709.3,393.4,709.3z"/>
	<path d="M341.8,584.8c-43.7,43.7-67.8,101.9-67.8,163.8c0,61.9,24.1,120,67.8,163.8s101.9,67.8,163.8,67.8
		c61.9,0,120-24.1,163.8-67.8s67.8-101.9,67.8-163.8c0-61.9-24.1-120-67.8-163.8c-40.3-40.3-92.9-63.9-149.3-67.4v-13.6h165.8
		c7.7,0,14-6.3,14-14v-64.7c0-7.7-6.3-14-14-14h-30.8V25.3c0-5.5-4.5-10-10-10H366.1c-5.5,0-10,4.5-10,10V411h-30.8
		c-7.7,0-14,6.3-14,14v64.7c0,7.7,6.3,14,14,14h165.8v13.6C434.7,520.9,382.1,544.5,341.8,584.8z M339.3,475.7v-36.6h16.8v10.1
		c0,5.5,4.5,10,10,10H645c5.5,0,10-4.5,10-10v-10.1h16.8v36.6H339.3z M707.2,748.6c0,111.2-90.5,201.6-201.6,201.6
		s-201.6-90.5-201.6-201.6S394.4,547,505.6,547S707.2,637.4,707.2,748.6z"/>
</g>
</svg>
