<?xml version="1.0" encoding="utf-8"?>
<!-- Generator: Adobe Illustrator 17.1.0, SVG Export Plug-In . SVG Version: 6.00 Build 0)  -->
<!DOCTYPE svg PUBLIC "-//W3C//DTD SVG 1.1//EN" "http://www.w3.org/Graphics/SVG/1.1/DTD/svg11.dtd">
<svg version="1.1" id="Capa_1" xmlns="http://www.w3.org/2000/svg" xmlns:xlink="http://www.w3.org/1999/xlink" x="0px" y="0px"
	 width="1000px" height="1000px" viewBox="0 0 1000 1000" enable-background="new 0 0 1000 1000" xml:space="preserve">
<path d="M958.943,195.286c-18.556-36.478-53.439-64.202-93.406-75.134c-4.549-1.285-9.155-2.365-13.801-3.237
	c-20.498-4.082-41.905-5.361-62.418-6.011c-0.902-0.893-18.414-33.336-28.182-47.269c-3.171-4.522-10.345-8.097-15.868-8.097
	L499,55.541l-246.268-0.002c-5.523,0-12.697,3.575-15.868,8.097c-9.768,13.933-26.148,44.535-26.253,44.73
	c-31.031-0.505-63.067,0.903-91.071,13.223C47.682,153.201,2.393,234.679,39.114,309.748
	c33.621,68.73,112.916,110.746,173.331,152.645c24.702,17.131,49.12,34.76,71.986,54.307c21.341,18.244,48.579,39.945,60.061,66.134
	c0.28,0.697,0.56,1.393,0.826,2.095c0.628,1.655,1.239,3.318,1.803,4.996c1.639,4.874,3.05,9.829,4.209,14.841
	c-7.183-3.57-15.274-5.588-23.839-5.588c-29.628,0-53.647,24.018-53.647,53.646c0,29.628,24.018,53.646,53.647,53.646
	c22.394,0,41.575-13.727,49.611-33.221c13.831-30.18,9.45-68.069-2.648-98.14c-2.834-7.043-5.843-14.134-10.034-20.5
	c-4.802-7.294-10.737-13.967-16.693-20.409c31.355,28.723,91.435,93.766,111.003,185.021c11.136,51.933,8.803,88.186,4.611,110.007
	h-61.362c-5.177,0-9.374,4.197-9.374,9.374l0.105,34.731l-26.347-0.074c-7.078,0-12.815,5.738-12.815,12.815v43.572
	c0,7.077,5.738,12.815,12.815,12.815h265.274c7.078,0,12.815-5.738,12.815-12.815v-43.572c0-7.078-5.738-12.815-12.815-12.815
	l-26.347-0.01l0.105-34.647c0-5.177-4.197-9.374-9.374-9.374H534.66c-4.193-21.821-6.525-58.073,4.61-110.007
	c19.568-91.256,79.647-156.299,111.003-185.021c-5.956,6.442-11.891,13.115-16.693,20.409c-4.191,6.366-7.201,13.457-10.034,20.5
	c-12.098,30.071-16.479,67.96-2.668,98.099c8.055,19.536,27.236,33.262,49.631,33.262c29.628,0,53.646-24.018,53.646-53.646
	c0-29.628-24.018-53.646-53.646-53.646c-8.566,0-16.656,2.018-23.839,5.588c1.159-5.012,2.57-9.967,4.21-14.844
	c13.274-39.481,48.091-67.375,80.706-90.833c53.231-38.287,109.958-71.721,160.998-113.033
	c46.431-37.581,86.932-81.863,79.781-146.241C970.608,224.015,965.935,209.03,958.943,195.286z M143.01,372.174
	c-67.464-48.329-121.065-117.69-56.513-193.751c22.82-26.889,61.515-36.449,95.911-33.615c3.232,0.266,6.461,0.574,9.681,0.965
	c0.276,0.033,2.872,0.381,2.83,0.365c0.13,0.019,0.26,0.039,0.391,0.057c-10.542,31.733-16.262,65.667-16.262,100.939
	c0,77.061,27.249,147.753,72.629,202.982C216.058,423.326,179.236,398.125,143.01,372.174z M499,589.094v80.255
	c-22.093-81.797-193.95-234.59-193.95-234.59C153.193,280.425,276.154,93.68,276.154,93.68H499V589.094z M941.208,268.205
	c-7.062,48.196-47.946,76.552-86.218,103.969c-36.224,25.95-73.046,51.151-108.666,77.941
	c45.38-55.229,72.629-125.922,72.629-202.982c0-35.272-5.72-69.206-16.262-100.939c0.13-0.019,0.26-0.039,0.391-0.057
	c-0.042,0.016,2.554-0.331,2.83-0.365c3.219-0.391,6.448-0.698,9.68-0.965c64.949-5.348,126.946,40.255,126.684,108.883
	C942.255,258.725,941.889,263.557,941.208,268.205z"/>
</svg>
