<?xml version="1.0" encoding="utf-8"?>
<!-- Generator: Adobe Illustrator 17.1.0, SVG Export Plug-In . SVG Version: 6.00 Build 0)  -->
<!DOCTYPE svg PUBLIC "-//W3C//DTD SVG 1.1//EN" "http://www.w3.org/Graphics/SVG/1.1/DTD/svg11.dtd">
<svg version="1.1" id="Capa_1" xmlns="http://www.w3.org/2000/svg" xmlns:xlink="http://www.w3.org/1999/xlink" x="0px" y="0px"
	 width="1000px" height="1000px" viewBox="0 0 1000 1000" enable-background="new 0 0 1000 1000" xml:space="preserve">
<g>
	<path d="M861.585,126.204c-18.926-33.371-49.217-58.383-88.243-61.801c-13.702-1.2-27.606,0.119-41.243,2.351
		c-6.221-13.931-13.675-27.19-22.234-39.631c-3.13-4.55-10.308-8.122-15.831-8.122L504.36,19.001L314.685,19
		c-5.523,0-12.701,3.572-15.831,8.122c-8.559,12.441-16.014,25.7-22.233,39.631c-13.638-2.231-27.542-3.551-41.244-2.351
		c-39.025,3.418-69.317,28.43-88.243,61.801c-0.333,0.586-0.661,1.174-0.986,1.765c-23.975,43.562-9.686,92.319,24.863,125.232
		c53.712,51.169,122.482,83.272,176.903,134.046c7.82,7.296,15.419,14.847,22.543,22.829c1.934,2.167,3.85,4.35,5.714,6.576
		c0.358,0.428,1.538,1.936,1.874,2.332c0.87,1.264,1.688,2.563,2.442,3.9c1.276,2.263,2.442,4.587,3.485,6.966
		c0.218,0.542,0.437,1.085,0.644,1.632c0.489,1.29,0.965,2.584,1.405,3.893c1.277,3.797,2.376,7.658,3.279,11.563
		c-5.597-2.782-11.9-4.354-18.575-4.354c-23.085,0-41.799,18.714-41.799,41.799c0,23.085,18.714,41.8,41.799,41.8
		c17.449,0,32.395-10.696,38.655-25.885c10.777-23.515,7.363-53.037-2.063-76.467c-2.208-5.488-4.553-11.013-7.818-15.973
		c-3.741-5.684-8.365-10.883-13.006-15.902c24.431,22.38,71.243,73.06,86.49,144.163c8.677,40.465,6.859,68.711,3.592,85.714
		h-47.811c-4.034,0-7.304,3.27-7.304,7.304v24.833c0,0.756,0.115,1.484,0.328,2.17h-20.775c-5.514,0-9.985,4.471-9.985,9.985v33.949
		c0,5.515,4.471,9.985,9.985,9.985h206.693c5.515,0,9.985-4.471,9.985-9.985v-33.949c0-5.515-4.47-9.985-9.985-9.985h-20.774
		c0.213-0.686,0.328-1.414,0.328-2.17v-24.833c0-4.034-3.27-7.304-7.304-7.304h-47.811c-3.267-17.002-5.084-45.249,3.592-85.714
		c15.247-71.103,62.059-121.783,86.49-144.163c-4.641,5.02-9.265,10.219-13.006,15.902c-3.266,4.96-5.611,10.484-7.818,15.973
		c-9.426,23.43-12.84,52.952-2.079,76.436c6.276,15.221,21.222,25.917,38.671,25.917c23.085,0,41.799-18.714,41.799-41.8
		c0-23.085-18.714-41.799-41.799-41.799c-6.674,0-12.978,1.572-18.575,4.354c0.903-3.905,2.002-7.766,3.279-11.563
		c0.439-1.308,0.916-2.603,1.405-3.893c0.208-0.547,0.426-1.09,0.644-1.632c1.043-2.379,2.209-4.704,3.485-6.966
		c0.754-1.337,1.572-2.637,2.442-3.9c0.336-0.396,1.516-1.904,1.874-2.332c1.865-2.227,3.781-4.409,5.714-6.576
		c7.124-7.982,14.723-15.533,22.542-22.829c54.421-50.774,123.191-82.877,176.904-134.046
		c34.548-32.913,48.838-81.67,24.862-125.232C862.247,127.378,861.918,126.79,861.585,126.204z M226.984,265.712
		c-17.515-12.547-35.59-25.046-49.934-41.294c-8.73-9.891-15.625-26.695-17.752-39.598c-0.002-0.013-0.004-0.026-0.007-0.04
		c-4.03-24.55,8.007-51.59,23.659-70.033c17.781-20.951,47.931-28.399,74.731-26.191c2.519,0.208,5.034,0.447,7.543,0.751
		c0.215,0.026,2.238,0.297,2.205,0.284c0.101,0.015,0.203,0.03,0.304,0.044c-8.214,24.725-12.671,51.165-12.671,78.648
		c0,60.043,21.231,115.125,56.59,158.157C283.9,305.567,255.209,285.931,226.984,265.712z M849.427,184.78
		c-0.002,0.013-0.004,0.026-0.006,0.04c-2.127,12.903-9.021,29.708-17.753,39.598c-14.343,16.248-32.418,28.747-49.933,41.294
		c-28.225,20.219-56.916,39.855-84.669,60.729c35.359-43.033,56.59-98.114,56.59-158.157c0-27.483-4.457-53.923-12.671-78.648
		c0.102-0.015,0.203-0.03,0.304-0.044c-0.033,0.013,1.99-0.258,2.205-0.284c2.509-0.304,5.024-0.544,7.543-0.751
		c26.8-2.208,56.95,5.241,74.731,26.191C841.42,133.19,853.457,160.23,849.427,184.78z"/>
	<path d="M665.761,954H342.958c-8.284,0-15,6.716-15,15s6.716,15,15,15h322.803c8.284,0,15-6.716,15-15S674.045,954,665.761,954z"/>
	<path d="M652.451,939.558V752.608c8.284,0,15-6.716,15-15s-6.716-15-15-15H356.269c-8.284,0-15,6.716-15,15s6.716,15,15,15v186.949
		H652.451z M394.151,774.537c0-5.655,4.584-10.239,10.238-10.239h199.939c5.655,0,10.239,4.584,10.239,10.239v119.792
		c0,5.654-4.584,10.238-10.239,10.238H404.39c-5.654,0-10.238-4.584-10.238-10.238V774.537z"/>
</g>
</svg>
