<?xml version="1.0" encoding="utf-8"?>
<!-- Generator: Adobe Illustrator 17.1.0, SVG Export Plug-In . SVG Version: 6.00 Build 0)  -->
<!DOCTYPE svg PUBLIC "-//W3C//DTD SVG 1.1//EN" "http://www.w3.org/Graphics/SVG/1.1/DTD/svg11.dtd">
<svg version="1.1" id="Capa_1" xmlns="http://www.w3.org/2000/svg" xmlns:xlink="http://www.w3.org/1999/xlink" x="0px" y="0px"
	 width="1000px" height="1000px" viewBox="0 0 1000 1000" enable-background="new 0 0 1000 1000" xml:space="preserve">
<path d="M75.7,755.8h848.7c6.1,0,11-4.9,11-11V217.1c0-6.1-4.9-11-11-11H75.7c-6.1,0-11,4.9-11,11v527.7
	C64.7,750.8,69.6,755.8,75.7,755.8z M837.8,324.8c0-8.3,6.7-15,15-15s15,6.7,15,15v22.5c0,8.3-6.7,15-15,15s-15-6.7-15-15V324.8z
	 M837.8,418.9c0-8.3,6.7-15,15-15s15,6.7,15,15v22.5c0,8.3-6.7,15-15,15s-15-6.7-15-15V418.9z M837.8,521.1c0-8.3,6.7-15,15-15
	s15,6.7,15,15v22.5c0,8.3-6.7,15-15,15s-15-6.7-15-15V521.1z M837.8,615.1c0-8.3,6.7-15,15-15s15,6.7,15,15v22.5c0,8.3-6.7,15-15,15
	s-15-6.7-15-15V615.1z M797.3,272.5h22.5c8.3,0,15,6.7,15,15s-6.7,15-15,15h-22.5c-8.3,0-15-6.7-15-15S789,272.5,797.3,272.5z
	 M797.3,467h22.5c8.3,0,15,6.7,15,15s-6.7,15-15,15h-22.5c-8.3,0-15-6.7-15-15S789,467,797.3,467z M797.3,661.6h22.5
	c8.3,0,15,6.7,15,15s-6.7,15-15,15h-22.5c-8.3,0-15-6.7-15-15S789,661.6,797.3,661.6z M715.9,272.5h34.9c8.3,0,15,6.7,15,15
	s-6.7,15-15,15h-34.9c-8.3,0-15-6.7-15-15S707.6,272.5,715.9,272.5z M715.9,467h34.9c8.3,0,15,6.7,15,15s-6.7,15-15,15h-34.9
	c-8.3,0-15-6.7-15-15S707.6,467,715.9,467z M715.9,661.6h34.9c8.3,0,15,6.7,15,15s-6.7,15-15,15h-34.9c-8.3,0-15-6.7-15-15
	S707.6,661.6,715.9,661.6z M646.9,272.5h22.5c8.3,0,15,6.7,15,15s-6.7,15-15,15h-22.5c-8.3,0-15-6.7-15-15S638.6,272.5,646.9,272.5z
	 M646.9,467h22.5c8.3,0,15,6.7,15,15s-6.7,15-15,15h-22.5c-8.3,0-15-6.7-15-15S638.6,467,646.9,467z M646.9,661.6h22.5
	c8.3,0,15,6.7,15,15s-6.7,15-15,15h-22.5c-8.3,0-15-6.7-15-15S638.6,661.6,646.9,661.6z M483.8,416.6c0-9.1,7.4-16.5,16.5-16.5
	c9.1,0,16.5,7.4,16.5,16.5v24.7c0,9.1-7.4,16.5-16.5,16.5s-16.5-7.4-16.5-16.5L483.8,416.6z M483.8,521.1c0-9.1,7.4-16.5,16.5-16.5
	c9.1,0,16.5,7.4,16.5,16.5v24.7c0,9.1-7.4,16.5-16.5,16.5s-16.5-7.4-16.5-16.5L483.8,521.1z M366.7,328.1c0-8.3,6.7-15,15-15
	s15,6.7,15,15v22.5c0,8.3-6.7,15-15,15s-15-6.7-15-15V328.1z M366.7,408.5c0-8.3,6.7-15,15-15s15,6.7,15,15V452c0,8.3-6.7,15-15,15
	s-15-6.7-15-15V408.5z M366.7,509.9c0-8.3,6.7-15,15-15s15,6.7,15,15v43.4c0,8.3-6.7,15-15,15s-15-6.7-15-15V509.9z M366.7,611.2
	c0-8.3,6.7-15,15-15s15,6.7,15,15v22.5c0,8.3-6.7,15-15,15s-15-6.7-15-15V611.2z M328.4,272.5h22.5c8.3,0,15,6.7,15,15
	s-6.7,15-15,15h-22.5c-8.3,0-15-6.7-15-15S320.2,272.5,328.4,272.5z M328.4,659.4h22.5c8.3,0,15,6.7,15,15s-6.7,15-15,15h-22.5
	c-8.3,0-15-6.7-15-15S320.2,659.4,328.4,659.4z M247,272.5h34.9c8.3,0,15,6.7,15,15s-6.7,15-15,15H247c-8.3,0-15-6.7-15-15
	S238.7,272.5,247,272.5z M247,659.4h34.9c8.3,0,15,6.7,15,15s-6.7,15-15,15H247c-8.3,0-15-6.7-15-15S238.7,659.4,247,659.4z
	 M178,272.5h22.5c8.3,0,15,6.7,15,15s-6.7,15-15,15H178c-8.3,0-15-6.7-15-15S169.7,272.5,178,272.5z M178,659.4h22.5
	c8.3,0,15,6.7,15,15s-6.7,15-15,15H178c-8.3,0-15-6.7-15-15S169.7,659.4,178,659.4z M132.2,328.1c0-8.3,6.7-15,15-15s15,6.7,15,15
	v22.5c0,8.3-6.7,15-15,15s-15-6.7-15-15V328.1z M132.2,408.5c0-8.3,6.7-15,15-15s15,6.7,15,15V452c0,8.3-6.7,15-15,15s-15-6.7-15-15
	V408.5z M132.2,509.9c0-8.3,6.7-15,15-15s15,6.7,15,15v43.4c0,8.3-6.7,15-15,15s-15-6.7-15-15V509.9z M132.2,611.2
	c0-8.3,6.7-15,15-15s15,6.7,15,15v22.5c0,8.3-6.7,15-15,15s-15-6.7-15-15V611.2z"/>
<path d="M963,151.5H37c-15,0-27.2,12.4-27.2,27.7v603.3c0,15.3,12.2,27.7,27.2,27.7h926c15,0,27.2-12.4,27.2-27.7V179.3
	C990.2,164,978,151.5,963,151.5z M959.8,780H40.2V181.9h919.7L959.8,780L959.8,780z"/>
<path d="M695.1,905.5c6.1,0,11-4.9,11-11v-84.6H293.9v84.6c0,6.1,4.9,11,11,11H695.1z"/>
</svg>
