<?xml version="1.0" encoding="utf-8"?>
<!-- Generator: Adobe Illustrator 17.1.0, SVG Export Plug-In . SVG Version: 6.00 Build 0)  -->
<!DOCTYPE svg PUBLIC "-//W3C//DTD SVG 1.1//EN" "http://www.w3.org/Graphics/SVG/1.1/DTD/svg11.dtd">
<svg version="1.1" id="Capa_1" xmlns="http://www.w3.org/2000/svg" xmlns:xlink="http://www.w3.org/1999/xlink" x="0px" y="0px"
	 width="1000px" height="1000px" viewBox="0 0 1000 1000" enable-background="new 0 0 1000 1000" xml:space="preserve">
<path d="M323.9,824.1V250.4v-20l0,0c0-0.4,0-0.8,0-1.2l-18.1,8.5l-238.8,110l13.7,30.2l212.5-100.3v48.5L96.6,417.3l12.7,30.2
	l183.9-87.3v455.5C293.1,815.7,305.3,821.8,323.9,824.1z"/>
<path d="M919.3,377.9l13.7-30.2l-238.8-110l-18.1-8.5c0,0.4,0,0.8,0,1.2l0,0v20v573.7c18.6-2.3,30.7-8.4,30.7-8.4V360.2l183.9,87.3
	l12.7-30.2l-196.6-91.1v-48.5L919.3,377.9z"/>
<path d="M403.6,285.2l-4.8,1.6v549.7c0,0,24.5,2.3,30.7,2.3V304c-8.5-5.8-17-12-25.1-18.6C404.1,285.2,403.9,285.1,403.6,285.2z"/>
<path d="M595.7,285.3c-8.1,6.6-16.7,12.9-25.1,18.6v535.6c6.2,0,30.7-2.3,30.7-2.3V286.7l-4.8-1.6
	C596.1,285.1,596,285.1,595.7,285.3z"/>
<path d="M965.8,309.7L698.6,188.2c-9.2-4.2-55.8-11.4-73.3-11.4h-5.7c4.7,9.8,7.9,20,10.3,30.2c17.6,1,50.9,6.8,56.7,8.7L953.4,337
	c5.6,2.5,8.2,9.2,5.6,14.9l-50.8,113.2c-1.2,2.7-3.5,4.8-6.3,5.9c-2.7,1-5.7,1-8.3-0.2l-141.1-71.3v407.3c0,4-13.1,18-71.5,29.5
	c-47.6,9.3-111.9,14.4-181.1,14.4s-133.4-5.1-181.1-14.4c-58.4-11.4-71.5-25.4-71.5-29.5V399.5l-141.1,71.3
	c-2.7,1.1-5.6,1.2-8.3,0.2c-2.8-1.1-5-3.1-6.2-5.9L41,351.9c-2.5-5.6,0-12.3,5.7-14.9l266.7-121.4c5.8-1.9,39.8-7.9,57.2-8.8
	c2.4-10.2,5.6-20.3,10.3-30.1h-6.3c-17.5,0-64.1,7.2-73.4,11.4l-267,121.5c-20.7,9.3-30,33.8-20.6,54.5l50.8,113.2
	c4.5,10,12.7,17.7,23,21.6c10.3,3.9,21.5,3.5,31.5-1l0.3-0.1l98.2-49.6v358.5c0,15.6,10.5,28.7,31.2,39.2
	c15.3,7.7,37,14.4,64.5,19.7c49.4,9.7,115.8,15,186.8,15s137.4-5.3,186.8-15c27.4-5.4,49.1-12,64.5-19.7
	c20.7-10.4,31.2-23.6,31.2-39.2V448.3l97.9,49.5l0.6,0.3c10,4.5,21.2,4.9,31.5,1c10.3-3.9,18.5-11.6,23-21.6l50.8-113.2
	C995.7,343.5,986.4,319,965.8,309.7z"/>
<path d="M474.3,314c0.8-7.4,4.9-14.4,10.8-19c-24.4-15.8-42.4-31.8-55.6-45.7c-2.3-2.4-4.4-4.7-6.4-7c-6.5-7.4-11.5-14.1-15.3-19.5
	c-7.6-15.9-3.4-30.8-0.7-46.7c0.4-2.5-1.5-4.1-3.4-4.3c-0.3-0.1-0.5-0.1-0.8-0.1c-1.1,0-2.1,0.5-2.8,1.6
	c-4.5,7.1-7.8,14.5-10.5,22.2c-1.3,3.7-2.4,7.5-3.4,11.3c-5.4,20.7-7.3,42.6-13.7,63.1l-1.2,3c-1.4,3.6-0.4,5.9,2.3,5.9
	c0.6,0,1.3-0.1,2.1-0.4l23-7.4l0.9-0.3c1.1-0.4,2.4-0.5,3.7-0.5c3.6,0,7.6,1.3,10.2,3.4c5.2,4.2,10.5,8.3,15.9,12.2
	C445.2,297.1,461.4,306.8,474.3,314z"/>
<path d="M629.2,273.2c-7.2-21.5-9.1-44.6-14.7-66.4c-1.3-5.1-2.8-10-4.7-14.9c-2.4-6.4-5.4-12.6-9.2-18.6c-0.7-1.1-1.8-1.6-2.8-1.6
	c-0.3,0-0.5,0-0.8,0.1c-1.9,0.2-3.9,1.9-3.4,4.3c2.8,16.2,7,31.3-1.1,47.5c-3.9,5.5-9.1,12.1-15.7,19.5c-1.9,2.2-4,4.4-6.2,6.6
	c-14.1,14.6-33.6,31.5-59.8,48c-1.9,1.2-3.7,2.3-5.6,3.5c-0.3,0.1-0.5,0.3-0.7,0.4c-2.5,1.4-4.7,2.5-6.7,3.4c-0.3,0.1-0.7,0.3-1,0.4
	c-4.1,1.8-7.6,6.5-7.6,11.4v5.3v8.4v8.1v84.6c0,4.8,3.6,8.7,8,8.7h6.6c4.4,0,8-3.9,8-8.7V331v-0.5c0-3.1,1.3-6.5,3.3-9.1
	c1.1-1.5,2.4-2.7,3.9-3.5c13.7-7.4,33-18.7,51.8-32.3c5.4-3.9,10.7-7.9,15.9-12.2c2.6-2.1,6.6-3.4,10.2-3.4c1.3,0,2.6,0.2,3.7,0.5
	l0.9,0.3l23,7.4c0.8,0.3,1.5,0.4,2.1,0.4c2.2,0,3.8-1.4,3.4-3.8C629.7,274.1,629.4,273.8,629.2,273.2z"/>
</svg>
