<?xml version="1.0" encoding="utf-8"?>
<!-- Generator: Adobe Illustrator 17.1.0, SVG Export Plug-In . SVG Version: 6.00 Build 0)  -->
<!DOCTYPE svg PUBLIC "-//W3C//DTD SVG 1.1//EN" "http://www.w3.org/Graphics/SVG/1.1/DTD/svg11.dtd">
<svg version="1.1" id="Capa_1" xmlns="http://www.w3.org/2000/svg" xmlns:xlink="http://www.w3.org/1999/xlink" x="0px" y="0px"
	 width="1000px" height="1000px" viewBox="0 0 1000 1000" enable-background="new 0 0 1000 1000" xml:space="preserve">
<g>
	<path d="M896.7,716.6L920.4,540c-23.7,9.2-55,17.5-93.2,24.6c-89.2,16.7-207.5,25.9-333.2,25.9c-125.7,0-244.1-9.2-333.2-25.9
		c-38-7.1-69.1-15.3-92.7-24.4l24.2,176.3c1,5.4,4.9,13,9.1,16.6c31.9,26.8,100.7,59,235.6,73.3v-146c0-13.8,11.2-25,25-25h263.8
		c13.8,0,25,11.2,25,25v146.3c135.5-13.9,203.8-45.6,236.7-73.6C891.8,729.6,895.7,722,896.7,716.6z"/>
	<path d="M940,394.9c-2.9,1.5-6,3-9.3,4.4c-24.6,10.9-59.4,20.6-103.5,28.9c-89.2,16.7-207.5,25.9-333.2,25.9s-244.1-9.2-333.2-25.9
		c-44.1-8.3-78.9-18-103.5-28.9c-3.2-1.4-6.3-2.9-9.2-4.4l15.2,110.5c1.9,0.9,3.9,1.9,6.2,2.9c22.2,9.8,55.6,19.1,96.8,26.8
		c87.4,16.4,203.8,25.4,327.7,25.4s240.3-9,327.7-25.4c41.2-7.7,74.7-17,96.8-26.8c2.4-1.1,4.6-2.1,6.6-3.1L940,394.9z"/>
	<path d="M69.5,371.9c22.2,9.8,55.6,19.1,96.8,26.8c0,0,0,0,0,0c1-0.6,2.1-1.1,3.4-1.4c72.9-17,193.7-27.1,323.1-27.1
		c131.1,0,252.8,10.3,325.5,27.7c0.9,0.2,1.8,0.6,2.6,1c0.3,0,0.5-0.1,0.8-0.1c41.2-7.7,74.7-17,96.8-26.8c18-8,24.9-14.7,27-18.2
		c0.6-1,0.8-1.7,0.8-2.2c0-2.2-5-10.3-27.8-20.4c-9.8-4.3-21.8-8.6-35.7-12.6v-15.6v-15.6v-19.4l76-45.2c4.7-2.8,4.7-7.4,0-10.2
		L874,162.8c-1.9-0.8-4-1.3-6.2-1.3c-8.3,0-15,6.7-15,15V280v15.4v15.4c-9.8-2.3-20.2-4.4-31.1-6.5
		c-83.6-15.7-193.6-24.6-311.5-25.4v-15v-15v-15l76-45.2c4.7-2.8,4.7-7.4,0-10.2l-84.9-49.7c-1.9-0.8-4-1.3-6.2-1.3
		c-8.3,0-15,6.7-15,15v106.4v15v15c-118.7,0.6-229.8,9.6-313.9,25.4c-10.1,1.9-19.6,3.9-28.7,5.9v-15.4v-15.4v-11.6l76-45.2
		c4.7-2.8,4.7-7.4,0-10.2l-84.9-49.7c-1.9-0.8-4-1.3-6.2-1.3c-8.3,0-15,6.7-15,15v110.2v15.5v15.6c-14.9,4.2-27.8,8.7-38.1,13.3
		c-22.8,10.1-27.8,18.2-27.8,20.4c0,0.5,0.2,1.2,0.8,2.2C44.6,357.3,51.5,363.9,69.5,371.9z"/>
	<path d="M754.7,409.1C684.6,398.8,591.6,393,492.9,393c-98,0-190.7,5.8-260.8,16c76.4,9.9,167,15.2,261.9,15.2
		C588.5,424.1,678.5,418.9,754.7,409.1z"/>
	<path d="M367.1,665.5v143.8v28.8l-15,5l-15,5l-19.2,6.3c-5.2,1.7-9.5,7.6-9.5,13.1v18.7c0,5.5,4.5,10,10,10h351.1
		c5.5,0,10-4.5,10-10v-18.7c0-5.5-4.3-11.4-9.5-13.1l-19.2-6.3l-15-5l-15-5v-28.6v-144h-36.6v128.9H403.7V665.5H367.1z"/>
</g>
</svg>
