<?xml version="1.0" encoding="utf-8"?>
<!-- Generator: Adobe Illustrator 17.1.0, SVG Export Plug-In . SVG Version: 6.00 Build 0)  -->
<!DOCTYPE svg PUBLIC "-//W3C//DTD SVG 1.1//EN" "http://www.w3.org/Graphics/SVG/1.1/DTD/svg11.dtd">
<svg version="1.1" id="Capa_1" xmlns="http://www.w3.org/2000/svg" xmlns:xlink="http://www.w3.org/1999/xlink" x="0px" y="0px"
	 width="1000px" height="1000px" viewBox="0 0 1000 1000" enable-background="new 0 0 1000 1000" xml:space="preserve">
<g>
	<path d="M687.6,153.7H548.1L505,21c-3-9.3-7.9-9.3-11,0l-43.1,132.7H311.4c-9.8,0-11.3,4.7-3.4,10.4l112.9,82l-43.1,132.7
		c-3,9.3,0.9,12.2,8.9,6.4l112.9-82l112.9,82c7.9,5.8,11.9,2.9,8.9-6.4l-43.1-132.7l112.9-82C698.9,158.3,697.4,153.7,687.6,153.7z"
		/>
	<path d="M920.5,979c8.3,0,15-6.7,15-15V678.3c0-8.3-6.7-15-15-15H769.8V454.5c0-8.3-6.7-15-15-15H514.5v-51.4c0-8.3-6.7-15-15-15
		s-15,6.7-15,15v51.4H244.2c-8.3,0-15,6.7-15,15v208.7H78.5c-8.3,0-15,6.7-15,15V964c0,8.3,6.7,15,15,15s15-6.7,15-15V693.3h135.7
		h30h135.7V964c0,8.3,6.7,15,15,15s15-6.7,15-15V678.3c0-8.3-6.7-15-15-15H259.2V469.5h480.6v193.7H589.1c-8.3,0-15,6.7-15,15V964
		c0,8.3,6.7,15,15,15s15-6.7,15-15V693.3h135.7h30h135.7V964C905.5,972.3,912.2,979,920.5,979z"/>
</g>
</svg>
