<?xml version="1.0" encoding="utf-8"?>
<!-- Generator: Adobe Illustrator 17.1.0, SVG Export Plug-In . SVG Version: 6.00 Build 0)  -->
<!DOCTYPE svg PUBLIC "-//W3C//DTD SVG 1.1//EN" "http://www.w3.org/Graphics/SVG/1.1/DTD/svg11.dtd">
<svg version="1.1" id="Capa_1" xmlns="http://www.w3.org/2000/svg" xmlns:xlink="http://www.w3.org/1999/xlink" x="0px" y="0px"
	 width="1000px" height="1000px" viewBox="0 0 1000 1000" enable-background="new 0 0 1000 1000" xml:space="preserve">
<g>
	<path d="M712.4,101.8h-21l0-0.1h-19h-19l0,0.1l-2.2,7.4c-9,32.4-30.5,54.9-57.5,69.4c-9.4,5.1-19.5,9.2-30,12.3
		c-20.2,6.2-41.8,9-62.5,9c-21.4,0-43.7-3-64.5-9.6c-10.5-3.3-20.6-7.6-30-12.8c-26.1-14.5-46.8-36.7-55.6-68.3l-2.2-7.4l0-0.1h-19
		h-19l0,0.1h-19c-90.4,0-163.7,73.3-163.7,163.7v268.6c0,5.7,4.6,10.3,10.3,10.3l107.9,0.1V336.3h23.3v614.4
		c0.1,5.3,5.2,7.3,9.8,7.3h445c5.7,0,10.3-4.6,10.3-10.3l0.5-611.4h23.3l0,0h0.1v208.4l106.8-0.2c5.7,0,10.3-4.6,10.3-10.3V265.5
		C876.1,175.1,802.8,101.8,712.4,101.8z M361,927.9h-30V154c7.9,13.3,17.9,25.3,30,35.8V927.9z M436.8,927.9h-30V218.1
		c10.1,4.3,20.1,7.7,30,10.3V927.9z M517.6,927.9H487V236.1c5,0.3,9.8,0.4,14.2,0.4h0.1h0.1c5,0,10.4-0.2,16.2-0.5L517.6,927.9
		L517.6,927.9z M593.8,927.9h-30V228.9c9.8-2.5,19.9-5.7,30-9.9V927.9z M673.6,927.9h-30V188c12.2-11,22.3-23.5,30-37.5V927.9z"/>
	<path d="M415.5,101.8C415.5,101.8,415.4,101.8,415.5,101.8l-11-0.1h-19.5c0,0,0,0.1,0,0.1c0.5,1.5,1.1,3,1.6,4.5
		c6.5,16.7,17.2,29.2,30.3,38.3c6.2,4.3,12.9,7.9,19.9,10.9c20.4,8.5,43.5,11.6,64.5,11.6c20.3,0,42.6-2.9,62.5-10.8
		c1.7-0.7,3.3-1.4,5-2.1c20.5-9.3,38-24.3,47.2-47.8c0.6-1.5,1.1-3,1.6-4.5c0,0,0-0.1,0-0.1h-19.5h-9.8c0,0,0,0.1,0,0.1
		c-14.8,24.7-43.8,40.7-86.2,40.7C458.5,142.5,429.9,126.5,415.5,101.8z"/>
</g>
</svg>
