<?xml version="1.0" encoding="utf-8"?>
<!-- Generator: Adobe Illustrator 17.1.0, SVG Export Plug-In . SVG Version: 6.00 Build 0)  -->
<!DOCTYPE svg PUBLIC "-//W3C//DTD SVG 1.1//EN" "http://www.w3.org/Graphics/SVG/1.1/DTD/svg11.dtd">
<svg version="1.1" id="Capa_1" xmlns="http://www.w3.org/2000/svg" xmlns:xlink="http://www.w3.org/1999/xlink" x="0px" y="0px"
	 width="1000px" height="1000px" viewBox="0 0 1000 1000" enable-background="new 0 0 1000 1000" xml:space="preserve">
<g>
	<path d="M244.504,499.78c0,140.587,113.969,254.556,254.556,254.556c140.587,0,254.556-113.969,254.556-254.556
		S639.647,245.224,499.06,245.224C358.472,245.224,244.504,359.193,244.504,499.78z M296.586,610.029
		c-0.547-0.082-1.095-0.083-1.634-0.024c-3.499-6.475-6.699-13.132-9.587-19.962c-9.059-21.417-14.77-43.842-17.063-66.918
		c0.465-0.251,0.913-0.538,1.31-0.903l68.798-63.309l66.335,21.796l28.164,86.678l-43.342,56.481L296.586,610.029z M728.508,522.222
		c0.397,0.365,0.844,0.652,1.31,0.903c-2.293,23.076-8.004,45.5-17.063,66.918c-2.889,6.83-6.088,13.486-9.587,19.962
		c-0.539-0.058-1.087-0.057-1.634,0.024l-92.979,13.839l-43.343-56.481l28.164-86.678l66.335-21.796L728.508,522.222z
		 M510.382,334.292l81.403-45.586c0.48-0.269,0.912-0.602,1.302-0.975c26.104,11.585,49.627,27.733,69.958,48.064
		c2.835,2.835,5.583,5.736,8.254,8.693c-0.222,0.471-0.396,0.968-0.498,1.49l-17.955,91.354l-68.619,22.546l-73.845-53.651V334.292z
		 M549.793,584.492l41.268,53.777l-36.231,85.207c-0.216,0.508-0.355,1.037-0.434,1.573c-17.98,4.404-36.484,6.641-55.336,6.641
		c-18.852,0-37.356-2.237-55.336-6.641c-0.079-0.536-0.218-1.065-0.434-1.573l-36.231-85.207l41.268-53.778H549.793z
		 M335.074,335.795c20.331-20.331,43.854-36.479,69.958-48.064c0.389,0.374,0.822,0.706,1.302,0.975l81.403,45.586v71.935
		l-73.845,53.651l-68.619-22.546l-17.955-91.354c-0.103-0.521-0.276-1.018-0.498-1.49
		C329.492,341.531,332.24,338.63,335.074,335.795z"/>
	<path d="M141.907,685.13c2.708-0.173,4.663-1.395,5.616-3.149c6.297,12.473,13.364,24.621,21.187,36.386
		c-35.181-20.882-73.557-18.407-91.151-15.7c-5.459,0.84-7.721,5.901-4.744,10.553c38.035,59.424,107.817,60.412,133.627,58.531
		c1.69-0.123,3.086-0.653,4.131-1.46c3.303,3.417,6.681,6.785,10.136,10.1c55.69,53.426,126.172,88.782,202.939,102.622
		c-25.266,15.11-41.086,36.718-48.449,48.631c-2.904,4.698-0.521,9.704,4.95,10.458c56.331,7.761,97.162-24.799,118.91-48.648
		c21.747,23.849,62.579,56.409,118.91,48.648c5.471-0.754,7.854-5.76,4.95-10.458c-7.432-12.024-23.481-33.925-49.162-49.052
		c75.859-14.132,145.472-49.318,200.596-102.2c3.455-3.315,6.833-6.683,10.136-10.099c1.045,0.807,2.441,1.337,4.131,1.46
		c25.81,1.881,95.593,0.893,133.627-58.531c2.977-4.652,0.715-9.713-4.744-10.553c-17.594-2.707-55.97-5.182-91.15,15.699
		c7.823-11.765,14.89-23.913,21.187-36.386c0.953,1.754,2.909,2.975,5.616,3.149c23.245,1.488,81.639-0.249,114.263-49.925
		c3.032-4.616,0.762-9.679-4.706-10.462c-21.219-3.038-72.217-4.807-106.748,39.31c8.484-19.494,15.131-39.691,19.868-60.392
		c1.122,0.118,2.357-0.043,3.646-0.529c21.668-8.176,73.469-33.601,80.487-91.664c0.663-5.483-3.674-9.175-8.979-7.641
		c-16.275,4.706-49.066,17.777-67.546,49.851c0.682-8.828,1.026-17.715,1.026-26.65c0-10.407-0.462-20.731-1.374-30.967
		c20.261-11.421,55.881-38.136,56.633-85.091c0.088-5.522-4.667-8.735-9.761-6.603c-14.079,5.891-40.371,20.249-53.442,48.952
		c-3.004-13.657-6.858-27.12-11.554-40.365c2.112,0.016,4.234-1.107,5.74-3.391c11.454-17.373,33.476-60.333,7.899-104.838
		c-2.752-4.788-8.581-5.235-11.988-0.889c-8.881,11.328-23.375,34.597-21.417,63.892c-0.376-0.718-0.744-1.439-1.125-2.155
		c-8.221-15.464-17.679-30.396-28.226-44.648c9.494-15.292,24.4-48.005,5.833-82.088c-2.642-4.85-8.486-5.288-11.804-0.873
		c-7.851,10.446-19.585,30.853-15.953,56.059c-6.037-6.738-12.337-13.271-18.874-19.586c1.65-0.969,2.797-2.861,2.914-5.453
		c0.66-14.534-1.877-41.847-26.657-60.059c-4.45-3.271-9.757-1.038-10.428,4.444c-0.675,5.513-0.912,12.912,0.635,21.009
		c-8.827-17.335-27.2-42.339-61.592-48.994c-5.422-1.049-9.123,3.076-7.407,8.325c4.606,14.094,16.911,39.888,47.266,51.853
		c-12.652-4.333-27.581-6.229-44.297-2.579c-5.396,1.178-7.168,6.429-3.519,10.574c11.61,13.187,39.646,37.201,83.152,26.194
		c1.526-0.386,2.717-1.079,3.567-1.952c19.918,19.185,37.212,40.305,51.653,62.909c-15.078-14.808-38.449-29.712-70.921-28.515
		c-5.519,0.204-8.325,5.033-5.653,9.867c9.349,16.913,35.041,51.395,87.804,47.795c1.906-0.13,3.425-0.786,4.487-1.769
		c8.321,16.224,15.267,33.057,20.757,50.359c-13.434-15.293-33.768-30.002-63.296-32.87c-5.497-0.534-8.997,3.88-7.091,9.064
		c6.704,18.228,26.996,56.546,79.874,61.422c3.706,19.597,5.615,39.627,5.615,59.904c0,9.286-0.414,18.512-1.193,27.67
		c-3.345-22.666-16.014-66.484-63.92-85.609c-5.129-2.048-9.874,1.173-9.719,6.694c0.588,20.948,8.372,69.243,65.321,90.005
		c3.012,1.098,5.716,0.437,7.34-1.377c-3.022,26.167-9.2,51.687-18.377,76.163c-0.859-26.972-9.834-62.614-45.395-88.193
		c-4.483-3.225-9.965-1.325-11.362,4.018c-5.761,22.026-13.196,77.551,42.686,116.347c-12.633,25.086-28.594,48.775-47.669,70.581
		c10.365-29.191,18-76.766-16.767-120.234c-3.45-4.313-9.276-4.019-12.189,0.674c-13.206,21.277-41.286,80.551,9.193,139.998
		c0.057,0.068,0.119,0.123,0.178,0.188c-1.542,1.502-3.082,3.004-4.655,4.484c-68.789,64.667-160.373,100.495-257.829,100.884
		c-97.507-0.389-189.09-36.216-257.879-100.884c-1.574-1.479-3.114-2.982-4.655-4.484c0.058-0.065,0.12-0.121,0.177-0.188
		c50.479-59.447,22.4-118.721,9.193-139.998c-2.913-4.692-8.739-4.987-12.189-0.674c-34.767,43.468-27.132,91.042-16.767,120.233
		c-19.075-21.806-35.036-45.494-47.669-70.58c55.882-38.796,48.447-94.321,42.686-116.347c-1.398-5.343-6.879-7.243-11.363-4.018
		c-35.56,25.579-44.536,61.22-45.395,88.193c-9.177-24.475-15.354-49.995-18.377-76.162c1.624,1.814,4.328,2.475,7.339,1.377
		c56.949-20.761,64.732-69.057,65.321-90.005c0.155-5.521-4.59-8.742-9.719-6.694c-47.906,19.124-60.575,62.941-63.92,85.608
		c-0.779-9.157-1.193-18.383-1.193-27.669c0-20.277,1.909-40.307,5.615-59.904c52.877-4.876,73.169-43.194,79.873-61.422
		c1.906-5.183-1.594-9.598-7.091-9.064c-29.528,2.868-49.862,17.577-63.296,32.87c5.49-17.302,12.436-34.135,20.757-50.358
		c1.062,0.983,2.581,1.639,4.487,1.769c52.764,3.599,78.455-30.882,87.804-47.795c2.672-4.833-0.134-9.663-5.653-9.867
		c-32.471-1.197-55.843,13.707-70.921,28.515c14.44-22.603,31.734-43.724,51.652-62.909c0.85,0.873,2.041,1.566,3.567,1.952
		c43.507,11.006,71.542-13.007,83.152-26.194c3.649-4.145,1.877-9.396-3.519-10.574c-16.716-3.65-31.645-1.755-44.296,2.579
		c30.354-11.965,42.659-37.76,47.265-51.853c1.716-5.25-1.985-9.375-7.407-8.325c-34.392,6.655-52.765,31.66-61.592,48.994
		c1.546-8.097,1.31-15.496,0.635-21.009c-0.671-5.482-5.978-7.714-10.429-4.444c-24.78,18.212-27.318,45.526-26.657,60.059
		c0.118,2.593,1.265,4.485,2.915,5.453c-6.537,6.315-12.837,12.848-18.875,19.587c3.632-25.206-8.102-45.613-15.953-56.06
		c-3.318-4.415-9.162-3.977-11.804,0.873c-18.567,34.084-3.661,66.797,5.833,82.089c-10.547,14.252-20.005,29.184-28.227,44.648
		c-0.381,0.717-0.75,1.437-1.125,2.155c1.958-29.295-12.536-52.564-21.417-63.892c-3.408-4.346-9.236-3.899-11.988,0.889
		c-25.577,44.506-3.555,87.465,7.899,104.838c1.506,2.284,3.628,3.406,5.74,3.391c-4.696,13.245-8.55,26.708-11.554,40.365
		c-13.071-28.703-39.363-43.061-53.442-48.952c-5.095-2.132-9.85,1.081-9.761,6.603c0.752,46.956,36.373,73.671,56.634,85.091
		c-0.912,10.235-1.374,20.56-1.374,30.967c0,8.934,0.344,17.823,1.026,26.65c-18.48-32.074-51.271-45.146-67.546-49.852
		c-5.306-1.534-9.642,2.158-8.979,7.641c7.018,58.062,58.819,83.488,80.487,91.664c1.289,0.486,2.524,0.647,3.646,0.529
		c4.737,20.702,11.384,40.899,19.868,60.393c-34.531-44.118-85.53-42.349-106.748-39.311c-5.467,0.783-7.737,5.846-4.706,10.462
		C60.268,684.881,118.662,686.618,141.907,685.13z"/>
	<path d="M576.851,113.5h-57.629l-17.808-54.808c-1.252-3.852-3.281-3.852-4.533,0L479.073,113.5h-57.629
		c-4.051,0-4.678,1.93-1.401,4.311l46.623,33.873l-17.808,54.808c-1.252,3.853,0.39,5.045,3.667,2.664l46.623-33.873l46.623,33.873
		c3.277,2.381,4.919,1.188,3.667-2.664l-17.808-54.808l46.623-33.873C581.529,115.43,580.902,113.5,576.851,113.5z"/>
</g>
</svg>
