<?xml version="1.0" encoding="utf-8"?>
<!-- Generator: Adobe Illustrator 17.1.0, SVG Export Plug-In . SVG Version: 6.00 Build 0)  -->
<!DOCTYPE svg PUBLIC "-//W3C//DTD SVG 1.1//EN" "http://www.w3.org/Graphics/SVG/1.1/DTD/svg11.dtd">
<svg version="1.1" id="Capa_1" xmlns="http://www.w3.org/2000/svg" xmlns:xlink="http://www.w3.org/1999/xlink" x="0px" y="0px"
	 width="1000px" height="1000px" viewBox="0 0 1000 1000" enable-background="new 0 0 1000 1000" xml:space="preserve">
<g>
	<path d="M24.3,905c8.3,0,15-6.7,15-15V433.1h616.6c8.3,0,15-6.7,15-15V25c0-8.3-6.7-15-15-15H24.3c-8.3,0-15,6.7-15,15v393.1V890
		C9.3,898.3,16,905,24.3,905z M39.3,221.5h300.8v181.5H39.3V221.5z M640.9,221.5H340.1V40h300.8L640.9,221.5L640.9,221.5z"/>
	<path d="M325.1,581.9V975c0,8.3,6.7,15,15,15h631.6c8.3,0,15-6.7,15-15v-8.1v-385v-480c0-8.3-6.7-15-15-15s-15,6.7-15,15v465H340.1
		C331.8,566.9,325.1,573.7,325.1,581.9z M956.6,778.5H655.9V960H355.1V778.5h300.8V596.9h300.8L956.6,778.5L956.6,778.5z"/>
</g>
</svg>
