<?xml version="1.0" encoding="utf-8"?>
<!-- Generator: Adobe Illustrator 17.1.0, SVG Export Plug-In . SVG Version: 6.00 Build 0)  -->
<!DOCTYPE svg PUBLIC "-//W3C//DTD SVG 1.1//EN" "http://www.w3.org/Graphics/SVG/1.1/DTD/svg11.dtd">
<svg version="1.1" id="Capa_1" xmlns="http://www.w3.org/2000/svg" xmlns:xlink="http://www.w3.org/1999/xlink" x="0px" y="0px"
	 width="1000px" height="1000px" viewBox="0 0 1000 1000" enable-background="new 0 0 1000 1000" xml:space="preserve">
<path d="M291.553,653.893c64.809-23.844,104.593-72.713,138.39-127.568L313.036,268.958c-5.063-11.143-5.483-23.591-1.182-35.051
	c4.3-11.459,12.806-20.557,23.95-25.619c5.997-2.724,12.369-4.105,18.938-4.105c13.901,0,26.869,6.339,35.451,16.792
	c49.398-4.238,91.168-27.926,131.602-58.426c-33.193-33.193-66.387-66.387-99.58-99.58c-3.906-3.904-12.046-5.711-17.891-3.74
	C227.77,118.487,232.438,358.967,60.05,422.39l-6.356-6.356c-6.178-6.178-16.195-6.178-22.373,0c-6.178,6.178-6.178,16.195,0,22.373
	l539.424,539.424c3.089,3.089,7.138,4.634,11.186,4.634s8.098-1.545,11.186-4.634c6.178-6.178,6.178-16.195,0-22.373
	L291.553,653.893z"/>
<path d="M838.232,42.392c-2.285-5.028-9.272-9.579-15.437-9.788c-2.647-0.093-5.283-0.139-7.888-0.139
	c-113.511-0.006-187.448,87.102-271.705,151.493c-49.398,37.751-102.342,67.695-168.888,67.695c-0.481,0-0.959-0.002-1.441-0.005
	l-3.718-8.184c-2.649-5.833-8.399-9.281-14.414-9.281c-2.188,0-4.411,0.457-6.532,1.42c-7.955,3.613-11.474,12.992-7.861,20.946
	l108.21,238.22L655.849,951.11c1.807,3.977,5.054,6.846,8.845,8.269c1.768,0.664,3.654,1.012,5.567,1.012
	c2.188,0,4.412-0.457,6.534-1.42c7.955-3.613,11.474-12.992,7.861-20.947l-176.38-388.293c0.471,0.003,0.972,0.004,1.441,0.004
	c180.067,0,260.546-219.169,440.593-219.188c2.616,0,5.23,0.045,7.888,0.139c0.172,0.006,0.343,0.009,0.51,0.009
	c5.836,0,8.873-3.547,6.649-8.442C922.983,228.966,880.608,135.679,838.232,42.392z"/>
</svg>
