<?xml version="1.0" encoding="utf-8"?>
<!-- Generator: Adobe Illustrator 17.1.0, SVG Export Plug-In . SVG Version: 6.00 Build 0)  -->
<!DOCTYPE svg PUBLIC "-//W3C//DTD SVG 1.1//EN" "http://www.w3.org/Graphics/SVG/1.1/DTD/svg11.dtd">
<svg version="1.1" id="Capa_1" xmlns="http://www.w3.org/2000/svg" xmlns:xlink="http://www.w3.org/1999/xlink" x="0px" y="0px"
	 width="1000px" height="1000px" viewBox="0 0 1000 1000" enable-background="new 0 0 1000 1000" xml:space="preserve">
<g>
	<path d="M918.61,447.775c-6.712-4.654-15.926-2.985-20.58,3.727l-266.425,384.26c-9.156-0.379-18.302,3.788-23.91,11.875
		l-65.814,94.922c-8.708,12.559-5.586,29.799,6.973,38.507c12.559,8.708,29.799,5.585,38.507-6.974l65.814-94.922
		c5.608-8.088,6.302-18.114,2.737-26.556l266.425-384.26C926.99,461.644,925.322,452.43,918.61,447.775z"/>
	<path d="M691.56,694.357c3.752,2.779,9.027,1.812,11.685-2.022c65.41-94.339,113.004-162.983,178.414-257.323
		c2.661-3.839,1.697-9.087-2.055-11.868C748.549,321.933,713.507,120.807,582.453,19.595c-3.751-2.78-9.027-1.813-11.685,2.021
		c-46.309,66.791-83.693,120.709-124.786,179.978c19.96,18.095,40.322,35.755,61.057,51.538
		c35.772,27.229,69.203,46.119,102.196,57.746c6.927,2.349,12.641,7.176,16.107,13.613c0.122,0.227,0.233,0.458,0.349,0.687
		c5.235-3.096,11.29-4.854,17.619-4.854c3.331,0,6.645,0.48,9.851,1.426c8.913,2.629,16.268,8.572,20.711,16.734
		c4.443,8.162,5.441,17.565,2.812,26.478l-69.647,236.049C631.108,636.396,658.224,668.613,691.56,694.357z"/>
	<path d="M511.881,646.737c3.566,0,6.851-2.376,7.92-5.998c13.259-44.938,25.044-84.879,36.558-123.903
		c16.697-56.592,32.825-111.254,52.053-176.421c1.321-4.48-1.242-9.161-5.677-10.623c-63.238-22.248-116.676-64.984-168.249-111.619
		C358.669,149.617,286.883,72.636,193.918,39.931c-0.845-0.279-1.701-0.411-2.541-0.411c-3.565,0-6.85,2.376-7.919,5.999
		c-32.486,110.104-56.124,190.219-88.611,300.324c-1.32,4.477,1.243,9.162,5.677,10.623
		c156.203,54.952,252.614,234.91,408.817,289.862C510.186,646.605,511.041,646.737,511.881,646.737z"/>
	<path d="M657.5,359.302c2.311-7.834-2.166-16.058-9.999-18.369c-1.396-0.412-2.806-0.608-4.191-0.608
		c-6.387,0-12.279,4.17-14.178,10.607l-57.128,193.62l-75.195,254.853c-8.812,2.515-16.188,9.342-18.973,18.782l-32.687,110.784
		c-4.325,14.657,4.052,30.046,18.709,34.371c2.612,0.771,5.25,1.138,7.842,1.138c11.951,0,22.974-7.802,26.528-19.848
		l32.687-110.785c2.785-9.439,0.297-19.176-5.738-26.072l67.497-228.763L657.5,359.302z"/>
</g>
</svg>
