<?xml version="1.0" encoding="utf-8"?>
<!-- Generator: Adobe Illustrator 17.1.0, SVG Export Plug-In . SVG Version: 6.00 Build 0)  -->
<!DOCTYPE svg PUBLIC "-//W3C//DTD SVG 1.1//EN" "http://www.w3.org/Graphics/SVG/1.1/DTD/svg11.dtd">
<svg version="1.1" id="Capa_1" xmlns="http://www.w3.org/2000/svg" xmlns:xlink="http://www.w3.org/1999/xlink" x="0px" y="0px"
	 width="1000px" height="1000px" viewBox="0 0 1000 1000" enable-background="new 0 0 1000 1000" xml:space="preserve">
<g>
	<path d="M40.573,94.238v719.59c0,9.665,7.835,17.5,17.5,17.5s17.5-7.835,17.5-17.5V94.238c0-9.665-7.835-17.5-17.5-17.5
		S40.573,84.573,40.573,94.238z"/>
	<path d="M663.523,104.377c0-5.243-3.907-11.904-8.778-14.759C488.691-7.813,282.827-7.813,116.773,89.617
		c-4.868,2.856-8.779,9.519-8.779,14.76c0,117.844,0,235.688,0,353.531c0,5.247,3.911,7.085,8.779,4.23
		c59.655-35.002,124.448-57.429,190.688-67.282V239.01c0-22.145,18.017-40.161,40.162-40.161c16.944,0,31.461,10.553,37.35,25.428
		c2.91-3.544,6.364-6.604,10.218-8.863c81.458-47.795,173.992-73.943,268.334-75.957
		C663.523,127.764,663.523,116.07,663.523,104.377z"/>
	<path d="M365.783,958.6V389.455V239.01c0-10.03-8.131-18.161-18.161-18.161s-18.162,8.131-18.162,18.161v153.059V958.6
		c0,10.03,8.131,18.161,18.162,18.161S365.783,968.63,365.783,958.6z"/>
	<path d="M948.554,608.251c2.701,0,4.52-1.993,4.52-5.572c0-117.844,0-235.688,0-353.531c-0.003-5.241-3.907-11.903-8.779-14.76
		c-83.027-48.715-176.006-73.073-268.986-73.073c-3.929,0-7.857,0.06-11.785,0.147c-89.034,1.971-177.682,26.269-257.201,72.926
		c-4.871,2.856-8.776,9.518-8.779,14.76c0,46.688,0,93.376,0,140.064c0,71.156,0,142.312,0,213.467c0,3.578,1.817,5.572,4.519,5.572
		c1.259,0,2.711-0.433,4.26-1.341c83.027-48.715,176.006-73.073,268.986-73.073s185.959,24.358,268.986,73.073
		C945.843,607.818,947.294,608.251,948.554,608.251z"/>
</g>
</svg>
