<?xml version="1.0" encoding="utf-8"?>
<!-- Generator: Adobe Illustrator 17.1.0, SVG Export Plug-In . SVG Version: 6.00 Build 0)  -->
<!DOCTYPE svg PUBLIC "-//W3C//DTD SVG 1.1//EN" "http://www.w3.org/Graphics/SVG/1.1/DTD/svg11.dtd">
<svg version="1.1" id="Capa_1" xmlns="http://www.w3.org/2000/svg" xmlns:xlink="http://www.w3.org/1999/xlink" x="0px" y="0px"
	 width="1000px" height="1000px" viewBox="0 0 1000 1000" enable-background="new 0 0 1000 1000" xml:space="preserve">
<path d="M977.604,409.41V226.271c0-6.615-5.362-11.977-11.977-11.977H337.421c-57.962,0-112.196,15.933-158.591,43.635
	c-17.129-21.336-43.416-35.022-72.843-35.022c-51.492,0-93.384,41.892-93.384,93.384c0,33.006,17.213,62.068,43.133,78.68
	c-18.053,39.313-28.133,83.047-28.133,129.139c0,171.107,138.709,309.817,309.817,309.817c68.259,0,131.356-22.082,182.554-59.483
	c5.341-3.902,9.562-7.269,9.596-7.297c0.031-0.026,0.061-0.052,0.061-0.052l438.49-338.394
	C973.358,424.663,977.604,416.025,977.604,409.41z M42.604,316.292c0-34.95,28.434-63.384,63.384-63.384
	c19.015,0,36.088,8.428,47.716,21.732c-33.987,25.071-62.664,56.916-84.042,93.548C53.317,356.712,42.604,337.735,42.604,316.292z
	 M339.138,724.176c-109.093,0-197.531-88.438-197.531-197.531c0-109.093,88.438-197.531,197.531-197.531
	c109.094,0,197.531,88.438,197.531,197.531C536.669,635.738,448.232,724.176,339.138,724.176z"/>
</svg>
