<?xml version="1.0" encoding="utf-8"?>
<!-- Generator: Adobe Illustrator 17.1.0, SVG Export Plug-In . SVG Version: 6.00 Build 0)  -->
<!DOCTYPE svg PUBLIC "-//W3C//DTD SVG 1.1//EN" "http://www.w3.org/Graphics/SVG/1.1/DTD/svg11.dtd">
<svg version="1.1" id="Capa_1" xmlns="http://www.w3.org/2000/svg" xmlns:xlink="http://www.w3.org/1999/xlink" x="0px" y="0px"
	 width="1000px" height="1000px" viewBox="0 0 1000 1000" enable-background="new 0 0 1000 1000" xml:space="preserve">
<g>
	<path d="M81.5,76.9L6.3,263.4c-2.9,7.3-1.1,13,7.3,16.4l68.9,29.3c5.8,2.4,12.7,9.1,15.3,14.9c10.4,22.9,20.9,45.7,31.2,68.6
		c42.5,94.1,84.6,188.5,128.1,282.2c49.6,106.5,93.5,203.2,211.6,250.8c136.2,54.9,287.6,11.7,375.9-96.3c4.2,2.5,8.7,4.7,13.3,6.5
		c16.6,6.7,34.7,8.8,52.3,6.1c0,0,0,0,0,0c34.5-5.3,64-28.7,77.1-61.1c9.9-24.6,9.7-51.6-0.7-76.1c-10.4-24.4-29.7-43.4-54.3-53.3
		c-4.8-1.9-9.6-3.4-14.6-4.6c10.6-138.5-68.4-273.9-204.1-328.6l-96.4-38.9l-14.8,36.6c-2.4,5.9-7,8.3-12.3,5.5L502,264.9
		c-4.4-2.8-6.1-9.9-3.8-15.8l6.2-15.4L97.9,69.9C91.5,67.2,84.1,70.4,81.5,76.9z M894.8,744.3c8.5-21.2,14.7-42.8,18.6-64.4
		c2.2,0.6,4.3,1.4,6.4,2.2c16.4,6.6,29.3,19.2,36.2,35.5c6.9,16.3,7.1,34.3,0.5,50.7c-8.7,21.6-28.4,37.2-51.4,40.7
		c-11.7,1.8-23.8,0.4-34.8-4.1c-2-0.8-4-1.7-5.9-2.7C876.2,784.4,886.5,765,894.8,744.3z M387.9,539c14.5-36,38.3-67.6,68.8-91.3
		c29.6-23,64.8-38.2,101.8-43.9c39-6,79-1.4,115.7,13.4c54.5,22,97.2,63.9,120.2,117.9c23,54.1,23.5,113.9,1.6,168.3
		c-14.5,36-38.3,67.6-68.8,91.3c-29.6,23-64.8,38.2-101.8,43.9c0,0,0,0,0,0c-39,6-79,1.4-115.7-13.4c-54.5-22-97.2-63.9-120.2-117.9
		C366.5,653.3,365.9,593.5,387.9,539z"/>
	<path d="M752.3,593.5c21.5-16.4,38.1-38.2,48.1-63.1c9.5-23.7,12.9-49.7,9.6-75.1c-3.3-26.1-13.6-51-29.6-72
		c-50.2-65.7-144.5-78.3-210.2-28.1c-21.5,16.4-38.1,38.2-48.1,63.1c-9.5,23.7-12.9,49.7-9.6,75.1c3.3,26.1,13.6,51,29.6,72
		c24.3,31.8,59.6,52.3,99.3,57.6C681.1,628.3,720.5,617.8,752.3,593.5z"/>
</g>
</svg>
