<?xml version="1.0" encoding="utf-8"?>
<!-- Generator: Adobe Illustrator 17.1.0, SVG Export Plug-In . SVG Version: 6.00 Build 0)  -->
<!DOCTYPE svg PUBLIC "-//W3C//DTD SVG 1.1//EN" "http://www.w3.org/Graphics/SVG/1.1/DTD/svg11.dtd">
<svg version="1.1" id="Capa_1" xmlns="http://www.w3.org/2000/svg" xmlns:xlink="http://www.w3.org/1999/xlink" x="0px" y="0px"
	 width="1000px" height="1000px" viewBox="0 0 1000 1000" enable-background="new 0 0 1000 1000" xml:space="preserve">
<path d="M836.246,79.108c-1.788,0-3.589,0.174-5.353,0.517l-347.872,67.563c-7.34,1.427-13.687,5.625-17.868,11.823
	c-4.183,6.199-5.701,13.657-4.274,20.997l39.655,204.175l18.963,18.962l18.964,18.964l-47.75-245.854l343.936-66.8l108.553,558.917
	l-280.263,54.432l-18.964,18.964l-18.963,18.963l325.879-63.292c15.152-2.944,25.085-17.668,22.143-32.82L863.714,101.77
	C861.164,88.639,849.612,79.108,836.246,79.108z"/>
<path d="M762.994,453.627l-38.766-199.597c-1.266-6.517-7.575-10.774-14.092-9.508l-53.409,10.373
	c-6.517,1.266-10.774,7.575-9.509,14.092l38.766,199.597c1.266,6.517,7.575,10.774,14.093,9.508l53.409-10.373
	C760.002,466.454,764.26,460.145,762.994,453.627z"/>
<circle cx="739.654" cy="539.184" r="39.224"/>
<path d="M441.787,894.464c2.538,2.538,5.864,3.807,9.189,3.807s6.652-1.269,9.189-3.807L590.15,764.48l15.211-15.211l18.964-18.964
	l86.419-86.419c5.075-5.075,5.075-13.304,0-18.379L545.96,460.722l-18.964-18.964l-18.962-18.963L305.311,220.073
	c-2.538-2.538-5.864-3.807-9.189-3.807s-6.652,1.269-9.189,3.807L36.354,470.652c-5.075,5.075-5.075,13.304,0,18.379
	L441.787,894.464z M243.803,523.058c0-6.639,5.382-12.021,12.021-12.021h73.096v-73.096c0-6.639,5.382-12.021,12.021-12.021h54.407
	c6.639,0,12.021,5.382,12.021,12.021v73.096h73.095c6.639,0,12.021,5.382,12.021,12.021v54.407c0,6.639-5.382,12.021-12.021,12.021
	h-73.095v73.096c0,6.639-5.382,12.021-12.021,12.021h-54.407c-6.639,0-12.021-5.382-12.021-12.021v-73.096h-73.096
	c-6.639,0-12.021-5.382-12.021-12.021V523.058z"/>
</svg>
